<svg version="1.1" xmlns="http://www.w3.org/2000/svg" xmlns:xlink="http://www.w3.org/1999/xlink" width="628.8" height="248"><style xmlns="http://www.w3.org/1999/xhtml"></style><defs/><g transform="translate(0,0)"><g><rect fill="#FFFFFF" stroke="none" x="0" y="0" width="628.8" height="248"/></g><g transform="translate(0,0) matrix(1,0,0,1,150,20)"><g transform="translate(4,4) scale(1.0047619047619047,1.0333333333333334)"><g><g transform="translate(0,0) scale(2.1,0.3)"><g><path fill="none" stroke="none" stroke-dasharray="1.7976931348623157e+308" d="M 10 0 L 90 0 Q 100 0 100 10 L 100 90 Q 100 100 90 100 L 10 100 Q 0 100 0 90 L 0 10 Q 0 0 10 0 Z"/><g transform="scale(0.47619047619047616,3.3333333333333335)"><path fill="#000000" stroke="none" stroke-dasharray="1.7976931348623157e+308" d="M 10 0 L 200 0 Q 210 0 210 10 L 210 20 Q 210 30 200 30 L 10 30 Q 0 30 0 20 L 0 10 Q 0 0 10 0 Z" opacity="0.294117647"/><path fill="none" stroke="rgb(0,0,0)" stroke-dasharray="1.7976931348623157e+308" d="M 10 0 L 200 0 Q 210 0 210 10 L 210 20 Q 210 30 200 30 L 10 30 Q 0 30 0 20 L 0 10 Q 0 0 10 0 Z" stroke-opacity="0" stroke-miterlimit="10" stroke-width="2" opacity="0.294117647"/></g></g></g></g></g><g><g transform="translate(0,0) scale(2.1,0.3)"><g><path fill="none" stroke="none" stroke-dasharray="1.7976931348623157e+308" d="M 10 0 L 90 0 Q 100 0 100 10 L 100 90 Q 100 100 90 100 L 10 100 Q 0 100 0 90 L 0 10 Q 0 0 10 0 Z"/><g transform="scale(0.47619047619047616,3.3333333333333335)"><path fill="#4a86e8" stroke="none" stroke-dasharray="1.7976931348623157e+308" d="M 10 0 L 200 0 Q 210 0 210 10 L 210 20 Q 210 30 200 30 L 10 30 Q 0 30 0 20 L 0 10 Q 0 0 10 0 Z"/><path fill="none" stroke="#333333" stroke-dasharray="1.7976931348623157e+308" d="M 10 0 L 200 0 Q 210 0 210 10 L 210 20 Q 210 30 200 30 L 10 30 Q 0 30 0 20 L 0 10 Q 0 0 10 0 Z" stroke-miterlimit="10" stroke-width="2"/></g></g></g></g></g><g transform="matrix(1,0,0,1,162,28)"><g><g><rect fill="rgb(0,0,0)" stroke="none" x="0" y="0" width="187" height="14" fill-opacity="0"/></g></g><g><g><rect fill="rgb(0,0,0)" stroke="none" x="0" y="0" width="187" height="14" fill-opacity="0"/></g></g><g><g><rect fill="rgb(0,0,0)" stroke="none" x="25.609375" y="0" width="135" height="14" fill-opacity="0"/></g></g><g><g><rect fill="rgb(0,0,0)" stroke="none" x="25.609375" y="0" width="135" height="14" fill-opacity="0"/></g><text fill="rgb(255, 255, 255)" stroke="none" font-family="Arial" font-size="12px" font-style="normal" font-weight="700" text-decoration="" line-height="14px" x="26" y="12">Bootstrap</text><text fill="rgb(255, 255, 255)" stroke="none" font-family="Arial" font-size="12px" font-style="normal" font-weight="700" text-decoration="" line-height="14px" x="86" y="12">Class</text><text fill="rgb(255, 255, 255)" stroke="none" font-family="Arial" font-size="12px" font-style="normal" font-weight="700" text-decoration="" line-height="14px" x="121" y="12">Loader</text></g></g><g transform="translate(0,0) matrix(1,0,0,1,150,80)"><g transform="translate(4,4) scale(1.0047619047619047,1.0333333333333334)"><g><g transform="translate(0,0) scale(2.1,0.3)"><g><path fill="none" stroke="none" stroke-dasharray="1.7976931348623157e+308" d="M 10 0 L 90 0 Q 100 0 100 10 L 100 90 Q 100 100 90 100 L 10 100 Q 0 100 0 90 L 0 10 Q 0 0 10 0 Z"/><g transform="scale(0.47619047619047616,3.3333333333333335)"><path fill="#000000" stroke="none" stroke-dasharray="1.7976931348623157e+308" d="M 10 0 L 200 0 Q 210 0 210 10 L 210 20 Q 210 30 200 30 L 10 30 Q 0 30 0 20 L 0 10 Q 0 0 10 0 Z" opacity="0.294117647"/><path fill="none" stroke="rgb(0,0,0)" stroke-dasharray="1.7976931348623157e+308" d="M 10 0 L 200 0 Q 210 0 210 10 L 210 20 Q 210 30 200 30 L 10 30 Q 0 30 0 20 L 0 10 Q 0 0 10 0 Z" stroke-opacity="0" stroke-miterlimit="10" stroke-width="2" opacity="0.294117647"/></g></g></g></g></g><g><g transform="translate(0,0) scale(2.1,0.3)"><g><path fill="none" stroke="none" stroke-dasharray="1.7976931348623157e+308" d="M 10 0 L 90 0 Q 100 0 100 10 L 100 90 Q 100 100 90 100 L 10 100 Q 0 100 0 90 L 0 10 Q 0 0 10 0 Z"/><g transform="scale(0.47619047619047616,3.3333333333333335)"><path fill="#4a86e8" stroke="none" stroke-dasharray="1.7976931348623157e+308" d="M 10 0 L 200 0 Q 210 0 210 10 L 210 20 Q 210 30 200 30 L 10 30 Q 0 30 0 20 L 0 10 Q 0 0 10 0 Z"/><path fill="none" stroke="#333333" stroke-dasharray="1.7976931348623157e+308" d="M 10 0 L 200 0 Q 210 0 210 10 L 210 20 Q 210 30 200 30 L 10 30 Q 0 30 0 20 L 0 10 Q 0 0 10 0 Z" stroke-miterlimit="10" stroke-width="2"/></g></g></g></g></g><g transform="matrix(1,0,0,1,162,88)"><g><g><rect fill="rgb(0,0,0)" stroke="none" x="0" y="0" width="187" height="14" fill-opacity="0"/></g></g><g><g><rect fill="rgb(0,0,0)" stroke="none" x="0" y="0" width="187" height="14" fill-opacity="0"/></g></g><g><g><rect fill="rgb(0,0,0)" stroke="none" x="29.609375" y="0" width="127" height="14" fill-opacity="0"/></g></g><g><g><rect fill="rgb(0,0,0)" stroke="none" x="29.609375" y="0" width="127" height="14" fill-opacity="0"/></g><text fill="rgb(255, 255, 255)" stroke="none" font-family="Arial" font-size="12px" font-style="normal" font-weight="700" text-decoration="" line-height="14px" x="30" y="12">Platform</text><text fill="rgb(255, 255, 255)" stroke="none" font-family="Arial" font-size="12px" font-style="normal" font-weight="700" text-decoration="" line-height="14px" x="82" y="12">Class</text><text fill="rgb(255, 255, 255)" stroke="none" font-family="Arial" font-size="12px" font-style="normal" font-weight="700" text-decoration="" line-height="14px" x="117" y="12">Loader</text></g></g><g transform="translate(0,0) matrix(1,0,0,1,150,140)"><g transform="translate(4,4) scale(1.0047619047619047,1.0333333333333334)"><g><g transform="translate(0,0) scale(2.1,0.3)"><g><path fill="none" stroke="none" stroke-dasharray="1.7976931348623157e+308" d="M 10 0 L 90 0 Q 100 0 100 10 L 100 90 Q 100 100 90 100 L 10 100 Q 0 100 0 90 L 0 10 Q 0 0 10 0 Z"/><g transform="scale(0.47619047619047616,3.3333333333333335)"><path fill="#000000" stroke="none" stroke-dasharray="1.7976931348623157e+308" d="M 10 0 L 200 0 Q 210 0 210 10 L 210 20 Q 210 30 200 30 L 10 30 Q 0 30 0 20 L 0 10 Q 0 0 10 0 Z" opacity="0.294117647"/><path fill="none" stroke="rgb(0,0,0)" stroke-dasharray="1.7976931348623157e+308" d="M 10 0 L 200 0 Q 210 0 210 10 L 210 20 Q 210 30 200 30 L 10 30 Q 0 30 0 20 L 0 10 Q 0 0 10 0 Z" stroke-opacity="0" stroke-miterlimit="10" stroke-width="2" opacity="0.294117647"/></g></g></g></g></g><g><g transform="translate(0,0) scale(2.1,0.3)"><g><path fill="none" stroke="none" stroke-dasharray="1.7976931348623157e+308" d="M 10 0 L 90 0 Q 100 0 100 10 L 100 90 Q 100 100 90 100 L 10 100 Q 0 100 0 90 L 0 10 Q 0 0 10 0 Z"/><g transform="scale(0.47619047619047616,3.3333333333333335)"><path fill="#4a86e8" stroke="none" stroke-dasharray="1.7976931348623157e+308" d="M 10 0 L 200 0 Q 210 0 210 10 L 210 20 Q 210 30 200 30 L 10 30 Q 0 30 0 20 L 0 10 Q 0 0 10 0 Z"/><path fill="none" stroke="#333333" stroke-dasharray="1.7976931348623157e+308" d="M 10 0 L 200 0 Q 210 0 210 10 L 210 20 Q 210 30 200 30 L 10 30 Q 0 30 0 20 L 0 10 Q 0 0 10 0 Z" stroke-miterlimit="10" stroke-width="2"/></g></g></g></g></g><g transform="matrix(1,0,0,1,162,148)"><g><g><rect fill="rgb(0,0,0)" stroke="none" x="0" y="0" width="187" height="14" fill-opacity="0"/></g></g><g><g><rect fill="rgb(0,0,0)" stroke="none" x="0" y="0" width="187" height="14" fill-opacity="0"/></g></g><g><g><rect fill="rgb(0,0,0)" stroke="none" x="32.609375" y="0" width="121" height="14" fill-opacity="0"/></g></g><g><g><rect fill="rgb(0,0,0)" stroke="none" x="32.609375" y="0" width="121" height="14" fill-opacity="0"/></g><text fill="rgb(255, 255, 255)" stroke="none" font-family="Arial" font-size="12px" font-style="normal" font-weight="700" text-decoration="" line-height="14px" x="33" y="12">System</text><text fill="rgb(255, 255, 255)" stroke="none" font-family="Arial" font-size="12px" font-style="normal" font-weight="700" text-decoration="" line-height="14px" x="79" y="12">Class</text><text fill="rgb(255, 255, 255)" stroke="none" font-family="Arial" font-size="12px" font-style="normal" font-weight="700" text-decoration="" line-height="14px" x="114" y="12">Loader</text></g></g><g transform="translate(0,0) matrix(1,0,0,1,290,198)"><g transform="translate(4,4) scale(1.0047619047619047,1.0333333333333334)"><g><g transform="translate(0,0) scale(2.1,0.3)"><g><path fill="none" stroke="none" stroke-dasharray="1.7976931348623157e+308" d="M 10 0 L 90 0 Q 100 0 100 10 L 100 90 Q 100 100 90 100 L 10 100 Q 0 100 0 90 L 0 10 Q 0 0 10 0 Z"/><g transform="scale(0.47619047619047616,3.3333333333333335)"><path fill="#000000" stroke="none" stroke-dasharray="1.7976931348623157e+308" d="M 10 0 L 200 0 Q 210 0 210 10 L 210 20 Q 210 30 200 30 L 10 30 Q 0 30 0 20 L 0 10 Q 0 0 10 0 Z" opacity="0.294117647"/><path fill="none" stroke="rgb(0,0,0)" stroke-dasharray="1.7976931348623157e+308" d="M 10 0 L 200 0 Q 210 0 210 10 L 210 20 Q 210 30 200 30 L 10 30 Q 0 30 0 20 L 0 10 Q 0 0 10 0 Z" stroke-opacity="0" stroke-miterlimit="10" stroke-width="2" opacity="0.294117647"/></g></g></g></g></g><g><g transform="translate(0,0) scale(2.1,0.3)"><g><path fill="none" stroke="none" stroke-dasharray="1.7976931348623157e+308" d="M 10 0 L 90 0 Q 100 0 100 10 L 100 90 Q 100 100 90 100 L 10 100 Q 0 100 0 90 L 0 10 Q 0 0 10 0 Z"/><g transform="scale(0.47619047619047616,3.3333333333333335)"><path fill="#a61c00" stroke="none" stroke-dasharray="1.7976931348623157e+308" d="M 10 0 L 200 0 Q 210 0 210 10 L 210 20 Q 210 30 200 30 L 10 30 Q 0 30 0 20 L 0 10 Q 0 0 10 0 Z"/><path fill="none" stroke="#000000" stroke-dasharray="1.7976931348623157e+308" d="M 10 0 L 200 0 Q 210 0 210 10 L 210 20 Q 210 30 200 30 L 10 30 Q 0 30 0 20 L 0 10 Q 0 0 10 0 Z" stroke-miterlimit="10" stroke-width="2"/></g></g></g></g></g><g transform="matrix(1,0,0,1,302,206)"><g><g><rect fill="rgb(0,0,0)" stroke="none" x="0" y="0" width="188" height="14" fill-opacity="0"/></g></g><g><g><rect fill="rgb(0,0,0)" stroke="none" x="0" y="0" width="188" height="14" fill-opacity="0"/></g></g><g><g><rect fill="rgb(0,0,0)" stroke="none" x="32.3125" y="0" width="124" height="14" fill-opacity="0"/></g></g><g><g><rect fill="rgb(0,0,0)" stroke="none" x="32.3125" y="0" width="124" height="14" fill-opacity="0"/></g><text fill="rgb(255, 255, 255)" stroke="none" font-family="Arial" font-size="12px" font-style="normal" font-weight="700" text-decoration="" line-height="14px" x="32" y="12">Custom</text><text fill="rgb(255, 255, 255)" stroke="none" font-family="Arial" font-size="12px" font-style="normal" font-weight="700" text-decoration="" line-height="14px" x="80" y="12">Class</text><text fill="rgb(255, 255, 255)" stroke="none" font-family="Arial" font-size="12px" font-style="normal" font-weight="700" text-decoration="" line-height="14px" x="116" y="12">Loader</text></g></g><g transform="translate(0,0) matrix(1,0,0,1,10,198)"><g transform="translate(4,4) scale(1.0047619047619047,1.0333333333333334)"><g><g transform="translate(0,0) scale(2.1,0.3)"><g><path fill="none" stroke="none" stroke-dasharray="1.7976931348623157e+308" d="M 10 0 L 90 0 Q 100 0 100 10 L 100 90 Q 100 100 90 100 L 10 100 Q 0 100 0 90 L 0 10 Q 0 0 10 0 Z"/><g transform="scale(0.47619047619047616,3.3333333333333335)"><path fill="#000000" stroke="none" stroke-dasharray="1.7976931348623157e+308" d="M 10 0 L 200 0 Q 210 0 210 10 L 210 20 Q 210 30 200 30 L 10 30 Q 0 30 0 20 L 0 10 Q 0 0 10 0 Z" opacity="0.294117647"/><path fill="none" stroke="rgb(0,0,0)" stroke-dasharray="1.7976931348623157e+308" d="M 10 0 L 200 0 Q 210 0 210 10 L 210 20 Q 210 30 200 30 L 10 30 Q 0 30 0 20 L 0 10 Q 0 0 10 0 Z" stroke-opacity="0" stroke-miterlimit="10" stroke-width="2" opacity="0.294117647"/></g></g></g></g></g><g><g transform="translate(0,0) scale(2.1,0.3)"><g><path fill="none" stroke="none" stroke-dasharray="1.7976931348623157e+308" d="M 10 0 L 90 0 Q 100 0 100 10 L 100 90 Q 100 100 90 100 L 10 100 Q 0 100 0 90 L 0 10 Q 0 0 10 0 Z"/><g transform="scale(0.47619047619047616,3.3333333333333335)"><path fill="#a61c00" stroke="none" stroke-dasharray="1.7976931348623157e+308" d="M 10 0 L 200 0 Q 210 0 210 10 L 210 20 Q 210 30 200 30 L 10 30 Q 0 30 0 20 L 0 10 Q 0 0 10 0 Z"/><path fill="none" stroke="#000000" stroke-dasharray="1.7976931348623157e+308" d="M 10 0 L 200 0 Q 210 0 210 10 L 210 20 Q 210 30 200 30 L 10 30 Q 0 30 0 20 L 0 10 Q 0 0 10 0 Z" stroke-miterlimit="10" stroke-width="2"/></g></g></g></g></g><g transform="matrix(1,0,0,1,22,206)"><g><g><rect fill="rgb(0,0,0)" stroke="none" x="0" y="0" width="188" height="14" fill-opacity="0"/></g></g><g><g><rect fill="rgb(0,0,0)" stroke="none" x="0" y="0" width="188" height="14" fill-opacity="0"/></g></g><g><g><rect fill="rgb(0,0,0)" stroke="none" x="32.3125" y="0" width="124" height="14" fill-opacity="0"/></g></g><g><g><rect fill="rgb(0,0,0)" stroke="none" x="32.3125" y="0" width="124" height="14" fill-opacity="0"/></g><text fill="rgb(255, 255, 255)" stroke="none" font-family="Arial" font-size="12px" font-style="normal" font-weight="700" text-decoration="" line-height="14px" x="32" y="12">Custom</text><text fill="rgb(255, 255, 255)" stroke="none" font-family="Arial" font-size="12px" font-style="normal" font-weight="700" text-decoration="" line-height="14px" x="80" y="12">Class</text><text fill="rgb(255, 255, 255)" stroke="none" font-family="Arial" font-size="12px" font-style="normal" font-weight="700" text-decoration="" line-height="14px" x="116" y="12">Loader</text></g></g><g transform="translate(0,0) matrix(1,0,0,1,395,20)"><g transform="translate(4,4) scale(1.0047619047619047,1.0333333333333334)"><g><g transform="translate(0,0) scale(2.1,0.3)"><g><path fill="none" stroke="none" stroke-dasharray="1.7976931348623157e+308" d="M 10 0 L 90 0 Q 100 0 100 10 L 100 90 Q 100 100 90 100 L 10 100 Q 0 100 0 90 L 0 10 Q 0 0 10 0 Z"/><g transform="scale(0.47619047619047616,3.3333333333333335)"><path fill="#000000" stroke="none" stroke-dasharray="1.7976931348623157e+308" d="M 10 0 L 200 0 Q 210 0 210 10 L 210 20 Q 210 30 200 30 L 10 30 Q 0 30 0 20 L 0 10 Q 0 0 10 0 Z" opacity="0.294117647"/><path fill="none" stroke="rgb(0,0,0)" stroke-dasharray="1.7976931348623157e+308" d="M 10 0 L 200 0 Q 210 0 210 10 L 210 20 Q 210 30 200 30 L 10 30 Q 0 30 0 20 L 0 10 Q 0 0 10 0 Z" stroke-opacity="0" stroke-miterlimit="10" stroke-width="2" opacity="0.294117647"/></g></g></g></g></g><g><g transform="translate(0,0) scale(2.1,0.3)"><g><path fill="none" stroke="none" stroke-dasharray="1.7976931348623157e+308" d="M 10 0 L 90 0 Q 100 0 100 10 L 100 90 Q 100 100 90 100 L 10 100 Q 0 100 0 90 L 0 10 Q 0 0 10 0 Z"/><g transform="scale(0.47619047619047616,3.3333333333333335)"><path fill="#cccccc" stroke="none" stroke-dasharray="1.7976931348623157e+308" d="M 10 0 L 200 0 Q 210 0 210 10 L 210 20 Q 210 30 200 30 L 10 30 Q 0 30 0 20 L 0 10 Q 0 0 10 0 Z"/><path fill="none" stroke="#333333" stroke-dasharray="1.7976931348623157e+308" d="M 10 0 L 200 0 Q 210 0 210 10 L 210 20 Q 210 30 200 30 L 10 30 Q 0 30 0 20 L 0 10 Q 0 0 10 0 Z" stroke-miterlimit="10" stroke-width="2"/></g></g></g></g></g><g transform="matrix(1,0,0,1,407,28)"><g><g><rect fill="rgb(0,0,0)" stroke="none" x="0" y="0" width="187" height="14" fill-opacity="0"/></g></g><g><g><rect fill="rgb(0,0,0)" stroke="none" x="0" y="0" width="187" height="14" fill-opacity="0"/></g></g><g><g><rect fill="rgb(0,0,0)" stroke="none" x="64.28125" y="0" width="58" height="14" fill-opacity="0"/></g></g><g><g><rect fill="rgb(0,0,0)" stroke="none" x="64.28125" y="0" width="58" height="14" fill-opacity="0"/></g><text fill="rgb(0, 0, 0)" stroke="none" font-family="Arial" font-size="12px" font-style="normal" font-weight="700" text-decoration="" line-height="14px" x="64" y="12">jre</text><text fill="rgb(0, 0, 0)" stroke="none" font-family="Arial" font-size="12px" font-style="normal" font-weight="700" text-decoration="" line-height="14px" x="79" y="12">/</text><text fill="rgb(0, 0, 0)" stroke="none" font-family="Arial" font-size="12px" font-style="normal" font-weight="700" text-decoration="" line-height="14px" x="82" y="12">lib</text><text fill="rgb(0, 0, 0)" stroke="none" font-family="Arial" font-size="12px" font-style="normal" font-weight="700" text-decoration="" line-height="14px" x="96" y="12">/*.</text><text fill="rgb(0, 0, 0)" stroke="none" font-family="Arial" font-size="12px" font-style="normal" font-weight="700" text-decoration="" line-height="14px" x="108" y="12">jar</text></g></g><g transform="translate(0,0) matrix(1,0,0,1,395,80)"><g transform="translate(4,4) scale(1.0047619047619047,1.0333333333333334)"><g><g transform="translate(0,0) scale(2.1,0.3)"><g><path fill="none" stroke="none" stroke-dasharray="1.7976931348623157e+308" d="M 10 0 L 90 0 Q 100 0 100 10 L 100 90 Q 100 100 90 100 L 10 100 Q 0 100 0 90 L 0 10 Q 0 0 10 0 Z"/><g transform="scale(0.47619047619047616,3.3333333333333335)"><path fill="#000000" stroke="none" stroke-dasharray="1.7976931348623157e+308" d="M 10 0 L 200 0 Q 210 0 210 10 L 210 20 Q 210 30 200 30 L 10 30 Q 0 30 0 20 L 0 10 Q 0 0 10 0 Z" opacity="0.294117647"/><path fill="none" stroke="rgb(0,0,0)" stroke-dasharray="1.7976931348623157e+308" d="M 10 0 L 200 0 Q 210 0 210 10 L 210 20 Q 210 30 200 30 L 10 30 Q 0 30 0 20 L 0 10 Q 0 0 10 0 Z" stroke-opacity="0" stroke-miterlimit="10" stroke-width="2" opacity="0.294117647"/></g></g></g></g></g><g><g transform="translate(0,0) scale(2.1,0.3)"><g><path fill="none" stroke="none" stroke-dasharray="1.7976931348623157e+308" d="M 10 0 L 90 0 Q 100 0 100 10 L 100 90 Q 100 100 90 100 L 10 100 Q 0 100 0 90 L 0 10 Q 0 0 10 0 Z"/><g transform="scale(0.47619047619047616,3.3333333333333335)"><path fill="#cccccc" stroke="none" stroke-dasharray="1.7976931348623157e+308" d="M 10 0 L 200 0 Q 210 0 210 10 L 210 20 Q 210 30 200 30 L 10 30 Q 0 30 0 20 L 0 10 Q 0 0 10 0 Z"/><path fill="none" stroke="#333333" stroke-dasharray="1.7976931348623157e+308" d="M 10 0 L 200 0 Q 210 0 210 10 L 210 20 Q 210 30 200 30 L 10 30 Q 0 30 0 20 L 0 10 Q 0 0 10 0 Z" stroke-miterlimit="10" stroke-width="2"/></g></g></g></g></g><g transform="matrix(1,0,0,1,407,88)"><g><g><rect fill="rgb(0,0,0)" stroke="none" x="0" y="0" width="187" height="14" fill-opacity="0"/></g></g><g><g><rect fill="rgb(0,0,0)" stroke="none" x="0" y="0" width="187" height="14" fill-opacity="0"/></g></g><g><g><rect fill="rgb(0,0,0)" stroke="none" x="27.609375" y="0" width="131" height="14" fill-opacity="0"/></g></g><g><g><rect fill="rgb(0,0,0)" stroke="none" x="27.609375" y="0" width="131" height="14" fill-opacity="0"/></g><text fill="rgb(0, 0, 0)" stroke="none" font-family="Arial" font-size="12px" font-style="normal" font-weight="700" text-decoration="" line-height="14px" x="28" y="12">jre</text><text fill="rgb(0, 0, 0)" stroke="none" font-family="Arial" font-size="12px" font-style="normal" font-weight="700" text-decoration="" line-height="14px" x="42" y="12">/</text><text fill="rgb(0, 0, 0)" stroke="none" font-family="Arial" font-size="12px" font-style="normal" font-weight="700" text-decoration="" line-height="14px" x="46" y="12">lib</text><text fill="rgb(0, 0, 0)" stroke="none" font-family="Arial" font-size="12px" font-style="normal" font-weight="700" text-decoration="" line-height="14px" x="60" y="12">/</text><text fill="rgb(0, 0, 0)" stroke="none" font-family="Arial" font-size="12px" font-style="normal" font-weight="700" text-decoration="" line-height="14px" x="63" y="12">ext</text><text fill="rgb(0, 0, 0)" stroke="none" font-family="Arial" font-size="12px" font-style="normal" font-weight="700" text-decoration="" line-height="14px" x="80" y="12">/*.</text><text fill="rgb(0, 0, 0)" stroke="none" font-family="Arial" font-size="12px" font-style="normal" font-weight="700" text-decoration="" line-height="14px" x="92" y="12">jar</text><text fill="rgb(0, 0, 0)" stroke="none" font-family="Arial" font-size="12px" font-style="normal" font-weight="700" text-decoration="" line-height="14px" x="110" y="12">modules</text></g></g><g transform="translate(0,0) matrix(1,0,0,1,395,140)"><g transform="translate(4,4) scale(1.0047619047619047,1.0333333333333334)"><g><g transform="translate(0,0) scale(2.1,0.3)"><g><path fill="none" stroke="none" stroke-dasharray="1.7976931348623157e+308" d="M 10 0 L 90 0 Q 100 0 100 10 L 100 90 Q 100 100 90 100 L 10 100 Q 0 100 0 90 L 0 10 Q 0 0 10 0 Z"/><g transform="scale(0.47619047619047616,3.3333333333333335)"><path fill="#000000" stroke="none" stroke-dasharray="1.7976931348623157e+308" d="M 10 0 L 200 0 Q 210 0 210 10 L 210 20 Q 210 30 200 30 L 10 30 Q 0 30 0 20 L 0 10 Q 0 0 10 0 Z" opacity="0.294117647"/><path fill="none" stroke="rgb(0,0,0)" stroke-dasharray="1.7976931348623157e+308" d="M 10 0 L 200 0 Q 210 0 210 10 L 210 20 Q 210 30 200 30 L 10 30 Q 0 30 0 20 L 0 10 Q 0 0 10 0 Z" stroke-opacity="0" stroke-miterlimit="10" stroke-width="2" opacity="0.294117647"/></g></g></g></g></g><g><g transform="translate(0,0) scale(2.1,0.3)"><g><path fill="none" stroke="none" stroke-dasharray="1.7976931348623157e+308" d="M 10 0 L 90 0 Q 100 0 100 10 L 100 90 Q 100 100 90 100 L 10 100 Q 0 100 0 90 L 0 10 Q 0 0 10 0 Z"/><g transform="scale(0.47619047619047616,3.3333333333333335)"><path fill="#cccccc" stroke="none" stroke-dasharray="1.7976931348623157e+308" d="M 10 0 L 200 0 Q 210 0 210 10 L 210 20 Q 210 30 200 30 L 10 30 Q 0 30 0 20 L 0 10 Q 0 0 10 0 Z"/><path fill="none" stroke="#333333" stroke-dasharray="1.7976931348623157e+308" d="M 10 0 L 200 0 Q 210 0 210 10 L 210 20 Q 210 30 200 30 L 10 30 Q 0 30 0 20 L 0 10 Q 0 0 10 0 Z" stroke-miterlimit="10" stroke-width="2"/></g></g></g></g></g><g transform="matrix(1,0,0,1,407,148)"><g><g><rect fill="rgb(0,0,0)" stroke="none" x="0" y="0" width="187" height="14" fill-opacity="0"/></g></g><g><g><rect fill="rgb(0,0,0)" stroke="none" x="0" y="0" width="187" height="14" fill-opacity="0"/></g></g><g><g><rect fill="rgb(0,0,0)" stroke="none" x="57.953125" y="0" width="71" height="14" fill-opacity="0"/></g></g><g><g><rect fill="rgb(0,0,0)" stroke="none" x="57.953125" y="0" width="71" height="14" fill-opacity="0"/></g><text fill="rgb(0, 0, 0)" stroke="none" font-family="Arial" font-size="12px" font-style="normal" font-weight="700" text-decoration="" line-height="14px" x="58" y="12">-</text><text fill="rgb(0, 0, 0)" stroke="none" font-family="Arial" font-size="12px" font-style="normal" font-weight="700" text-decoration="" line-height="14px" x="62" y="12">cp</text><text fill="rgb(0, 0, 0)" stroke="none" font-family="Arial" font-size="12px" font-style="normal" font-weight="700" text-decoration="" line-height="14px" x="79" y="12">manifest</text></g></g><g transform="translate(0,0) matrix(-1.8369701987210297e-16,-1,1,-1.8369701987210297e-16,249,75)"><g><g transform="translate(0,0) scale(0.2,0.15)"><g><g transform="scale(5,6.666666666666667)"><path fill="#FFFFFF" stroke="none" stroke-dasharray="1.7976931348623157e+308" d="M 0 4.5 L 12.5 4.5 L 12.5 0 L 20 7.5 L 12.5 15 L 12.5 10.5 L 0 10.5 L 0 4.5 Z"/><path fill="none" stroke="#333333" stroke-dasharray="1.7976931348623157e+308" d="M 0 4.5 L 12.5 4.5 L 12.5 0 L 20 7.5 L 12.5 15 L 12.5 10.5 L 0 10.5 L 0 4.5 Z" stroke-miterlimit="10" stroke-width="2"/></g></g></g></g></g><g transform="translate(0,0) matrix(-1.8369701987210297e-16,-1,1,-1.8369701987210297e-16,248.5,135)"><g><g transform="translate(0,0) scale(0.2,0.15)"><g><g transform="scale(5,6.666666666666667)"><path fill="#FFFFFF" stroke="none" stroke-dasharray="1.7976931348623157e+308" d="M 0 4.5 L 12.5 4.5 L 12.5 0 L 20 7.5 L 12.5 15 L 12.5 10.5 L 0 10.5 L 0 4.5 Z"/><path fill="none" stroke="#333333" stroke-dasharray="1.7976931348623157e+308" d="M 0 4.5 L 12.5 4.5 L 12.5 0 L 20 7.5 L 12.5 15 L 12.5 10.5 L 0 10.5 L 0 4.5 Z" stroke-miterlimit="10" stroke-width="2"/></g></g></g></g></g><g transform="translate(0,0) matrix(1,0,0,1,368.5,29.499999999999996)"><g><g transform="translate(0,0) scale(0.2,0.15)"><g><g transform="scale(5,6.666666666666667)"><path fill="#FFFFFF" stroke="none" stroke-dasharray="1.7976931348623157e+308" d="M 0 4.5 L 12.5 4.5 L 12.5 0 L 20 7.5 L 12.5 15 L 12.5 10.5 L 0 10.5 L 0 4.5 Z"/><path fill="none" stroke="#333333" stroke-dasharray="1.7976931348623157e+308" d="M 0 4.5 L 12.5 4.5 L 12.5 0 L 20 7.5 L 12.5 15 L 12.5 10.5 L 0 10.5 L 0 4.5 Z" stroke-miterlimit="10" stroke-width="2"/></g></g></g></g></g><g transform="translate(0,0) matrix(1,0,0,1,368.5,87.5)"><g><g transform="translate(0,0) scale(0.2,0.15)"><g><g transform="scale(5,6.666666666666667)"><path fill="#FFFFFF" stroke="none" stroke-dasharray="1.7976931348623157e+308" d="M 0 4.5 L 12.5 4.5 L 12.5 0 L 20 7.5 L 12.5 15 L 12.5 10.5 L 0 10.5 L 0 4.5 Z"/><path fill="none" stroke="#333333" stroke-dasharray="1.7976931348623157e+308" d="M 0 4.5 L 12.5 4.5 L 12.5 0 L 20 7.5 L 12.5 15 L 12.5 10.5 L 0 10.5 L 0 4.5 Z" stroke-miterlimit="10" stroke-width="2"/></g></g></g></g></g><g transform="translate(0,0) matrix(1,0,0,1,368.5,147.5)"><g><g transform="translate(0,0) scale(0.2,0.15)"><g><g transform="scale(5,6.666666666666667)"><path fill="#FFFFFF" stroke="none" stroke-dasharray="1.7976931348623157e+308" d="M 0 4.5 L 12.5 4.5 L 12.5 0 L 20 7.5 L 12.5 15 L 12.5 10.5 L 0 10.5 L 0 4.5 Z"/><path fill="none" stroke="#333333" stroke-dasharray="1.7976931348623157e+308" d="M 0 4.5 L 12.5 4.5 L 12.5 0 L 20 7.5 L 12.5 15 L 12.5 10.5 L 0 10.5 L 0 4.5 Z" stroke-miterlimit="10" stroke-width="2"/></g></g></g></g></g><g transform="translate(0,0) matrix(-0.7071067811865477,-0.7071067811865475,0.7071067811865475,-0.7071067811865477,332.64213562373095,198)"><g><g transform="translate(0,0) scale(0.2,0.15)"><g><g transform="scale(5,6.666666666666667)"><path fill="#FFFFFF" stroke="none" stroke-dasharray="1.7976931348623157e+308" d="M 0 4.5 L 12.5 4.5 L 12.5 0 L 20 7.5 L 12.5 15 L 12.5 10.5 L 0 10.5 L 0 4.5 Z"/><path fill="none" stroke="#333333" stroke-dasharray="1.7976931348623157e+308" d="M 0 4.5 L 12.5 4.5 L 12.5 0 L 20 7.5 L 12.5 15 L 12.5 10.5 L 0 10.5 L 0 4.5 Z" stroke-miterlimit="10" stroke-width="2"/></g></g></g></g></g><g transform="translate(0,0) matrix(0.7071067811865474,-0.7071067811865477,0.7071067811865477,0.7071067811865474,177.62563132923543,187.3933982822018)"><g><g transform="translate(0,0) scale(0.2,0.15)"><g><g transform="scale(5,6.666666666666667)"><path fill="#FFFFFF" stroke="none" stroke-dasharray="1.7976931348623157e+308" d="M 0 4.5 L 12.5 4.5 L 12.5 0 L 20 7.5 L 12.5 15 L 12.5 10.5 L 0 10.5 L 0 4.5 Z"/><path fill="none" stroke="#333333" stroke-dasharray="1.7976931348623157e+308" d="M 0 4.5 L 12.5 4.5 L 12.5 0 L 20 7.5 L 12.5 15 L 12.5 10.5 L 0 10.5 L 0 4.5 Z" stroke-miterlimit="10" stroke-width="2"/></g></g></g></g></g></g></svg>