<?xml version="1.0" encoding="utf-8"?>
<!-- Generator: Adobe Illustrator 23.0.1, SVG Export Plug-In . SVG Version: 6.00 Build 0)  -->
<svg version="1.1" xmlns="http://www.w3.org/2000/svg" xmlns:xlink="http://www.w3.org/1999/xlink" x="0px" y="0px"
	 viewBox="0 0 40 59.75" style="enable-background:new 0 0 40 59.75;" xml:space="preserve">
<style type="text/css">
	.st0{fill:#010002;}
	.st1{fill:#A30000;}
</style>
<g id="Warstwa_1">
	<g id="Warstwa_3">
		<g>
			<g>
				<path class="st0" d="M9.59,47.11C9.59,47.11,9.59,47.1,9.59,47.11c0.42,0.33,0.85,0.65,1.3,0.94c-0.42-0.6-0.72-1.28-0.89-2.04
					c-0.04-0.16-0.08-0.32-0.1-0.49c-0.06-0.4-0.84-4.6,0.36-8.77c0.57-1.98,1.58-3.95,3.34-5.5c0,0-0.07,7.36,4.76,11.98
					c0,0-0.16-2.58,2.5-7.6c2.83-5.35,0.72-12.49,0.72-12.49s4.39,4.11,6.66,10.24c1.16-1.46,2.01-2.19,1.89-1.86
					c-0.81,2.09-0.39,3.64,0.28,5.18c0.77,1.78,1.88,3.53,1.86,6.07c-0.01,1.29-0.64,2.62-1.52,3.89c-0.26,0.38-0.55,0.75-0.86,1.11
					c0.36-0.21,0.7-0.44,1.02-0.67c0,0,0,0,0,0.01c0,0,8.18-5.43,8.23-10.17S35.27,30.19,37,25.69c0.16-0.42-1.25,0.86-2.87,3.18
					C30.27,12.06,13.67,1.4,13.67,1.4s7.57,8.69,4.77,17.34s-1.09,13.85-1.09,13.85c-4.86-6.65-2.37-17.42-2.37-17.42
					c-4.58,4.04-7.1,9.04-8.47,13.26c-1.38-2.05-2.53-3.13-2.38-2.74c1.74,4.5-2.19,6.51-2.14,11.25
					C2.04,41.68,9.59,47.11,9.59,47.11z"/>
			</g>
		</g>
	</g>
</g>
<g id="Warstwa_2">
	<g>
		<g>
			<path class="st1" d="M11.76,49.85h1.48v5.24c0,2.23-1.08,2.97-2.68,2.97c-0.41,0-0.92-0.07-1.24-0.19l0.18-1.19
				c0.24,0.08,0.56,0.15,0.91,0.15c0.84,0,1.35-0.38,1.35-1.78V49.85z"/>
			<path class="st1" d="M16.7,57.94l-2.62-8.08h1.61l1.1,3.68c0.31,1.02,0.58,1.97,0.79,2.94h0.03c0.21-0.95,0.51-1.94,0.82-2.92
				l1.18-3.7h1.57l-2.79,8.08H16.7z"/>
			<path class="st1" d="M28.89,54.64c-0.05-1.04-0.1-2.3-0.1-3.4h-0.03c-0.27,0.99-0.61,2.08-0.95,3.1l-1.19,3.5h-1.14l-1.07-3.45
				c-0.32-1.04-0.61-2.14-0.82-3.15h-0.03c-0.04,1.06-0.08,2.35-0.14,3.45l-0.18,3.25h-1.38l0.54-8.08h1.94l1.05,3.25
				c0.29,0.96,0.55,1.91,0.74,2.82h0.04c0.22-0.88,0.5-1.87,0.81-2.82l1.12-3.24h1.92l0.46,8.08h-1.44L28.89,54.64z"/>
		</g>
	</g>
</g>
</svg>
