<?xml version="1.0" encoding="utf-8"?>
<!-- Generator: Adobe Illustrator 23.0.1, SVG Export Plug-In . SVG Version: 6.00 Build 0)  -->
<svg version="1.1" xmlns="http://www.w3.org/2000/svg" xmlns:xlink="http://www.w3.org/1999/xlink" x="0px" y="0px"
	 viewBox="0 0 72.33 49.78" style="enable-background:new 0 0 72.33 49.78;" xml:space="preserve">
<style type="text/css">
	.st0{font-family:'Gabriola';}
	.st1{font-size:12px;}
</style>
<g id="Warstwa_1">
	<g>
		<path d="M20.16,23.3c-0.03-0.19-0.06-0.38-0.09-0.59S20,22.3,19.96,22.09s-0.08-0.42-0.13-0.62s-0.09-0.4-0.13-0.59
			s-0.09-0.36-0.13-0.51s-0.08-0.29-0.11-0.4c-0.04-0.12-0.07-0.21-0.11-0.28s-0.07-0.13-0.1-0.17s-0.08-0.07-0.12-0.09
			s-0.09-0.02-0.15-0.02c-0.06,0-0.13,0.01-0.2,0.02s-0.16,0.03-0.26,0.06l-0.04-0.21c0.12-0.04,0.23-0.08,0.34-0.12
			s0.22-0.07,0.31-0.09s0.18-0.04,0.25-0.06s0.13-0.02,0.18-0.02c0.05,0,0.1,0.01,0.15,0.03s0.09,0.05,0.13,0.1s0.08,0.11,0.12,0.18
			s0.07,0.17,0.11,0.29c0.03,0.08,0.06,0.18,0.09,0.3s0.07,0.27,0.11,0.42s0.08,0.33,0.12,0.51s0.08,0.38,0.12,0.57
			s0.07,0.4,0.1,0.6s0.06,0.4,0.08,0.6c0.1-0.14,0.2-0.29,0.29-0.44s0.19-0.31,0.28-0.46s0.18-0.31,0.25-0.47s0.15-0.32,0.21-0.47
			s0.1-0.31,0.14-0.46s0.05-0.3,0.05-0.44c0-0.18-0.03-0.34-0.09-0.5s-0.17-0.29-0.31-0.41l0.03-0.07c0.04,0,0.07-0.01,0.1-0.01
			s0.07,0,0.1,0c0.26,0,0.46,0.06,0.59,0.18s0.2,0.29,0.2,0.51c0,0.17-0.04,0.35-0.11,0.57s-0.16,0.43-0.28,0.67
			s-0.25,0.47-0.39,0.71s-0.3,0.47-0.45,0.7s-0.3,0.44-0.45,0.63s-0.27,0.37-0.38,0.51L20.16,23.3z"/>
		<path d="M25.91,22.29c0.01,0.01,0.03,0.01,0.05,0.02s0.04,0.02,0.05,0.04s0.03,0.03,0.04,0.04s0.02,0.03,0.02,0.04
			c0,0.01,0,0.02-0.01,0.02c-0.11,0.15-0.23,0.28-0.35,0.4s-0.26,0.21-0.39,0.28s-0.27,0.13-0.41,0.17s-0.28,0.05-0.42,0.05
			c-0.23,0-0.45-0.05-0.64-0.14s-0.36-0.23-0.5-0.39s-0.25-0.36-0.33-0.58s-0.12-0.46-0.12-0.72c0-0.21,0.02-0.42,0.07-0.63
			s0.11-0.41,0.2-0.6s0.19-0.37,0.32-0.53s0.27-0.3,0.43-0.42s0.33-0.21,0.52-0.28s0.4-0.1,0.61-0.1c0.14,0,0.28,0.02,0.41,0.06
			s0.25,0.1,0.34,0.17s0.18,0.16,0.24,0.27s0.09,0.23,0.09,0.37c0,0.2-0.06,0.37-0.19,0.52s-0.31,0.27-0.54,0.38
			s-0.5,0.19-0.81,0.25s-0.64,0.11-1,0.14v0.05c0,0.25,0.03,0.48,0.1,0.69s0.15,0.38,0.26,0.53s0.24,0.26,0.39,0.34
			s0.31,0.12,0.49,0.12c0.18,0,0.36-0.04,0.54-0.13S25.72,22.48,25.91,22.29z M25.36,19.94c0-0.09-0.02-0.17-0.05-0.25
			s-0.07-0.15-0.13-0.2s-0.12-0.1-0.19-0.14s-0.15-0.05-0.24-0.05c-0.13,0-0.24,0.02-0.35,0.07s-0.2,0.11-0.28,0.18
			s-0.15,0.17-0.22,0.27s-0.12,0.21-0.16,0.33s-0.08,0.23-0.11,0.35s-0.05,0.24-0.06,0.35c0.28-0.02,0.53-0.05,0.75-0.1
			s0.41-0.11,0.56-0.18s0.27-0.17,0.35-0.27S25.36,20.07,25.36,19.94z"/>
		<path d="M27.08,23.27l-0.05,0c0.02-0.19,0.03-0.39,0.04-0.61s0.03-0.44,0.04-0.67s0.02-0.45,0.03-0.67s0.02-0.43,0.02-0.62
			s0.01-0.36,0.01-0.52s0-0.27,0-0.36c0-0.07,0-0.13-0.01-0.19s-0.02-0.1-0.04-0.13s-0.05-0.06-0.09-0.08s-0.09-0.02-0.16-0.02
			c-0.03,0-0.07,0-0.1,0.01s-0.07,0.01-0.12,0.02s-0.09,0.02-0.15,0.03s-0.12,0.03-0.19,0.05l-0.04-0.21
			c0.32-0.12,0.59-0.2,0.79-0.25s0.34-0.07,0.41-0.07c0.13,0,0.22,0.04,0.28,0.11s0.08,0.19,0.08,0.34c0,0.01,0,0.05-0.01,0.12
			s-0.01,0.15-0.02,0.26s-0.02,0.23-0.02,0.37s-0.02,0.29-0.03,0.45s-0.03,0.33-0.04,0.5s-0.03,0.35-0.05,0.52l0.03,0
			c0.09-0.38,0.2-0.74,0.32-1.07s0.25-0.62,0.4-0.86s0.31-0.44,0.49-0.58s0.37-0.21,0.58-0.21c0.07,0,0.14,0.01,0.21,0.04
			s0.12,0.06,0.17,0.1s0.08,0.09,0.11,0.15s0.04,0.12,0.04,0.19c0,0.09-0.02,0.17-0.06,0.25s-0.1,0.15-0.18,0.22h-0.02
			c-0.08-0.07-0.16-0.12-0.23-0.15s-0.15-0.05-0.23-0.05c-0.09,0-0.17,0.02-0.25,0.05s-0.16,0.08-0.23,0.14
			c-0.11,0.1-0.21,0.24-0.31,0.4s-0.18,0.35-0.26,0.56s-0.15,0.42-0.21,0.64s-0.12,0.44-0.16,0.65s-0.08,0.41-0.11,0.6
			s-0.05,0.34-0.06,0.47L27.08,23.27z"/>
		<path d="M30.6,22.14c0.01,0.15,0.05,0.28,0.12,0.38s0.15,0.2,0.24,0.26s0.2,0.12,0.32,0.15s0.23,0.05,0.35,0.05
			c0.11,0,0.21-0.01,0.31-0.04c0.1-0.03,0.19-0.07,0.26-0.13s0.14-0.12,0.18-0.2s0.07-0.17,0.07-0.27c0-0.1-0.02-0.19-0.07-0.27
			s-0.11-0.15-0.2-0.21s-0.18-0.12-0.29-0.18c-0.11-0.05-0.22-0.11-0.34-0.17c-0.1-0.05-0.21-0.1-0.31-0.15s-0.21-0.1-0.3-0.16
			s-0.19-0.12-0.27-0.19s-0.16-0.14-0.22-0.23s-0.11-0.18-0.15-0.28s-0.05-0.22-0.05-0.34c0-0.13,0.02-0.26,0.07-0.37
			s0.11-0.22,0.19-0.31s0.17-0.17,0.28-0.24s0.22-0.13,0.34-0.17s0.25-0.08,0.37-0.1s0.25-0.03,0.37-0.03c0.16,0,0.3,0.02,0.44,0.05
			s0.26,0.08,0.37,0.15s0.19,0.15,0.25,0.24s0.09,0.2,0.09,0.32c0,0.04-0.01,0.09-0.02,0.15s-0.04,0.1-0.08,0.15
			s-0.09,0.08-0.15,0.12s-0.13,0.05-0.22,0.05c-0.08,0-0.17-0.01-0.26-0.04l-0.01-0.03c0.03-0.06,0.05-0.12,0.06-0.17
			s0.02-0.1,0.02-0.15c0-0.09-0.02-0.17-0.07-0.23s-0.1-0.11-0.17-0.15s-0.14-0.07-0.22-0.08s-0.16-0.03-0.24-0.03
			c-0.14,0-0.26,0.02-0.37,0.06s-0.2,0.09-0.28,0.15s-0.13,0.13-0.17,0.21s-0.06,0.16-0.06,0.24c0,0.11,0.03,0.2,0.08,0.29
			s0.13,0.16,0.23,0.23s0.2,0.14,0.32,0.2s0.25,0.13,0.38,0.19c0.15,0.07,0.3,0.14,0.44,0.22s0.28,0.16,0.39,0.26
			s0.21,0.21,0.28,0.33s0.11,0.27,0.11,0.44c0,0.2-0.04,0.38-0.13,0.54s-0.21,0.29-0.36,0.4s-0.32,0.19-0.51,0.24
			c-0.19,0.06-0.39,0.08-0.6,0.08c-0.1,0-0.21-0.01-0.32-0.02s-0.22-0.04-0.32-0.07s-0.2-0.07-0.29-0.12s-0.17-0.1-0.24-0.16
			s-0.12-0.13-0.16-0.2s-0.06-0.15-0.06-0.24c0-0.08,0.02-0.14,0.05-0.19s0.07-0.1,0.13-0.13s0.11-0.06,0.18-0.07
			s0.13-0.03,0.2-0.03L30.6,22.14z"/>
		<path d="M34.8,19.08c-0.03,0.22-0.06,0.45-0.08,0.67s-0.04,0.44-0.06,0.65s-0.03,0.41-0.03,0.59s-0.01,0.35-0.01,0.51
			c0,0.2,0,0.38,0.01,0.52s0.02,0.27,0.03,0.37s0.03,0.18,0.05,0.24s0.05,0.11,0.08,0.14s0.07,0.05,0.11,0.06s0.09,0.01,0.14,0.01
			c0.09,0,0.19-0.01,0.3-0.04s0.22-0.07,0.33-0.12l0.06,0.15c-0.07,0.06-0.16,0.11-0.27,0.17s-0.22,0.11-0.34,0.16
			s-0.23,0.09-0.34,0.12s-0.21,0.05-0.29,0.05c-0.05,0-0.1,0-0.15-0.01s-0.09-0.03-0.12-0.07s-0.07-0.09-0.1-0.16
			s-0.05-0.16-0.07-0.28s-0.03-0.26-0.04-0.44s-0.01-0.39-0.01-0.64c0-0.15,0-0.31,0-0.5s0.01-0.38,0.01-0.59s0.01-0.44,0.02-0.67
			s0.02-0.48,0.04-0.73c0-0.05,0.02-0.1,0.04-0.13s0.06-0.06,0.09-0.08s0.08-0.03,0.12-0.04s0.08-0.01,0.12-0.01
			C34.56,18.98,34.69,19.01,34.8,19.08z M34.55,17.75c-0.07,0-0.13-0.01-0.18-0.04s-0.1-0.07-0.13-0.11s-0.07-0.1-0.08-0.16
			s-0.03-0.12-0.03-0.18c0-0.09,0.01-0.17,0.04-0.23s0.07-0.12,0.11-0.17s0.1-0.08,0.16-0.1s0.11-0.03,0.17-0.03
			c0.07,0,0.13,0.01,0.18,0.04s0.1,0.06,0.14,0.1S34.98,16.95,35,17s0.03,0.12,0.03,0.18c0,0.07-0.01,0.14-0.04,0.2
			s-0.06,0.13-0.1,0.18s-0.09,0.1-0.15,0.13S34.62,17.75,34.55,17.75z"/>
		<path d="M35.93,21.51c0-0.2,0.02-0.4,0.06-0.6s0.1-0.4,0.18-0.59s0.18-0.37,0.3-0.54s0.25-0.31,0.41-0.44s0.33-0.22,0.52-0.3
			s0.4-0.11,0.62-0.11c0.25,0,0.47,0.05,0.66,0.16s0.35,0.24,0.48,0.42s0.23,0.37,0.3,0.59s0.1,0.45,0.1,0.68
			c0,0.2-0.02,0.4-0.06,0.6s-0.1,0.4-0.18,0.59s-0.18,0.37-0.3,0.54s-0.25,0.31-0.41,0.44s-0.33,0.22-0.52,0.3s-0.4,0.11-0.62,0.11
			c-0.25,0-0.47-0.05-0.66-0.16s-0.35-0.24-0.48-0.42s-0.23-0.37-0.3-0.59S35.93,21.74,35.93,21.51z M36.63,21.23
			c0,0.13,0.01,0.27,0.03,0.4s0.05,0.27,0.1,0.4s0.1,0.25,0.16,0.36s0.14,0.21,0.23,0.29s0.18,0.15,0.29,0.19s0.23,0.07,0.36,0.07
			c0.14,0,0.27-0.03,0.38-0.09s0.2-0.14,0.28-0.24s0.14-0.22,0.2-0.35s0.09-0.27,0.12-0.41s0.05-0.28,0.07-0.41s0.02-0.26,0.02-0.38
			c0-0.13-0.01-0.27-0.03-0.41s-0.05-0.27-0.1-0.39s-0.1-0.24-0.16-0.35s-0.14-0.21-0.23-0.29s-0.18-0.15-0.29-0.19
			s-0.23-0.07-0.36-0.07c-0.14,0-0.27,0.03-0.38,0.09s-0.2,0.14-0.28,0.24s-0.14,0.22-0.2,0.35s-0.09,0.27-0.12,0.4
			s-0.05,0.28-0.07,0.41S36.63,21.12,36.63,21.23z"/>
		<path d="M40.77,19.83c0-0.08-0.01-0.15-0.02-0.2s-0.03-0.1-0.05-0.13s-0.06-0.06-0.09-0.07s-0.08-0.02-0.13-0.02
			c-0.07,0-0.15,0.01-0.25,0.03s-0.21,0.05-0.33,0.08l-0.04-0.21c0.14-0.05,0.27-0.09,0.4-0.13s0.25-0.07,0.35-0.1
			s0.2-0.05,0.28-0.07s0.15-0.02,0.19-0.02c0.11,0,0.2,0.03,0.27,0.1s0.1,0.18,0.1,0.35c0,0.02,0,0.06-0.01,0.14
			s-0.01,0.16-0.02,0.27c-0.01,0.11-0.02,0.23-0.02,0.38s-0.02,0.29-0.03,0.45s-0.03,0.33-0.04,0.5s-0.03,0.34-0.05,0.51l0.02,0
			c0.15-0.5,0.31-0.93,0.48-1.28s0.34-0.63,0.52-0.84s0.35-0.37,0.52-0.47s0.34-0.14,0.5-0.14c0.11,0,0.21,0.02,0.32,0.06
			s0.19,0.11,0.27,0.2c0.08,0.09,0.14,0.21,0.19,0.35s0.07,0.31,0.07,0.51c0,0.06,0,0.14-0.01,0.24s-0.01,0.21-0.02,0.33
			s-0.02,0.25-0.03,0.39s-0.02,0.27-0.03,0.4s-0.02,0.26-0.03,0.37S44,22.01,44,22.09c0,0.15,0.01,0.28,0.02,0.37
			c0.01,0.1,0.03,0.17,0.06,0.23s0.07,0.09,0.12,0.11s0.11,0.03,0.18,0.03c0.1,0,0.21-0.01,0.32-0.04s0.22-0.07,0.33-0.12l0.06,0.15
			c-0.07,0.06-0.16,0.11-0.27,0.17s-0.22,0.11-0.34,0.16c-0.12,0.05-0.24,0.09-0.35,0.12s-0.22,0.05-0.31,0.05
			c-0.11,0-0.19-0.03-0.25-0.08s-0.11-0.13-0.14-0.23c-0.03-0.1-0.05-0.21-0.06-0.34c-0.01-0.13-0.01-0.27-0.01-0.42
			c0-0.18,0.01-0.37,0.02-0.57c0.01-0.19,0.03-0.38,0.04-0.56s0.03-0.34,0.04-0.48s0.02-0.26,0.02-0.34c0-0.23-0.04-0.4-0.13-0.51
			s-0.2-0.16-0.34-0.16c-0.11,0-0.23,0.05-0.36,0.14S42.4,20,42.28,20.17s-0.24,0.36-0.36,0.59c-0.11,0.23-0.22,0.47-0.31,0.74
			s-0.17,0.54-0.23,0.83s-0.1,0.58-0.11,0.87l-0.61,0.08l-0.05,0c0.02-0.19,0.03-0.39,0.04-0.61s0.03-0.44,0.04-0.67
			s0.02-0.45,0.03-0.67s0.02-0.43,0.02-0.62s0.01-0.36,0.01-0.52S40.77,19.92,40.77,19.83z"/>
	</g>
	<g>
		<path d="M14.35,32.82c0.01,0.15,0.05,0.28,0.12,0.38s0.15,0.2,0.24,0.26s0.2,0.12,0.32,0.15s0.23,0.05,0.35,0.05
			c0.11,0,0.21-0.01,0.31-0.04s0.19-0.07,0.26-0.13s0.14-0.12,0.18-0.2s0.07-0.17,0.07-0.27c0-0.1-0.02-0.19-0.07-0.27
			s-0.11-0.15-0.2-0.21s-0.18-0.12-0.29-0.18s-0.22-0.11-0.34-0.17c-0.1-0.05-0.21-0.1-0.31-0.15s-0.21-0.1-0.3-0.16
			s-0.19-0.12-0.27-0.19s-0.16-0.14-0.22-0.23s-0.11-0.18-0.15-0.28S14,30.97,14,30.85c0-0.13,0.02-0.26,0.07-0.37
			s0.11-0.22,0.19-0.31s0.17-0.17,0.28-0.24s0.22-0.13,0.34-0.17s0.25-0.08,0.37-0.1s0.25-0.03,0.37-0.03c0.16,0,0.3,0.02,0.44,0.05
			s0.26,0.08,0.37,0.15s0.19,0.15,0.25,0.24s0.09,0.2,0.09,0.32c0,0.04-0.01,0.09-0.02,0.15s-0.04,0.1-0.08,0.15
			s-0.09,0.08-0.15,0.12s-0.13,0.05-0.22,0.05c-0.08,0-0.17-0.01-0.26-0.04l-0.01-0.03c0.03-0.06,0.05-0.12,0.06-0.17
			s0.02-0.1,0.02-0.15c0-0.09-0.02-0.17-0.07-0.23s-0.1-0.11-0.17-0.15s-0.14-0.07-0.22-0.08s-0.16-0.03-0.24-0.03
			c-0.14,0-0.26,0.02-0.37,0.06s-0.2,0.09-0.28,0.15s-0.13,0.13-0.17,0.21s-0.06,0.16-0.06,0.24c0,0.11,0.03,0.2,0.08,0.29
			s0.13,0.16,0.23,0.23s0.2,0.14,0.32,0.2s0.25,0.13,0.38,0.19c0.15,0.07,0.3,0.14,0.44,0.22s0.28,0.16,0.39,0.26
			s0.21,0.21,0.28,0.33s0.11,0.27,0.11,0.44c0,0.2-0.04,0.38-0.13,0.54s-0.21,0.29-0.36,0.4s-0.32,0.19-0.51,0.24
			s-0.39,0.08-0.6,0.08c-0.1,0-0.21-0.01-0.32-0.02s-0.22-0.04-0.32-0.07s-0.2-0.07-0.29-0.12s-0.17-0.1-0.24-0.16
			s-0.12-0.13-0.16-0.2s-0.06-0.15-0.06-0.24c0-0.08,0.02-0.14,0.05-0.19s0.07-0.1,0.13-0.13s0.11-0.06,0.18-0.07
			s0.13-0.03,0.2-0.03L14.35,32.82z"/>
		<path d="M18.91,27.54c-0.08,0.37-0.15,0.75-0.21,1.15s-0.1,0.79-0.14,1.17c0.09,0,0.18,0.01,0.27,0.01s0.17,0,0.24,0.01
			s0.14,0,0.21,0s0.11,0,0.15,0c0.18,0,0.32-0.01,0.44-0.03c0.01,0.03,0.02,0.06,0.02,0.09s0.01,0.05,0.01,0.08
			c0,0.09-0.04,0.14-0.11,0.17s-0.17,0.04-0.31,0.04c-0.13,0-0.27-0.01-0.43-0.02s-0.33-0.03-0.52-0.04
			c-0.02,0.21-0.04,0.41-0.05,0.61s-0.03,0.39-0.04,0.56s-0.02,0.34-0.02,0.49s-0.01,0.28-0.01,0.39c0,0.21,0.01,0.4,0.03,0.56
			s0.06,0.3,0.11,0.42s0.13,0.2,0.23,0.26s0.22,0.09,0.36,0.09c0.11,0,0.22-0.02,0.35-0.06s0.28-0.1,0.44-0.18
			c0.05,0.05,0.08,0.12,0.09,0.19c-0.12,0.08-0.24,0.15-0.37,0.22s-0.24,0.12-0.36,0.17s-0.23,0.08-0.35,0.11s-0.22,0.04-0.32,0.04
			c-0.13,0-0.25-0.02-0.36-0.07s-0.2-0.13-0.28-0.25s-0.14-0.29-0.18-0.49s-0.07-0.47-0.07-0.79c0-0.18,0-0.36,0.01-0.55
			s0.01-0.38,0.02-0.57s0.02-0.39,0.04-0.58s0.03-0.38,0.05-0.57c-0.15,0-0.3,0.01-0.43,0.02s-0.24,0.03-0.34,0.05
			c-0.01-0.01-0.01-0.03-0.01-0.04c0-0.04,0.02-0.08,0.06-0.12s0.1-0.07,0.17-0.1s0.16-0.05,0.26-0.07s0.21-0.03,0.33-0.04
			c0.04-0.41,0.09-0.79,0.14-1.16s0.1-0.69,0.15-0.97c0.01-0.05,0.03-0.09,0.05-0.13s0.06-0.06,0.09-0.08s0.07-0.03,0.11-0.04
			s0.08-0.01,0.12-0.01c0.06,0,0.12,0.01,0.17,0.02S18.86,27.52,18.91,27.54z"/>
		<path d="M20.52,33.95l-0.05,0c0.01-0.19,0.03-0.39,0.04-0.61s0.02-0.45,0.04-0.69s0.02-0.48,0.03-0.73s0.02-0.49,0.02-0.73
			s0.01-0.46,0.02-0.68s0.01-0.42,0.01-0.6c0-0.06,0.01-0.11,0.04-0.14s0.06-0.07,0.09-0.09s0.08-0.04,0.12-0.04
			s0.08-0.01,0.12-0.01c0.07,0,0.14,0.01,0.2,0.02s0.12,0.04,0.18,0.07c-0.03,0.15-0.05,0.33-0.07,0.53s-0.04,0.41-0.06,0.64
			s-0.04,0.46-0.06,0.71s-0.04,0.49-0.06,0.74l0.03,0c0.09-0.38,0.2-0.74,0.32-1.07s0.25-0.62,0.4-0.86s0.31-0.44,0.49-0.58
			s0.37-0.21,0.58-0.21c0.07,0,0.14,0.01,0.21,0.04s0.12,0.06,0.17,0.1s0.08,0.09,0.11,0.15s0.04,0.12,0.04,0.19
			c0,0.09-0.02,0.17-0.06,0.25s-0.1,0.15-0.18,0.22H23.2c-0.08-0.07-0.16-0.12-0.23-0.15s-0.15-0.05-0.23-0.05
			c-0.09,0-0.17,0.02-0.25,0.05s-0.16,0.08-0.23,0.14c-0.11,0.1-0.21,0.24-0.31,0.4s-0.18,0.35-0.26,0.56s-0.15,0.42-0.21,0.64
			s-0.12,0.44-0.16,0.65s-0.08,0.41-0.11,0.6s-0.05,0.34-0.06,0.47L20.52,33.95z"/>
		<path d="M27.31,29.68c-0.02,0.19-0.03,0.38-0.05,0.59s-0.03,0.42-0.04,0.62s-0.02,0.41-0.03,0.61s-0.01,0.38-0.01,0.55
			c0,0.32,0.02,0.58,0.06,0.78s0.08,0.36,0.14,0.48s0.13,0.2,0.2,0.24s0.15,0.07,0.23,0.07c0.04,0,0.09-0.01,0.13-0.02
			s0.09-0.03,0.12-0.04s0.07-0.03,0.11-0.05s0.06-0.04,0.08-0.05l0.1,0.13c-0.06,0.06-0.12,0.11-0.19,0.17s-0.15,0.1-0.23,0.13
			s-0.16,0.07-0.25,0.09s-0.18,0.03-0.27,0.03c-0.11,0-0.22-0.02-0.33-0.07s-0.2-0.12-0.28-0.23s-0.15-0.25-0.2-0.42
			s-0.08-0.4-0.08-0.66c0-0.08,0-0.17,0.01-0.25s0.01-0.18,0.02-0.27s0.02-0.2,0.03-0.31s0.03-0.23,0.05-0.36l-0.03-0.01
			c-0.13,0.49-0.28,0.9-0.43,1.23s-0.31,0.6-0.48,0.8s-0.33,0.35-0.49,0.44s-0.32,0.13-0.47,0.13c-0.18,0-0.32-0.05-0.44-0.14
			s-0.21-0.22-0.28-0.39s-0.12-0.35-0.15-0.57s-0.04-0.44-0.04-0.69c0-0.21,0.01-0.42,0.02-0.63s0.03-0.43,0.05-0.64
			s0.04-0.41,0.07-0.59s0.05-0.36,0.08-0.51c0.01-0.05,0.03-0.1,0.05-0.13s0.05-0.06,0.08-0.08s0.06-0.03,0.1-0.04
			s0.07-0.01,0.11-0.01c0.07,0,0.13,0.01,0.19,0.02s0.11,0.04,0.17,0.07c-0.04,0.22-0.07,0.44-0.1,0.66s-0.06,0.43-0.08,0.64
			s-0.04,0.4-0.05,0.6s-0.02,0.37-0.02,0.54c0,0.18,0.01,0.34,0.03,0.49s0.05,0.27,0.09,0.38s0.1,0.19,0.17,0.24
			s0.15,0.09,0.25,0.09c0.17,0,0.34-0.09,0.51-0.27s0.34-0.44,0.5-0.78s0.29-0.73,0.4-1.16s0.18-0.89,0.21-1.39l0.62-0.08
			L27.31,29.68z"/>
		<path d="M30.92,30.87c0.05-0.11,0.08-0.22,0.08-0.33c0-0.08-0.01-0.15-0.04-0.22s-0.07-0.13-0.12-0.18s-0.12-0.09-0.2-0.12
			s-0.17-0.05-0.28-0.05c-0.15,0-0.29,0.03-0.41,0.08s-0.23,0.13-0.32,0.22s-0.17,0.2-0.24,0.33s-0.12,0.25-0.16,0.4
			s-0.07,0.28-0.09,0.43s-0.03,0.29-0.03,0.43c0,0.25,0.03,0.48,0.1,0.69s0.15,0.38,0.27,0.53s0.24,0.26,0.39,0.34
			s0.31,0.12,0.47,0.12c0.18,0,0.36-0.05,0.54-0.14s0.36-0.24,0.53-0.45c0.01,0.01,0.03,0.01,0.05,0.02s0.04,0.02,0.05,0.04
			s0.03,0.03,0.04,0.04s0.02,0.03,0.02,0.04c0,0.01,0,0.01,0,0.01l-0.01,0.01c-0.19,0.31-0.42,0.54-0.68,0.69s-0.56,0.23-0.87,0.23
			c-0.17,0-0.33-0.02-0.47-0.07s-0.28-0.11-0.39-0.2s-0.22-0.19-0.31-0.3s-0.16-0.24-0.22-0.38s-0.1-0.28-0.13-0.43
			s-0.05-0.3-0.05-0.45c0-0.21,0.02-0.41,0.07-0.62s0.11-0.4,0.2-0.59s0.19-0.37,0.32-0.53s0.26-0.31,0.42-0.43s0.33-0.22,0.52-0.29
			s0.39-0.1,0.61-0.1c0.16,0,0.31,0.02,0.45,0.06s0.26,0.09,0.36,0.17s0.18,0.16,0.24,0.26s0.09,0.21,0.09,0.34
			c0,0.08-0.01,0.15-0.04,0.21s-0.06,0.11-0.1,0.16s-0.1,0.08-0.16,0.1s-0.12,0.03-0.19,0.03c-0.04,0-0.09,0-0.13-0.01
			s-0.09-0.02-0.14-0.04L30.92,30.87z"/>
		<path d="M33.67,27.54c-0.08,0.37-0.15,0.75-0.21,1.15s-0.1,0.79-0.14,1.17c0.09,0,0.18,0.01,0.27,0.01s0.17,0,0.24,0.01
			s0.14,0,0.21,0s0.11,0,0.15,0c0.18,0,0.32-0.01,0.44-0.03c0.01,0.03,0.02,0.06,0.02,0.09s0.01,0.05,0.01,0.08
			c0,0.09-0.04,0.14-0.11,0.17s-0.17,0.04-0.31,0.04c-0.13,0-0.27-0.01-0.43-0.02s-0.33-0.03-0.52-0.04
			c-0.02,0.21-0.04,0.41-0.05,0.61s-0.03,0.39-0.04,0.56s-0.02,0.34-0.02,0.49s-0.01,0.28-0.01,0.39c0,0.21,0.01,0.4,0.03,0.56
			s0.06,0.3,0.11,0.42s0.13,0.2,0.23,0.26s0.22,0.09,0.36,0.09c0.11,0,0.22-0.02,0.35-0.06s0.28-0.1,0.44-0.18
			c0.05,0.05,0.08,0.12,0.09,0.19c-0.12,0.08-0.24,0.15-0.37,0.22s-0.24,0.12-0.36,0.17s-0.23,0.08-0.35,0.11s-0.22,0.04-0.32,0.04
			c-0.13,0-0.25-0.02-0.36-0.07s-0.2-0.13-0.28-0.25s-0.14-0.29-0.18-0.49s-0.07-0.47-0.07-0.79c0-0.18,0-0.36,0.01-0.55
			s0.01-0.38,0.02-0.57s0.02-0.39,0.04-0.58s0.03-0.38,0.05-0.57c-0.15,0-0.3,0.01-0.43,0.02s-0.24,0.03-0.34,0.05
			c-0.01-0.01-0.01-0.03-0.01-0.04c0-0.04,0.02-0.08,0.06-0.12s0.1-0.07,0.17-0.1s0.16-0.05,0.26-0.07s0.21-0.03,0.33-0.04
			c0.04-0.41,0.09-0.79,0.14-1.16s0.1-0.69,0.15-0.97c0.01-0.05,0.03-0.09,0.05-0.13s0.06-0.06,0.09-0.08s0.07-0.03,0.11-0.04
			s0.08-0.01,0.12-0.01c0.06,0,0.12,0.01,0.17,0.02S33.62,27.52,33.67,27.54z"/>
		<path d="M38.75,29.68c-0.02,0.19-0.03,0.38-0.05,0.59c-0.02,0.21-0.03,0.42-0.04,0.62s-0.02,0.41-0.03,0.61s-0.01,0.38-0.01,0.55
			c0,0.32,0.02,0.58,0.06,0.78s0.08,0.36,0.14,0.48s0.13,0.2,0.2,0.24s0.15,0.07,0.23,0.07c0.04,0,0.09-0.01,0.13-0.02
			c0.04-0.01,0.08-0.03,0.12-0.04s0.08-0.03,0.11-0.05c0.03-0.02,0.06-0.04,0.08-0.05l0.1,0.13c-0.06,0.06-0.12,0.11-0.19,0.17
			s-0.15,0.1-0.23,0.13s-0.16,0.07-0.25,0.09s-0.18,0.03-0.27,0.03c-0.11,0-0.22-0.02-0.33-0.07s-0.2-0.12-0.28-0.23
			c-0.08-0.11-0.15-0.25-0.2-0.42s-0.08-0.4-0.08-0.66c0-0.08,0-0.17,0.01-0.25s0.01-0.18,0.02-0.27c0.01-0.1,0.02-0.2,0.03-0.31
			s0.03-0.23,0.05-0.36l-0.03-0.01c-0.13,0.49-0.28,0.9-0.43,1.23c-0.15,0.33-0.31,0.6-0.48,0.8c-0.16,0.2-0.33,0.35-0.49,0.44
			s-0.32,0.13-0.47,0.13c-0.18,0-0.32-0.05-0.44-0.14s-0.21-0.22-0.28-0.39s-0.12-0.35-0.15-0.57s-0.04-0.44-0.04-0.69
			c0-0.21,0.01-0.42,0.02-0.63s0.03-0.43,0.05-0.64s0.04-0.41,0.07-0.59s0.05-0.36,0.08-0.51c0.01-0.05,0.03-0.1,0.05-0.13
			s0.05-0.06,0.08-0.08s0.06-0.03,0.1-0.04s0.07-0.01,0.11-0.01c0.07,0,0.13,0.01,0.19,0.02s0.11,0.04,0.17,0.07
			c-0.04,0.22-0.07,0.44-0.1,0.66s-0.06,0.43-0.08,0.64s-0.04,0.4-0.05,0.6s-0.02,0.37-0.02,0.54c0,0.18,0.01,0.34,0.03,0.49
			s0.05,0.27,0.09,0.38s0.1,0.19,0.17,0.24c0.07,0.06,0.15,0.09,0.25,0.09c0.17,0,0.34-0.09,0.51-0.27s0.34-0.44,0.5-0.78
			s0.29-0.73,0.4-1.16s0.18-0.89,0.21-1.39l0.62-0.08L38.75,29.68z"/>
		<path d="M40.37,33.95l-0.05,0c0.02-0.19,0.03-0.39,0.04-0.61s0.03-0.44,0.04-0.67s0.02-0.45,0.03-0.67
			c0.01-0.22,0.02-0.43,0.02-0.62c0.01-0.19,0.01-0.36,0.01-0.52c0-0.15,0-0.27,0-0.36c0-0.07,0-0.13-0.01-0.19s-0.02-0.1-0.04-0.13
			c-0.02-0.04-0.05-0.06-0.09-0.08s-0.09-0.02-0.16-0.02c-0.03,0-0.07,0-0.1,0.01s-0.07,0.01-0.12,0.02s-0.09,0.02-0.15,0.03
			s-0.12,0.03-0.19,0.05l-0.04-0.21c0.32-0.12,0.59-0.2,0.79-0.25s0.34-0.07,0.41-0.07c0.13,0,0.22,0.04,0.28,0.11
			c0.06,0.08,0.08,0.19,0.08,0.34c0,0.01,0,0.05-0.01,0.12s-0.01,0.15-0.02,0.26c-0.01,0.11-0.02,0.23-0.03,0.37
			s-0.02,0.29-0.03,0.45c-0.01,0.16-0.03,0.33-0.04,0.5s-0.03,0.35-0.05,0.52l0.03,0c0.09-0.38,0.2-0.74,0.32-1.07
			s0.25-0.62,0.4-0.86s0.31-0.44,0.49-0.58s0.37-0.21,0.58-0.21c0.07,0,0.14,0.01,0.21,0.04s0.12,0.06,0.17,0.1s0.08,0.09,0.11,0.15
			s0.04,0.12,0.04,0.19c0,0.09-0.02,0.17-0.06,0.25c-0.04,0.08-0.1,0.15-0.18,0.22h-0.02c-0.08-0.07-0.16-0.12-0.23-0.15
			c-0.07-0.03-0.15-0.05-0.23-0.05c-0.09,0-0.17,0.02-0.25,0.05s-0.16,0.08-0.23,0.14c-0.11,0.1-0.21,0.24-0.31,0.4
			s-0.18,0.35-0.26,0.56c-0.08,0.2-0.15,0.42-0.21,0.64s-0.12,0.44-0.16,0.65s-0.08,0.41-0.11,0.6s-0.05,0.34-0.06,0.47L40.37,33.95
			z"/>
		<path d="M46.32,32.97c0.01,0.01,0.03,0.01,0.05,0.02c0.02,0.01,0.04,0.02,0.05,0.04s0.03,0.03,0.04,0.04s0.02,0.03,0.02,0.04
			c0,0.01,0,0.02-0.01,0.02c-0.11,0.15-0.23,0.28-0.35,0.4c-0.13,0.11-0.26,0.21-0.39,0.28c-0.14,0.08-0.27,0.13-0.42,0.17
			s-0.28,0.05-0.42,0.05c-0.23,0-0.45-0.05-0.64-0.14s-0.36-0.23-0.5-0.39s-0.25-0.36-0.33-0.58c-0.08-0.22-0.12-0.46-0.12-0.72
			c0-0.21,0.02-0.42,0.07-0.63s0.11-0.41,0.2-0.6s0.19-0.37,0.32-0.53s0.27-0.3,0.43-0.42s0.33-0.21,0.53-0.28
			c0.19-0.07,0.39-0.1,0.61-0.1c0.14,0,0.28,0.02,0.41,0.06s0.25,0.1,0.34,0.17c0.1,0.07,0.18,0.16,0.24,0.27s0.09,0.23,0.09,0.37
			c0,0.2-0.07,0.37-0.19,0.52c-0.13,0.15-0.31,0.27-0.54,0.38s-0.5,0.19-0.81,0.25s-0.64,0.11-1,0.14v0.05
			c0,0.25,0.03,0.48,0.09,0.69s0.15,0.38,0.26,0.53s0.24,0.26,0.39,0.34s0.31,0.12,0.49,0.12c0.18,0,0.36-0.04,0.54-0.13
			C45.95,33.31,46.13,33.16,46.32,32.97z M45.77,30.62c0-0.09-0.02-0.17-0.05-0.25s-0.07-0.15-0.13-0.2
			c-0.05-0.06-0.12-0.1-0.19-0.14s-0.15-0.05-0.24-0.05c-0.13,0-0.24,0.02-0.35,0.07s-0.2,0.11-0.28,0.18s-0.15,0.17-0.22,0.27
			s-0.12,0.21-0.16,0.33c-0.04,0.12-0.08,0.23-0.11,0.35s-0.05,0.24-0.06,0.35c0.28-0.02,0.53-0.05,0.75-0.1
			c0.22-0.05,0.41-0.11,0.56-0.18s0.27-0.17,0.35-0.27S45.77,30.75,45.77,30.62z"/>
	</g>
	<g>
		<path d="M7.64,41.02c-0.01,0.29-0.01,0.59-0.02,0.9s-0.02,0.62-0.03,0.93s-0.03,0.62-0.05,0.94S7.49,44.4,7.45,44.7
			s-0.08,0.59-0.13,0.86s-0.11,0.54-0.18,0.79c-0.09,0.33-0.21,0.61-0.36,0.84s-0.3,0.4-0.47,0.54s-0.34,0.23-0.52,0.29
			s-0.35,0.09-0.52,0.09c-0.15,0-0.29-0.02-0.41-0.05s-0.23-0.08-0.33-0.14s-0.16-0.13-0.21-0.2s-0.08-0.16-0.08-0.24
			c0-0.05,0.01-0.09,0.04-0.14s0.06-0.09,0.1-0.13s0.09-0.07,0.14-0.1s0.11-0.04,0.17-0.04c0.11,0.2,0.25,0.35,0.4,0.43
			s0.32,0.13,0.49,0.13c0.13,0,0.24-0.02,0.35-0.07s0.21-0.12,0.31-0.23c0.15-0.17,0.26-0.43,0.35-0.77s0.15-0.77,0.2-1.28
			s0.07-1.11,0.09-1.79s0.02-1.45,0.02-2.29c0-0.05,0.01-0.1,0.04-0.13S6.99,41,7.03,40.98s0.08-0.03,0.12-0.04s0.08-0.01,0.12-0.01
			C7.4,40.93,7.52,40.96,7.64,41.02z M7.32,39.71c-0.07,0-0.13-0.01-0.18-0.04s-0.1-0.07-0.13-0.11s-0.07-0.1-0.08-0.16
			s-0.03-0.12-0.03-0.18c0-0.09,0.01-0.17,0.04-0.24S7,38.85,7.05,38.8s0.1-0.08,0.15-0.1s0.11-0.04,0.17-0.04
			c0.07,0,0.13,0.01,0.18,0.04s0.1,0.06,0.13,0.1s0.07,0.09,0.09,0.15s0.03,0.12,0.03,0.18c0,0.07-0.01,0.14-0.03,0.21
			s-0.05,0.13-0.1,0.18s-0.09,0.1-0.15,0.13S7.39,39.71,7.32,39.71z"/>
		<path d="M11.09,42.13c0-0.15-0.03-0.29-0.08-0.4s-0.12-0.21-0.2-0.28s-0.17-0.13-0.28-0.16s-0.21-0.05-0.31-0.05
			c-0.14,0-0.26,0.01-0.35,0.04S9.7,41.35,9.64,41.4s-0.1,0.11-0.13,0.18s-0.04,0.14-0.04,0.22c0,0.09,0.02,0.19,0.05,0.28
			s0.08,0.19,0.15,0.28L9.67,42.4c-0.11,0.05-0.22,0.08-0.34,0.08c-0.07,0-0.13-0.01-0.19-0.03s-0.11-0.05-0.15-0.09
			s-0.08-0.09-0.1-0.14s-0.04-0.12-0.04-0.19c0-0.12,0.03-0.22,0.08-0.33s0.13-0.19,0.22-0.28s0.2-0.16,0.32-0.23
			s0.25-0.12,0.38-0.17s0.26-0.08,0.39-0.11s0.25-0.04,0.36-0.04c0.21,0,0.38,0.03,0.53,0.08s0.26,0.13,0.35,0.24
			s0.16,0.23,0.2,0.38s0.06,0.32,0.06,0.5c0,0.13-0.01,0.27-0.02,0.42S11.71,42.83,11.7,43s-0.03,0.34-0.04,0.52
			s-0.02,0.36-0.02,0.54c0,0.28,0.05,0.49,0.16,0.63s0.24,0.21,0.41,0.21c0.15,0,0.32-0.06,0.5-0.17l0.08,0.13
			c-0.13,0.13-0.27,0.23-0.43,0.3s-0.32,0.1-0.49,0.1c-0.13,0-0.24-0.02-0.35-0.06s-0.2-0.11-0.28-0.19s-0.14-0.19-0.18-0.32
			s-0.06-0.28-0.06-0.45c0-0.05,0-0.1,0-0.15s0.01-0.1,0.02-0.16h-0.02c-0.08,0.17-0.18,0.33-0.29,0.5s-0.23,0.31-0.36,0.44
			s-0.27,0.23-0.42,0.31s-0.31,0.12-0.47,0.12c-0.13,0-0.26-0.02-0.37-0.07s-0.21-0.11-0.29-0.19s-0.14-0.18-0.18-0.29
			s-0.07-0.23-0.07-0.37c0-0.17,0.03-0.33,0.1-0.47s0.15-0.27,0.26-0.38s0.25-0.21,0.4-0.29s0.33-0.15,0.51-0.2s0.38-0.09,0.58-0.12
			s0.41-0.04,0.63-0.04c0.01-0.12,0.02-0.24,0.03-0.36S11.09,42.27,11.09,42.13z M9.29,44.15c0,0.08,0.01,0.15,0.02,0.22
			s0.04,0.13,0.08,0.18s0.08,0.09,0.14,0.12s0.12,0.05,0.2,0.05c0.09,0,0.18-0.02,0.27-0.06s0.19-0.1,0.28-0.17s0.18-0.16,0.26-0.26
			s0.16-0.21,0.22-0.33s0.12-0.25,0.17-0.38s0.07-0.27,0.09-0.41c-0.14,0-0.29,0.01-0.43,0.03s-0.28,0.04-0.41,0.07
			s-0.25,0.07-0.36,0.12s-0.2,0.11-0.28,0.19s-0.14,0.16-0.19,0.27S9.29,44.01,9.29,44.15z"/>
		<path d="M13.82,45.25c-0.03-0.19-0.06-0.38-0.09-0.59s-0.07-0.41-0.11-0.62s-0.08-0.42-0.13-0.62s-0.09-0.4-0.13-0.59
			s-0.09-0.36-0.13-0.51s-0.08-0.29-0.11-0.4c-0.04-0.12-0.07-0.21-0.11-0.28s-0.07-0.13-0.1-0.17s-0.08-0.07-0.12-0.09
			s-0.09-0.02-0.15-0.02c-0.06,0-0.13,0.01-0.2,0.02s-0.16,0.03-0.26,0.06l-0.04-0.21c0.12-0.04,0.23-0.08,0.34-0.12
			S12.7,41.02,12.8,41s0.18-0.04,0.25-0.06s0.13-0.02,0.18-0.02c0.05,0,0.1,0.01,0.15,0.03s0.09,0.05,0.13,0.1s0.08,0.11,0.12,0.18
			s0.07,0.17,0.11,0.29c0.03,0.08,0.06,0.18,0.09,0.3s0.07,0.27,0.11,0.42s0.08,0.33,0.12,0.51s0.08,0.38,0.12,0.57
			s0.07,0.4,0.1,0.6s0.06,0.41,0.08,0.6c0.1-0.14,0.2-0.29,0.29-0.44s0.19-0.31,0.28-0.46s0.18-0.31,0.25-0.47s0.15-0.32,0.21-0.47
			s0.1-0.31,0.14-0.46s0.05-0.3,0.05-0.44c0-0.18-0.03-0.34-0.09-0.5s-0.17-0.29-0.31-0.41l0.03-0.07c0.04,0,0.07-0.01,0.1-0.01
			s0.07,0,0.1,0c0.26,0,0.46,0.06,0.59,0.18s0.2,0.29,0.2,0.51c0,0.17-0.04,0.35-0.11,0.57s-0.16,0.43-0.28,0.67
			s-0.25,0.47-0.39,0.71s-0.3,0.47-0.45,0.7s-0.3,0.43-0.45,0.63s-0.27,0.37-0.38,0.51L13.82,45.25z"/>
		<path d="M18.98,42.13c0-0.15-0.03-0.29-0.08-0.4s-0.12-0.21-0.2-0.28s-0.17-0.13-0.28-0.16s-0.21-0.05-0.31-0.05
			c-0.14,0-0.26,0.01-0.35,0.04s-0.17,0.07-0.23,0.12s-0.1,0.11-0.13,0.18s-0.04,0.14-0.04,0.22c0,0.09,0.02,0.19,0.05,0.28
			s0.08,0.19,0.15,0.28l-0.01,0.03c-0.11,0.05-0.22,0.08-0.34,0.08c-0.07,0-0.13-0.01-0.19-0.03s-0.11-0.05-0.15-0.09
			s-0.08-0.09-0.1-0.14s-0.04-0.12-0.04-0.19c0-0.12,0.03-0.22,0.08-0.33s0.13-0.19,0.22-0.28s0.2-0.16,0.32-0.23
			s0.25-0.12,0.38-0.17s0.26-0.08,0.39-0.11s0.25-0.04,0.36-0.04c0.21,0,0.38,0.03,0.53,0.08s0.26,0.13,0.35,0.24
			s0.16,0.23,0.2,0.38s0.06,0.32,0.06,0.5c0,0.13-0.01,0.27-0.02,0.42S19.6,42.83,19.59,43s-0.03,0.34-0.04,0.52
			s-0.02,0.36-0.02,0.54c0,0.28,0.05,0.49,0.16,0.63s0.24,0.21,0.41,0.21c0.15,0,0.32-0.06,0.5-0.17l0.08,0.13
			c-0.13,0.13-0.27,0.23-0.43,0.3s-0.32,0.1-0.49,0.1c-0.13,0-0.24-0.02-0.35-0.06s-0.2-0.11-0.28-0.19s-0.14-0.19-0.18-0.32
			s-0.06-0.28-0.06-0.45c0-0.05,0-0.1,0-0.15s0.01-0.1,0.02-0.16h-0.02c-0.08,0.17-0.18,0.33-0.29,0.5s-0.23,0.31-0.36,0.44
			s-0.27,0.23-0.42,0.31s-0.31,0.12-0.47,0.12c-0.13,0-0.26-0.02-0.37-0.07s-0.21-0.11-0.29-0.19s-0.14-0.18-0.18-0.29
			s-0.07-0.23-0.07-0.37c0-0.17,0.03-0.33,0.1-0.47s0.15-0.27,0.26-0.38s0.25-0.21,0.4-0.29s0.33-0.15,0.51-0.2s0.38-0.09,0.58-0.12
			s0.41-0.04,0.63-0.04c0.01-0.12,0.02-0.24,0.03-0.36S18.98,42.27,18.98,42.13z M17.19,44.15c0,0.08,0.01,0.15,0.02,0.22
			s0.04,0.13,0.08,0.18s0.08,0.09,0.14,0.12s0.12,0.05,0.2,0.05c0.09,0,0.18-0.02,0.27-0.06s0.19-0.1,0.28-0.17s0.18-0.16,0.26-0.26
			s0.16-0.21,0.22-0.33s0.12-0.25,0.17-0.38s0.07-0.27,0.09-0.41c-0.14,0-0.29,0.01-0.43,0.03s-0.28,0.04-0.41,0.07
			s-0.25,0.07-0.36,0.12s-0.2,0.11-0.28,0.19s-0.14,0.16-0.19,0.27S17.19,44.01,17.19,44.15z"/>
		<path d="M21.5,45.26c-0.07,0-0.13-0.01-0.19-0.04s-0.1-0.07-0.14-0.11s-0.07-0.1-0.09-0.16s-0.03-0.12-0.03-0.18
			c0-0.09,0.02-0.17,0.05-0.24s0.07-0.13,0.12-0.17s0.1-0.08,0.16-0.1s0.12-0.04,0.17-0.04c0.07,0,0.13,0.01,0.18,0.04
			s0.1,0.06,0.14,0.1s0.07,0.09,0.09,0.15S22,44.62,22,44.69c0,0.07-0.01,0.14-0.04,0.21s-0.06,0.13-0.1,0.18s-0.1,0.1-0.16,0.13
			S21.57,45.26,21.5,45.26z"/>
		<path d="M24.23,37.28c-0.04,0.33-0.08,0.67-0.12,1.02c-0.04,0.35-0.07,0.7-0.11,1.06s-0.07,0.71-0.1,1.07s-0.05,0.71-0.08,1.06
			s-0.04,0.69-0.05,1.03s-0.02,0.66-0.02,0.97c0,0.19,0,0.36,0.01,0.5s0.01,0.26,0.02,0.35s0.03,0.17,0.04,0.23s0.04,0.1,0.07,0.13
			s0.06,0.05,0.1,0.06s0.08,0.02,0.13,0.02c0.09,0,0.19-0.01,0.3-0.04s0.22-0.07,0.33-0.12l0.06,0.15
			c-0.07,0.06-0.16,0.11-0.27,0.17s-0.22,0.11-0.34,0.16s-0.23,0.09-0.34,0.12s-0.21,0.05-0.29,0.05c-0.11,0-0.19-0.03-0.25-0.08
			s-0.11-0.14-0.14-0.26s-0.05-0.28-0.06-0.47s-0.01-0.43-0.01-0.71c0-0.1,0-0.25,0.01-0.44s0.01-0.41,0.02-0.66
			s0.02-0.52,0.04-0.82s0.03-0.6,0.04-0.92s0.03-0.64,0.05-0.96s0.04-0.64,0.05-0.94s0.03-0.59,0.05-0.85s0.03-0.5,0.04-0.71
			c0-0.05,0.02-0.09,0.04-0.12s0.06-0.06,0.1-0.08s0.08-0.04,0.13-0.05s0.1-0.01,0.15-0.01C23.98,37.19,24.1,37.22,24.23,37.28z"/>
		<path d="M27.57,42.13c0-0.15-0.03-0.29-0.08-0.4s-0.12-0.21-0.2-0.28s-0.17-0.13-0.28-0.16s-0.21-0.05-0.31-0.05
			c-0.14,0-0.26,0.01-0.35,0.04s-0.17,0.07-0.23,0.12s-0.1,0.11-0.13,0.18s-0.04,0.14-0.04,0.22c0,0.09,0.02,0.19,0.05,0.28
			s0.08,0.19,0.15,0.28l-0.01,0.03c-0.11,0.05-0.22,0.08-0.34,0.08c-0.07,0-0.13-0.01-0.19-0.03s-0.11-0.05-0.15-0.09
			s-0.08-0.09-0.1-0.14s-0.04-0.12-0.04-0.19c0-0.12,0.03-0.22,0.08-0.33s0.13-0.19,0.22-0.28s0.2-0.16,0.32-0.23
			s0.25-0.12,0.38-0.17s0.26-0.08,0.39-0.11s0.25-0.04,0.36-0.04c0.21,0,0.38,0.03,0.53,0.08s0.26,0.13,0.35,0.24
			s0.16,0.23,0.2,0.38s0.06,0.32,0.06,0.5c0,0.13-0.01,0.27-0.02,0.42s-0.02,0.32-0.04,0.48s-0.03,0.34-0.04,0.52
			s-0.02,0.36-0.02,0.54c0,0.28,0.05,0.49,0.16,0.63s0.24,0.21,0.41,0.21c0.15,0,0.32-0.06,0.5-0.17l0.08,0.13
			C29.15,45,29,45.1,28.85,45.16s-0.32,0.1-0.49,0.1c-0.13,0-0.24-0.02-0.35-0.06s-0.2-0.11-0.28-0.19s-0.14-0.19-0.18-0.32
			s-0.06-0.28-0.06-0.45c0-0.05,0-0.1,0-0.15s0.01-0.1,0.02-0.16h-0.02c-0.08,0.17-0.18,0.33-0.29,0.5s-0.23,0.31-0.36,0.44
			s-0.27,0.23-0.42,0.31s-0.31,0.12-0.47,0.12c-0.13,0-0.26-0.02-0.37-0.07s-0.21-0.11-0.29-0.19s-0.14-0.18-0.18-0.29
			s-0.07-0.23-0.07-0.37c0-0.17,0.03-0.33,0.1-0.47s0.15-0.27,0.26-0.38s0.25-0.21,0.4-0.29s0.33-0.15,0.51-0.2s0.38-0.09,0.58-0.12
			s0.41-0.04,0.63-0.04c0.01-0.12,0.02-0.24,0.03-0.36S27.57,42.27,27.57,42.13z M25.77,44.15c0,0.08,0.01,0.15,0.02,0.22
			s0.04,0.13,0.08,0.18s0.08,0.09,0.14,0.12s0.12,0.05,0.2,0.05c0.09,0,0.18-0.02,0.27-0.06s0.19-0.1,0.28-0.17s0.18-0.16,0.26-0.26
			s0.16-0.21,0.22-0.33s0.12-0.25,0.17-0.38s0.07-0.27,0.09-0.41c-0.14,0-0.29,0.01-0.43,0.03s-0.28,0.04-0.41,0.07
			s-0.25,0.07-0.36,0.12s-0.2,0.11-0.28,0.19s-0.14,0.16-0.19,0.27S25.77,44.01,25.77,44.15z"/>
		<path d="M29.96,41.78c0-0.08-0.01-0.15-0.02-0.2s-0.03-0.1-0.05-0.13c-0.03-0.03-0.06-0.05-0.09-0.07s-0.08-0.02-0.13-0.02
			c-0.07,0-0.15,0.01-0.25,0.03s-0.21,0.05-0.33,0.08l-0.04-0.21c0.14-0.05,0.27-0.09,0.4-0.13s0.25-0.07,0.35-0.1
			s0.2-0.05,0.28-0.07s0.15-0.02,0.19-0.02c0.11,0,0.2,0.03,0.26,0.1s0.1,0.18,0.1,0.35c0,0.02,0,0.06-0.01,0.14
			s-0.01,0.16-0.02,0.27c-0.01,0.11-0.02,0.23-0.03,0.38s-0.02,0.29-0.03,0.45c-0.01,0.16-0.03,0.33-0.04,0.5s-0.03,0.34-0.05,0.51
			l0.02,0c0.15-0.5,0.31-0.93,0.48-1.28s0.34-0.63,0.52-0.84s0.35-0.37,0.52-0.47c0.17-0.1,0.34-0.14,0.5-0.14
			c0.11,0,0.21,0.02,0.32,0.06s0.19,0.11,0.27,0.2c0.08,0.09,0.14,0.21,0.19,0.35s0.07,0.31,0.07,0.51c0,0.06,0,0.14-0.01,0.24
			s-0.01,0.21-0.02,0.33s-0.02,0.25-0.03,0.38s-0.02,0.27-0.03,0.4s-0.02,0.25-0.03,0.37s-0.01,0.22-0.01,0.31
			c0,0.15,0.01,0.28,0.02,0.37c0.01,0.1,0.03,0.17,0.06,0.23s0.07,0.09,0.12,0.11s0.11,0.03,0.18,0.03c0.1,0,0.21-0.01,0.32-0.04
			s0.22-0.07,0.33-0.12l0.06,0.15c-0.07,0.06-0.16,0.11-0.27,0.17s-0.22,0.11-0.34,0.16c-0.12,0.05-0.24,0.09-0.35,0.12
			s-0.22,0.05-0.31,0.05c-0.11,0-0.19-0.03-0.25-0.08s-0.11-0.13-0.14-0.23c-0.03-0.1-0.05-0.21-0.06-0.34
			c-0.01-0.13-0.01-0.27-0.01-0.42c0-0.18,0.01-0.37,0.02-0.57c0.01-0.19,0.03-0.38,0.04-0.55s0.03-0.34,0.04-0.48
			s0.02-0.26,0.02-0.34c0-0.23-0.04-0.4-0.13-0.51s-0.2-0.16-0.34-0.16c-0.11,0-0.23,0.05-0.36,0.14s-0.25,0.23-0.37,0.39
			s-0.24,0.36-0.36,0.59c-0.11,0.23-0.22,0.47-0.31,0.74s-0.17,0.54-0.23,0.83s-0.1,0.58-0.11,0.87l-0.61,0.08l-0.05,0
			c0.02-0.19,0.03-0.39,0.04-0.61s0.03-0.44,0.04-0.67s0.02-0.45,0.03-0.67c0.01-0.22,0.02-0.43,0.02-0.62
			c0.01-0.19,0.01-0.36,0.01-0.52C29.96,41.98,29.96,41.86,29.96,41.78z"/>
		<path d="M37.71,41.49c0.1,0.14,0.17,0.29,0.21,0.43s0.06,0.29,0.06,0.44c0,0.15-0.02,0.3-0.06,0.45s-0.1,0.29-0.18,0.42
			c-0.08,0.13-0.17,0.25-0.28,0.36c-0.11,0.11-0.23,0.21-0.36,0.29s-0.28,0.14-0.43,0.19s-0.31,0.07-0.48,0.07
			c-0.04,0-0.09,0-0.13-0.01s-0.08-0.01-0.13-0.01c-0.07,0.01-0.13,0.03-0.19,0.06s-0.11,0.06-0.15,0.1s-0.08,0.08-0.1,0.12
			s-0.04,0.08-0.04,0.13c0,0.09,0.03,0.16,0.1,0.22c0.07,0.06,0.16,0.11,0.27,0.16s0.25,0.08,0.39,0.12
			c0.15,0.03,0.31,0.07,0.47,0.1c0.15,0.03,0.29,0.06,0.43,0.1s0.28,0.07,0.41,0.11s0.25,0.09,0.36,0.15s0.2,0.13,0.28,0.2
			s0.14,0.17,0.19,0.27s0.07,0.22,0.07,0.36c0,0.17-0.03,0.33-0.09,0.49c-0.06,0.16-0.15,0.3-0.26,0.44s-0.24,0.26-0.4,0.38
			s-0.32,0.21-0.51,0.29s-0.38,0.14-0.59,0.19s-0.43,0.07-0.65,0.07c-0.13,0-0.26-0.01-0.41-0.03s-0.28-0.05-0.42-0.09
			s-0.27-0.09-0.4-0.16c-0.13-0.06-0.24-0.14-0.33-0.23c-0.1-0.09-0.17-0.19-0.23-0.31s-0.08-0.25-0.08-0.4
			c0-0.13,0.02-0.25,0.06-0.36s0.1-0.22,0.17-0.32s0.15-0.19,0.24-0.28s0.19-0.16,0.29-0.23c0.1-0.07,0.21-0.13,0.31-0.18
			c0.11-0.05,0.21-0.09,0.31-0.12l0.01-0.01c-0.07-0.03-0.14-0.07-0.21-0.11s-0.13-0.09-0.19-0.14c-0.05-0.05-0.1-0.12-0.13-0.19
			s-0.05-0.15-0.05-0.24c0-0.1,0.02-0.19,0.07-0.27s0.1-0.15,0.17-0.21s0.15-0.11,0.23-0.16s0.17-0.08,0.24-0.12
			c-0.15-0.06-0.29-0.13-0.4-0.23s-0.22-0.2-0.3-0.31s-0.14-0.25-0.19-0.38s-0.06-0.28-0.06-0.43c0-0.26,0.05-0.49,0.15-0.71
			s0.23-0.41,0.4-0.56c0.17-0.16,0.36-0.28,0.59-0.37s0.46-0.13,0.7-0.13c0.09,0,0.18,0.01,0.26,0.02s0.15,0.03,0.22,0.05
			s0.13,0.04,0.18,0.07c0.06,0.02,0.11,0.05,0.16,0.07c0.07,0.04,0.15,0.07,0.22,0.1s0.15,0.04,0.25,0.04
			c0.08,0,0.15-0.01,0.23-0.04s0.14-0.06,0.19-0.11s0.1-0.11,0.13-0.18c0.03-0.07,0.05-0.15,0.05-0.24c0-0.01,0-0.03,0-0.04
			c0-0.01,0-0.03,0-0.04l0.04-0.03c0.13,0.06,0.23,0.14,0.3,0.23c0.06,0.09,0.1,0.19,0.1,0.28c0,0.07-0.01,0.14-0.04,0.2
			s-0.07,0.11-0.12,0.15c-0.05,0.04-0.12,0.07-0.19,0.09s-0.16,0.03-0.25,0.03c-0.14,0-0.28-0.03-0.44-0.08L37.71,41.49z
			 M35.79,45.59c-0.14,0.04-0.27,0.09-0.39,0.16S35.16,45.9,35.06,46s-0.17,0.22-0.23,0.34c-0.05,0.13-0.08,0.27-0.08,0.42
			c0,0.19,0.04,0.35,0.12,0.48s0.19,0.25,0.32,0.34c0.13,0.09,0.28,0.16,0.44,0.2s0.32,0.06,0.48,0.06c0.21,0,0.42-0.03,0.62-0.1
			s0.37-0.16,0.51-0.27s0.26-0.25,0.35-0.41s0.13-0.33,0.13-0.52c0-0.11-0.02-0.2-0.06-0.27s-0.1-0.14-0.18-0.2s-0.16-0.1-0.27-0.14
			s-0.22-0.08-0.34-0.11c-0.17-0.04-0.34-0.09-0.53-0.12C36.17,45.68,35.98,45.64,35.79,45.59z M36.39,43.81
			c0.11,0,0.2-0.02,0.29-0.05c0.09-0.04,0.16-0.08,0.23-0.14s0.12-0.13,0.17-0.21s0.08-0.17,0.12-0.25
			c0.03-0.09,0.05-0.18,0.07-0.27c0.02-0.09,0.02-0.18,0.02-0.27c0-0.11-0.01-0.22-0.03-0.33s-0.05-0.22-0.08-0.32
			s-0.08-0.2-0.14-0.29c-0.06-0.09-0.13-0.17-0.2-0.24s-0.16-0.12-0.26-0.16s-0.21-0.06-0.33-0.06c-0.11,0-0.21,0.02-0.3,0.05
			s-0.17,0.08-0.24,0.14s-0.13,0.13-0.17,0.21s-0.09,0.16-0.12,0.25s-0.05,0.18-0.07,0.27c-0.02,0.09-0.02,0.18-0.02,0.26
			c0,0.11,0.01,0.22,0.03,0.33s0.05,0.22,0.09,0.32s0.09,0.2,0.15,0.29s0.13,0.17,0.21,0.24c0.08,0.07,0.17,0.12,0.27,0.16
			S36.27,43.81,36.39,43.81z"/>
		<path d="M39.74,45.26c-0.07,0-0.13-0.01-0.19-0.04c-0.06-0.03-0.1-0.07-0.14-0.11c-0.04-0.05-0.07-0.1-0.09-0.16
			c-0.02-0.06-0.03-0.12-0.03-0.18c0-0.09,0.01-0.17,0.04-0.24s0.07-0.13,0.12-0.17s0.1-0.08,0.16-0.1s0.12-0.04,0.17-0.04
			c0.07,0,0.13,0.01,0.18,0.04c0.06,0.03,0.1,0.06,0.14,0.1s0.07,0.09,0.09,0.15s0.03,0.12,0.03,0.18c0,0.07-0.01,0.14-0.04,0.21
			s-0.06,0.13-0.1,0.18c-0.04,0.05-0.1,0.1-0.16,0.13C39.88,45.25,39.81,45.26,39.74,45.26z"/>
		<path d="M43.47,42.14c0.05-0.11,0.08-0.22,0.08-0.33c0-0.08-0.01-0.15-0.04-0.22c-0.03-0.07-0.07-0.13-0.12-0.18
			s-0.12-0.09-0.2-0.12c-0.08-0.03-0.17-0.04-0.28-0.04c-0.15,0-0.29,0.03-0.41,0.08s-0.23,0.13-0.32,0.22
			c-0.09,0.09-0.17,0.2-0.24,0.33s-0.12,0.25-0.16,0.4c-0.04,0.14-0.07,0.28-0.09,0.43s-0.03,0.29-0.03,0.43
			c0,0.25,0.03,0.48,0.1,0.69c0.06,0.21,0.15,0.38,0.26,0.53s0.24,0.26,0.39,0.34s0.31,0.12,0.47,0.12c0.18,0,0.36-0.05,0.54-0.14
			c0.18-0.09,0.36-0.24,0.53-0.45c0.01,0.01,0.03,0.01,0.04,0.02s0.04,0.02,0.05,0.04s0.03,0.03,0.04,0.04s0.02,0.03,0.02,0.04
			c0,0.01,0,0.01,0,0.01l-0.01,0.01c-0.19,0.31-0.42,0.54-0.68,0.69s-0.56,0.23-0.87,0.23c-0.17,0-0.33-0.02-0.47-0.07
			s-0.28-0.11-0.39-0.2s-0.22-0.19-0.31-0.3s-0.16-0.24-0.22-0.38s-0.1-0.28-0.13-0.43s-0.04-0.3-0.04-0.45
			c0-0.21,0.02-0.41,0.07-0.62s0.11-0.4,0.2-0.59c0.09-0.19,0.19-0.37,0.32-0.53c0.12-0.17,0.26-0.31,0.42-0.43
			c0.16-0.12,0.33-0.22,0.52-0.29s0.39-0.1,0.61-0.1c0.16,0,0.31,0.02,0.45,0.06s0.26,0.09,0.36,0.17c0.1,0.07,0.18,0.16,0.24,0.26
			s0.09,0.21,0.09,0.34c0,0.08-0.01,0.15-0.04,0.21c-0.03,0.06-0.06,0.11-0.1,0.16c-0.04,0.04-0.1,0.08-0.15,0.1
			c-0.06,0.02-0.13,0.03-0.2,0.03c-0.04,0-0.09,0-0.13-0.01c-0.05-0.01-0.09-0.02-0.14-0.04L43.47,42.14z"/>
		<path d="M46.13,37.28c-0.04,0.33-0.08,0.67-0.12,1.02c-0.04,0.35-0.08,0.7-0.11,1.06s-0.07,0.71-0.09,1.07s-0.05,0.71-0.08,1.06
			s-0.04,0.69-0.05,1.03s-0.02,0.66-0.02,0.97c0,0.19,0,0.36,0.01,0.5c0,0.14,0.01,0.26,0.02,0.35c0.01,0.1,0.02,0.17,0.04,0.23
			s0.04,0.1,0.07,0.13s0.06,0.05,0.1,0.06s0.08,0.02,0.13,0.02c0.09,0,0.19-0.01,0.3-0.04c0.11-0.03,0.22-0.07,0.33-0.12l0.06,0.15
			c-0.07,0.06-0.16,0.11-0.27,0.17s-0.22,0.11-0.33,0.16s-0.23,0.09-0.34,0.12s-0.21,0.05-0.29,0.05c-0.11,0-0.19-0.03-0.25-0.08
			c-0.06-0.05-0.11-0.14-0.14-0.26c-0.03-0.12-0.05-0.28-0.06-0.47c-0.01-0.19-0.01-0.43-0.01-0.71c0-0.1,0-0.25,0.01-0.44
			s0.01-0.41,0.03-0.66c0.01-0.25,0.02-0.52,0.04-0.82s0.03-0.6,0.04-0.92s0.03-0.64,0.05-0.96s0.04-0.64,0.05-0.94
			s0.03-0.59,0.05-0.85s0.03-0.5,0.04-0.71c0-0.05,0.02-0.09,0.04-0.12s0.06-0.06,0.1-0.08c0.04-0.02,0.08-0.04,0.13-0.05
			c0.05-0.01,0.1-0.01,0.15-0.01C45.88,37.19,46.01,37.22,46.13,37.28z"/>
		<path d="M49.47,42.13c0-0.15-0.03-0.29-0.08-0.4s-0.12-0.21-0.2-0.28s-0.17-0.13-0.28-0.16s-0.21-0.05-0.31-0.05
			c-0.14,0-0.26,0.01-0.35,0.04s-0.17,0.07-0.23,0.12c-0.06,0.05-0.1,0.11-0.13,0.18c-0.03,0.07-0.04,0.14-0.04,0.22
			c0,0.09,0.02,0.19,0.05,0.28c0.03,0.09,0.08,0.19,0.15,0.28l-0.01,0.03c-0.11,0.05-0.22,0.08-0.34,0.08
			c-0.07,0-0.13-0.01-0.19-0.03s-0.11-0.05-0.15-0.09c-0.04-0.04-0.08-0.09-0.1-0.14c-0.03-0.06-0.04-0.12-0.04-0.19
			c0-0.12,0.03-0.22,0.08-0.33c0.05-0.1,0.13-0.19,0.22-0.28s0.2-0.16,0.32-0.23s0.25-0.12,0.38-0.17s0.26-0.08,0.39-0.11
			s0.25-0.04,0.36-0.04c0.21,0,0.38,0.03,0.53,0.08c0.14,0.05,0.26,0.13,0.35,0.24c0.09,0.1,0.16,0.23,0.2,0.38s0.06,0.32,0.06,0.5
			c0,0.13-0.01,0.27-0.02,0.42s-0.02,0.32-0.04,0.48s-0.03,0.34-0.04,0.52c-0.01,0.18-0.02,0.36-0.02,0.54
			c0,0.28,0.05,0.49,0.16,0.63c0.1,0.14,0.24,0.21,0.41,0.21c0.15,0,0.32-0.06,0.5-0.17l0.08,0.13c-0.13,0.13-0.27,0.23-0.43,0.3
			s-0.32,0.1-0.49,0.1c-0.13,0-0.24-0.02-0.35-0.06s-0.2-0.11-0.28-0.19s-0.14-0.19-0.18-0.32s-0.06-0.28-0.06-0.45
			c0-0.05,0-0.1,0-0.15c0-0.05,0.01-0.1,0.02-0.16H49.4c-0.08,0.17-0.18,0.33-0.29,0.5s-0.23,0.31-0.36,0.44
			c-0.13,0.13-0.27,0.23-0.42,0.31c-0.15,0.08-0.31,0.12-0.47,0.12c-0.13,0-0.26-0.02-0.37-0.07s-0.21-0.11-0.29-0.19
			c-0.08-0.08-0.14-0.18-0.18-0.29c-0.04-0.11-0.07-0.23-0.07-0.37c0-0.17,0.03-0.33,0.1-0.47c0.06-0.14,0.15-0.27,0.26-0.38
			c0.11-0.11,0.25-0.21,0.4-0.29s0.33-0.15,0.51-0.2s0.38-0.09,0.58-0.12s0.41-0.04,0.63-0.04c0.01-0.12,0.02-0.24,0.03-0.36
			C49.47,42.4,49.47,42.27,49.47,42.13z M47.68,44.15c0,0.08,0.01,0.15,0.02,0.22s0.04,0.13,0.08,0.18
			c0.04,0.05,0.08,0.09,0.14,0.12c0.06,0.03,0.12,0.05,0.2,0.05c0.09,0,0.18-0.02,0.27-0.06s0.19-0.1,0.28-0.17
			c0.09-0.07,0.18-0.16,0.26-0.26c0.08-0.1,0.16-0.21,0.22-0.33s0.12-0.25,0.17-0.38c0.04-0.13,0.07-0.27,0.09-0.41
			c-0.14,0-0.29,0.01-0.43,0.03s-0.28,0.04-0.41,0.07s-0.25,0.07-0.36,0.12s-0.2,0.11-0.28,0.19c-0.08,0.08-0.14,0.16-0.19,0.27
			S47.68,44.01,47.68,44.15z"/>
		<path d="M51.75,44.09c0.01,0.15,0.05,0.28,0.12,0.38c0.06,0.11,0.15,0.2,0.24,0.26s0.2,0.12,0.32,0.15s0.23,0.05,0.35,0.05
			c0.11,0,0.21-0.01,0.31-0.04s0.19-0.07,0.26-0.13s0.14-0.12,0.18-0.2c0.04-0.08,0.07-0.17,0.07-0.27c0-0.1-0.02-0.19-0.07-0.27
			s-0.11-0.15-0.2-0.21s-0.18-0.12-0.29-0.18c-0.11-0.05-0.22-0.11-0.34-0.17c-0.1-0.05-0.21-0.1-0.31-0.15
			c-0.11-0.05-0.21-0.1-0.3-0.16s-0.19-0.12-0.27-0.19c-0.08-0.07-0.16-0.14-0.22-0.23s-0.11-0.18-0.15-0.28
			c-0.04-0.1-0.05-0.22-0.05-0.34c0-0.13,0.02-0.26,0.07-0.37s0.11-0.22,0.19-0.31s0.17-0.17,0.28-0.24s0.22-0.13,0.34-0.17
			s0.25-0.08,0.37-0.1s0.25-0.03,0.37-0.03c0.16,0,0.3,0.02,0.44,0.05c0.14,0.03,0.26,0.08,0.37,0.15s0.19,0.15,0.25,0.24
			c0.06,0.09,0.09,0.2,0.09,0.32c0,0.04-0.01,0.09-0.02,0.15s-0.04,0.1-0.08,0.15s-0.09,0.08-0.15,0.12s-0.13,0.05-0.22,0.05
			c-0.08,0-0.17-0.01-0.26-0.04l-0.01-0.03c0.03-0.06,0.05-0.12,0.06-0.17s0.02-0.1,0.02-0.15c0-0.09-0.03-0.17-0.07-0.23
			c-0.04-0.06-0.1-0.11-0.17-0.15s-0.14-0.07-0.22-0.08c-0.08-0.02-0.16-0.03-0.24-0.03c-0.14,0-0.26,0.02-0.37,0.06
			s-0.2,0.09-0.28,0.15s-0.13,0.13-0.17,0.21c-0.04,0.08-0.06,0.16-0.06,0.24c0,0.11,0.03,0.2,0.08,0.29s0.13,0.16,0.23,0.23
			s0.2,0.14,0.32,0.2c0.12,0.06,0.25,0.13,0.38,0.19c0.15,0.07,0.3,0.14,0.44,0.22s0.28,0.16,0.39,0.26s0.21,0.21,0.28,0.33
			s0.11,0.27,0.11,0.44c0,0.2-0.04,0.38-0.13,0.54c-0.09,0.16-0.21,0.29-0.36,0.4s-0.32,0.19-0.51,0.24
			c-0.19,0.06-0.39,0.08-0.6,0.08c-0.1,0-0.21-0.01-0.32-0.02c-0.11-0.02-0.22-0.04-0.32-0.07s-0.2-0.07-0.29-0.12
			c-0.09-0.05-0.17-0.1-0.24-0.16s-0.12-0.13-0.16-0.2s-0.06-0.15-0.06-0.24c0-0.08,0.02-0.14,0.05-0.19
			c0.03-0.05,0.08-0.1,0.13-0.13s0.11-0.06,0.18-0.08s0.13-0.03,0.2-0.03L51.75,44.09z"/>
		<path d="M55.22,44.09c0.01,0.15,0.05,0.28,0.12,0.38c0.06,0.11,0.15,0.2,0.24,0.26s0.2,0.12,0.32,0.15s0.23,0.05,0.35,0.05
			c0.11,0,0.21-0.01,0.31-0.04s0.19-0.07,0.26-0.13s0.14-0.12,0.18-0.2c0.04-0.08,0.07-0.17,0.07-0.27c0-0.1-0.02-0.19-0.07-0.27
			s-0.11-0.15-0.2-0.21s-0.18-0.12-0.29-0.18c-0.11-0.05-0.22-0.11-0.34-0.17c-0.1-0.05-0.21-0.1-0.31-0.15
			c-0.11-0.05-0.21-0.1-0.3-0.16s-0.19-0.12-0.27-0.19c-0.08-0.07-0.16-0.14-0.22-0.23s-0.11-0.18-0.15-0.28
			c-0.04-0.1-0.05-0.22-0.05-0.34c0-0.13,0.02-0.26,0.07-0.37s0.11-0.22,0.19-0.31s0.17-0.17,0.28-0.24s0.22-0.13,0.34-0.17
			s0.25-0.08,0.37-0.1s0.25-0.03,0.37-0.03c0.16,0,0.3,0.02,0.44,0.05c0.14,0.03,0.26,0.08,0.37,0.15s0.19,0.15,0.25,0.24
			c0.06,0.09,0.09,0.2,0.09,0.32c0,0.04-0.01,0.09-0.02,0.15s-0.04,0.1-0.08,0.15s-0.09,0.08-0.15,0.12s-0.13,0.05-0.22,0.05
			c-0.08,0-0.17-0.01-0.26-0.04l-0.01-0.03c0.03-0.06,0.05-0.12,0.06-0.17s0.02-0.1,0.02-0.15c0-0.09-0.03-0.17-0.07-0.23
			c-0.04-0.06-0.1-0.11-0.17-0.15s-0.14-0.07-0.22-0.08c-0.08-0.02-0.16-0.03-0.24-0.03c-0.14,0-0.26,0.02-0.37,0.06
			s-0.2,0.09-0.28,0.15s-0.13,0.13-0.17,0.21c-0.04,0.08-0.06,0.16-0.06,0.24c0,0.11,0.03,0.2,0.08,0.29s0.13,0.16,0.23,0.23
			s0.2,0.14,0.32,0.2c0.12,0.06,0.25,0.13,0.38,0.19c0.15,0.07,0.3,0.14,0.44,0.22s0.28,0.16,0.39,0.26s0.21,0.21,0.28,0.33
			s0.11,0.27,0.11,0.44c0,0.2-0.04,0.38-0.13,0.54c-0.09,0.16-0.21,0.29-0.36,0.4s-0.32,0.19-0.51,0.24
			c-0.19,0.06-0.39,0.08-0.6,0.08c-0.1,0-0.21-0.01-0.32-0.02c-0.11-0.02-0.22-0.04-0.32-0.07s-0.2-0.07-0.29-0.12
			c-0.09-0.05-0.17-0.1-0.24-0.16s-0.12-0.13-0.16-0.2s-0.06-0.15-0.06-0.24c0-0.08,0.02-0.14,0.05-0.19
			c0.03-0.05,0.08-0.1,0.13-0.13s0.11-0.06,0.18-0.08s0.13-0.03,0.2-0.03L55.22,44.09z"/>
	</g>
</g>
<g id="Warstwa_4">
</g>
<g id="Warstwa_3">
	<g>
		<g>
			<path d="M50.12,22.18c0.47,0.74,1.02,1.38,1.68,1.96c0.12,0.1,0.31,0.1,0.39-0.05c0.86-1.63,1.61-3.3,2.27-5.02
				c0.11-0.3-0.37-0.43-0.48-0.13c-0.64,1.68-1.38,3.31-2.22,4.9c0.13-0.02,0.26-0.03,0.39-0.05c-0.63-0.55-1.15-1.15-1.6-1.85
				C50.38,21.65,49.94,21.9,50.12,22.18L50.12,22.18z"/>
		</g>
	</g>
	<g>
		<g>
			<path d="M52.18,31.74c0.47,0.74,1.02,1.38,1.68,1.96c0.12,0.1,0.31,0.1,0.39-0.05c0.86-1.63,1.61-3.3,2.27-5.02
				c0.11-0.3-0.37-0.43-0.48-0.13c-0.64,1.68-1.38,3.31-2.22,4.9c0.13-0.02,0.26-0.03,0.39-0.05c-0.63-0.55-1.15-1.15-1.6-1.85
				C52.43,31.22,52,31.47,52.18,31.74L52.18,31.74z"/>
		</g>
	</g>
	<g>
		<g>
			<path d="M60.57,43.14c0.47,0.74,1.02,1.38,1.68,1.96c0.12,0.1,0.31,0.1,0.39-0.05c0.86-1.63,1.61-3.3,2.27-5.02
				c0.11-0.3-0.37-0.43-0.48-0.13c-0.64,1.68-1.38,3.31-2.22,4.9c0.13-0.02,0.26-0.03,0.39-0.05c-0.63-0.55-1.15-1.15-1.6-1.85
				C60.83,42.62,60.4,42.87,60.57,43.14L60.57,43.14z"/>
		</g>
	</g>
</g>
<g id="Warstwa_2">
	<text transform="matrix(1 0 0 1 18.9147 10.9625)" class="st0 st1">Loading</text>
</g>
</svg>
