<svg version="1.1" xmlns="http://www.w3.org/2000/svg" xmlns:xlink="http://www.w3.org/1999/xlink" width="452.68333333333334" height="351.33333333333337"><style xmlns="http://www.w3.org/1999/xhtml"></style><defs/><g transform="translate(0,0)"><g><rect fill="#FFFFFF" stroke="none" x="0" y="0" width="452.68333333333334" height="351.33333333333337"/></g><g transform="translate(0,0) matrix(1,0,0,1,10,10)"><g transform="translate(4,4) scale(1.0023980815347722,1.0033333333333334)"><g><g transform="translate(0,0) scale(4.17,3)"><g><path fill="#000000" stroke="none" stroke-dasharray="1.7976931348623157e+308" d="M 0 0 L 100 0 Q 100 0 100 0 L 100 100 Q 100 100 100 100 L 0 100 Q 0 100 0 100 L 0 0 Q 0 0 0 0 Z" opacity="0.294117647"/><g transform="scale(0.23980815347721823,0.3333333333333333)"><path fill="none" stroke="none" stroke-dasharray="1.7976931348623157e+308" d="M 0 0 L 417 0 Q 417 0 417 0 L 417 300 Q 417 300 417 300 L 0 300 Q 0 300 0 300 L 0 0 Q 0 0 0 0 Z"/><path fill="none" stroke="rgb(0,0,0)" stroke-dasharray="1.7976931348623157e+308" d="M 0 0 L 417 0 Q 417 0 417 0 L 417 300 Q 417 300 417 300 L 0 300 Q 0 300 0 300 L 0 0 Q 0 0 0 0 Z" stroke-opacity="0" stroke-miterlimit="10" stroke-width="2" opacity="0.294117647"/></g></g></g></g></g><g><g transform="translate(0,0) scale(4.17,3)"><g><path fill="#FFFFFF" stroke="none" stroke-dasharray="1.7976931348623157e+308" d="M 0 0 L 100 0 Q 100 0 100 0 L 100 100 Q 100 100 100 100 L 0 100 Q 0 100 0 100 L 0 0 Q 0 0 0 0 Z"/><g transform="scale(0.23980815347721823,0.3333333333333333)"><path fill="none" stroke="none" stroke-dasharray="1.7976931348623157e+308" d="M 0 0 L 417 0 Q 417 0 417 0 L 417 300 Q 417 300 417 300 L 0 300 Q 0 300 0 300 L 0 0 Q 0 0 0 0 Z"/><path fill="none" stroke="#333333" stroke-dasharray="1.7976931348623157e+308" d="M 0 0 L 417 0 Q 417 0 417 0 L 417 300 Q 417 300 417 300 L 0 300 Q 0 300 0 300 L 0 0 Q 0 0 0 0 Z" stroke-miterlimit="10" stroke-width="2"/></g></g></g></g></g><g transform="translate(0,0) matrix(1,0,0,1,10,10)"><g><g transform="translate(0,0) scale(4.17,0.5)"><g><path fill="#ff0000" stroke="none" stroke-dasharray="1.7976931348623157e+308" d="M 0 0 L 100 0 Q 100 0 100 0 L 100 100 Q 100 100 100 100 L 0 100 Q 0 100 0 100 L 0 0 Q 0 0 0 0 Z"/><g transform="scale(0.23980815347721823,2)"><path fill="none" stroke="none" stroke-dasharray="1.7976931348623157e+308" d="M 0 0 L 417 0 Q 417 0 417 0 L 417 50 Q 417 50 417 50 L 0 50 Q 0 50 0 50 L 0 0 Q 0 0 0 0 Z"/><path fill="none" stroke="#333333" stroke-dasharray="1.7976931348623157e+308" d="M 0 0 L 417 0 Q 417 0 417 0 L 417 50 Q 417 50 417 50 L 0 50 Q 0 50 0 50 L 0 0 Q 0 0 0 0 Z" stroke-miterlimit="10" stroke-width="2"/></g></g></g></g></g><g transform="matrix(1,0,0,1,20,28)"><g><g><rect fill="rgb(0,0,0)" stroke="none" x="0" y="0" width="397" height="14" fill-opacity="0"/></g></g><g><g><rect fill="rgb(0,0,0)" stroke="none" x="0" y="0" width="397" height="14" fill-opacity="0"/></g></g><g><g><rect fill="rgb(0,0,0)" stroke="none" x="173.671875" y="0" width="50" height="14" fill-opacity="0"/></g></g><g><g><rect fill="rgb(0,0,0)" stroke="none" x="173.671875" y="0" width="50" height="14" fill-opacity="0"/></g><text fill="rgb(255, 255, 255)" stroke="none" font-family="Arial" font-size="12px" font-style="normal" font-weight="700" text-decoration="" line-height="14px" x="174" y="12">Off</text><text fill="rgb(255, 255, 255)" stroke="none" font-family="Arial" font-size="12px" font-style="normal" font-weight="700" text-decoration="" line-height="14px" x="194" y="12">Heap</text></g></g><g transform="translate(0,0) matrix(1,0,0,1,10,60)"><g><g transform="translate(0,0) scale(4.17,0.5)"><g><path fill="#ff9900" stroke="none" stroke-dasharray="1.7976931348623157e+308" d="M 0 0 L 100 0 Q 100 0 100 0 L 100 100 Q 100 100 100 100 L 0 100 Q 0 100 0 100 L 0 0 Q 0 0 0 0 Z"/><g transform="scale(0.23980815347721823,2)"><path fill="none" stroke="none" stroke-dasharray="1.7976931348623157e+308" d="M 0 0 L 417 0 Q 417 0 417 0 L 417 50 Q 417 50 417 50 L 0 50 Q 0 50 0 50 L 0 0 Q 0 0 0 0 Z"/><path fill="none" stroke="#333333" stroke-dasharray="1.7976931348623157e+308" d="M 0 0 L 417 0 Q 417 0 417 0 L 417 50 Q 417 50 417 50 L 0 50 Q 0 50 0 50 L 0 0 Q 0 0 0 0 Z" stroke-miterlimit="10" stroke-width="2"/></g></g></g></g></g><g transform="matrix(1,0,0,1,20,78)"><g><g><rect fill="rgb(0,0,0)" stroke="none" x="0" y="0" width="397" height="14" fill-opacity="0"/></g></g><g><g><rect fill="rgb(0,0,0)" stroke="none" x="0" y="0" width="397" height="14" fill-opacity="0"/></g></g><g><g><rect fill="rgb(0,0,0)" stroke="none" x="165.65625" y="0" width="66" height="14" fill-opacity="0"/></g></g><g><g><rect fill="rgb(0,0,0)" stroke="none" x="165.65625" y="0" width="66" height="14" fill-opacity="0"/></g><text fill="rgb(255, 255, 255)" stroke="none" font-family="Arial" font-size="12px" font-style="normal" font-weight="700" text-decoration="" line-height="14px" x="166" y="12">Native</text><text fill="rgb(255, 255, 255)" stroke="none" font-family="Arial" font-size="12px" font-style="normal" font-weight="700" text-decoration="" line-height="14px" x="205" y="12">Area</text></g></g><g transform="translate(0,0) matrix(1,0,0,1,10,110)"><g><g transform="translate(0,0) scale(1.8,0.5)"><g><path fill="#6aa84f" stroke="none" stroke-dasharray="1.7976931348623157e+308" d="M 0 0 L 100 0 Q 100 0 100 0 L 100 100 Q 100 100 100 100 L 0 100 Q 0 100 0 100 L 0 0 Q 0 0 0 0 Z"/><g transform="scale(0.5555555555555556,2)"><path fill="none" stroke="none" stroke-dasharray="1.7976931348623157e+308" d="M 0 0 L 180 0 Q 180 0 180 0 L 180 50 Q 180 50 180 50 L 0 50 Q 0 50 0 50 L 0 0 Q 0 0 0 0 Z"/><path fill="none" stroke="#333333" stroke-dasharray="1.7976931348623157e+308" d="M 0 0 L 180 0 Q 180 0 180 0 L 180 50 Q 180 50 180 50 L 0 50 Q 0 50 0 50 L 0 0 Q 0 0 0 0 Z" stroke-miterlimit="10" stroke-width="2"/></g></g></g></g></g><g transform="matrix(1,0,0,1,19,128)"><g><g><rect fill="rgb(0,0,0)" stroke="none" x="0" y="0" width="163" height="14" fill-opacity="0"/></g></g><g><g><rect fill="rgb(0,0,0)" stroke="none" x="0" y="0" width="163" height="14" fill-opacity="0"/></g></g><g><g><rect fill="rgb(0,0,0)" stroke="none" x="50.8125" y="0" width="61" height="14" fill-opacity="0"/></g></g><g><g><rect fill="rgb(0,0,0)" stroke="none" x="50.8125" y="0" width="61" height="14" fill-opacity="0"/></g><text fill="rgb(255, 255, 255)" stroke="none" font-family="Arial" font-size="12px" font-style="normal" font-weight="700" text-decoration="" line-height="14px" x="50.8125" y="12">Metaspace</text></g></g><g transform="translate(0,0) matrix(1,0,0,1,10,160)"><g><g transform="translate(0,0) scale(1.4,0.5)"><g><path fill="#45818e" stroke="none" stroke-dasharray="1.7976931348623157e+308" d="M 0 0 L 100 0 Q 100 0 100 0 L 100 100 Q 100 100 100 100 L 0 100 Q 0 100 0 100 L 0 0 Q 0 0 0 0 Z"/><g transform="scale(0.7142857142857143,2)"><path fill="none" stroke="none" stroke-dasharray="1.7976931348623157e+308" d="M 0 0 L 140 0 Q 140 0 140 0 L 140 50 Q 140 50 140 50 L 0 50 Q 0 50 0 50 L 0 0 Q 0 0 0 0 Z"/><path fill="none" stroke="#333333" stroke-dasharray="1.7976931348623157e+308" d="M 0 0 L 140 0 Q 140 0 140 0 L 140 50 Q 140 50 140 50 L 0 50 Q 0 50 0 50 L 0 0 Q 0 0 0 0 Z" stroke-miterlimit="10" stroke-width="2"/></g></g></g></g></g><g transform="matrix(1,0,0,1,19,171)"><g><g><rect fill="rgb(0,0,0)" stroke="none" x="0" y="0" width="123" height="28" fill-opacity="0"/></g></g><g><g><rect fill="rgb(0,0,0)" stroke="none" x="0" y="0" width="123" height="28" fill-opacity="0"/></g></g><g><g><rect fill="rgb(0,0,0)" stroke="none" x="8.0625" y="0" width="107" height="28" fill-opacity="0"/></g></g><g><g><rect fill="rgb(0,0,0)" stroke="none" x="8.0625" y="0" width="107" height="28" fill-opacity="0"/></g><text fill="rgb(255, 255, 255)" stroke="none" font-family="Arial" font-size="12px" font-style="normal" font-weight="700" text-decoration="" line-height="14px" x="8" y="12">Run</text><text fill="rgb(255, 255, 255)" stroke="none" font-family="Arial" font-size="12px" font-style="normal" font-weight="700" text-decoration="" line-height="14px" x="31" y="12">-</text><text fill="rgb(255, 255, 255)" stroke="none" font-family="Arial" font-size="12px" font-style="normal" font-weight="700" text-decoration="" line-height="14px" x="35" y="12">time</text><text fill="rgb(255, 255, 255)" stroke="none" font-family="Arial" font-size="12px" font-style="normal" font-weight="700" text-decoration="" line-height="14px" x="63" y="12">Constant</text><text fill="rgb(255, 255, 255)" stroke="none" font-family="Arial" font-size="12px" font-style="normal" font-weight="700" text-decoration="" line-height="14px" x="48.71875" y="26">Pool</text></g></g><g transform="translate(0,0) matrix(1,0,0,1,10,210)"><g><g transform="translate(0,0) scale(1.4,0.5)"><g><path fill="#45818e" stroke="none" stroke-dasharray="1.7976931348623157e+308" d="M 0 0 L 100 0 Q 100 0 100 0 L 100 100 Q 100 100 100 100 L 0 100 Q 0 100 0 100 L 0 0 Q 0 0 0 0 Z"/><g transform="scale(0.7142857142857143,2)"><path fill="none" stroke="none" stroke-dasharray="1.7976931348623157e+308" d="M 0 0 L 140 0 Q 140 0 140 0 L 140 50 Q 140 50 140 50 L 0 50 Q 0 50 0 50 L 0 0 Q 0 0 0 0 Z"/><path fill="none" stroke="#333333" stroke-dasharray="1.7976931348623157e+308" d="M 0 0 L 140 0 Q 140 0 140 0 L 140 50 Q 140 50 140 50 L 0 50 Q 0 50 0 50 L 0 0 Q 0 0 0 0 Z" stroke-miterlimit="10" stroke-width="2"/></g></g></g></g></g><g transform="matrix(1,0,0,1,19,228)"><g><g><rect fill="rgb(0,0,0)" stroke="none" x="0" y="0" width="123" height="14" fill-opacity="0"/></g></g><g><g><rect fill="rgb(0,0,0)" stroke="none" x="0" y="0" width="123" height="14" fill-opacity="0"/></g></g><g><g><rect fill="rgb(0,0,0)" stroke="none" x="33.71875" y="0" width="56" height="14" fill-opacity="0"/></g></g><g><g><rect fill="rgb(0,0,0)" stroke="none" x="33.71875" y="0" width="56" height="14" fill-opacity="0"/></g><text fill="rgb(255, 255, 255)" stroke="none" font-family="Arial" font-size="12px" font-style="normal" font-weight="700" text-decoration="" line-height="14px" x="33.71875" y="12">ByteCode</text></g></g><g transform="translate(0,0) matrix(1,0,0,1,10,260)"><g><g transform="translate(0,0) scale(1.4,0.5)"><g><path fill="#45818e" stroke="none" stroke-dasharray="1.7976931348623157e+308" d="M 0 0 L 100 0 Q 100 0 100 0 L 100 100 Q 100 100 100 100 L 0 100 Q 0 100 0 100 L 0 0 Q 0 0 0 0 Z"/><g transform="scale(0.7142857142857143,2)"><path fill="none" stroke="none" stroke-dasharray="1.7976931348623157e+308" d="M 0 0 L 140 0 Q 140 0 140 0 L 140 50 Q 140 50 140 50 L 0 50 Q 0 50 0 50 L 0 0 Q 0 0 0 0 Z"/><path fill="none" stroke="#333333" stroke-dasharray="1.7976931348623157e+308" d="M 0 0 L 140 0 Q 140 0 140 0 L 140 50 Q 140 50 140 50 L 0 50 Q 0 50 0 50 L 0 0 Q 0 0 0 0 Z" stroke-miterlimit="10" stroke-width="2"/></g></g></g></g></g><g transform="matrix(1,0,0,1,19,278)"><g><g><rect fill="rgb(0,0,0)" stroke="none" x="0" y="0" width="123" height="14" fill-opacity="0"/></g></g><g><g><rect fill="rgb(0,0,0)" stroke="none" x="0" y="0" width="123" height="14" fill-opacity="0"/></g></g><g><g><rect fill="rgb(0,0,0)" stroke="none" x="10.046875" y="0" width="103" height="14" fill-opacity="0"/></g></g><g><g><rect fill="rgb(0,0,0)" stroke="none" x="10.046875" y="0" width="103" height="14" fill-opacity="0"/></g><text fill="rgb(255, 255, 255)" stroke="none" font-family="Arial" font-size="12px" font-style="normal" font-weight="700" text-decoration="" line-height="14px" x="10" y="12">Field</text><text fill="rgb(255, 255, 255)" stroke="none" font-family="Arial" font-size="12px" font-style="normal" font-weight="700" text-decoration="" line-height="14px" x="38" y="12">/</text><text fill="rgb(255, 255, 255)" stroke="none" font-family="Arial" font-size="12px" font-style="normal" font-weight="700" text-decoration="" line-height="14px" x="41" y="12">Method</text><text fill="rgb(255, 255, 255)" stroke="none" font-family="Arial" font-size="12px" font-style="normal" font-weight="700" text-decoration="" line-height="14px" x="87" y="12">Data</text></g></g><g transform="translate(0,0) matrix(1,0,0,1,150,160)"><g><g transform="translate(0,0) scale(0.4,1.5)"><g><path fill="#134f5c" stroke="none" stroke-dasharray="1.7976931348623157e+308" d="M 0 0 L 100 0 Q 100 0 100 0 L 100 100 Q 100 100 100 100 L 0 100 Q 0 100 0 100 L 0 0 Q 0 0 0 0 Z"/><g transform="scale(2.5,0.6666666666666666)"><path fill="none" stroke="none" stroke-dasharray="1.7976931348623157e+308" d="M 0 0 L 40 0 Q 40 0 40 0 L 40 150 Q 40 150 40 150 L 0 150 Q 0 150 0 150 L 0 0 Q 0 0 0 0 Z"/><path fill="none" stroke="#333333" stroke-dasharray="1.7976931348623157e+308" d="M 0 0 L 40 0 Q 40 0 40 0 L 40 150 Q 40 150 40 150 L 0 150 Q 0 150 0 150 L 0 0 Q 0 0 0 0 Z" stroke-miterlimit="10" stroke-width="2"/></g></g></g></g></g><g transform="matrix(-1.8369701987210297e-16,-1,1,-1.8369701987210297e-16,161,308)"><g><g><rect fill="rgb(0,0,0)" stroke="none" x="0" y="0" width="147" height="14" fill-opacity="0"/></g></g><g><g><rect fill="rgb(0,0,0)" stroke="none" x="0" y="0" width="147" height="14" fill-opacity="0"/></g></g><g><g><rect fill="rgb(0,0,0)" stroke="none" x="46.484375" y="0" width="55" height="14" fill-opacity="0"/></g></g><g><g><rect fill="rgb(0,0,0)" stroke="none" x="46.484375" y="0" width="55" height="14" fill-opacity="0"/></g><text fill="rgb(255, 255, 255)" stroke="none" font-family="Arial" font-size="12px" font-style="normal" font-weight="700" text-decoration="" line-height="14px" x="46.484375" y="12">Reserved</text></g></g><g transform="translate(0,0) matrix(1,0,0,1,190,110)"><g><g transform="translate(0,0) scale(0.5,2)"><g><path fill="#1155cc" stroke="none" stroke-dasharray="1.7976931348623157e+308" d="M 0 0 L 100 0 Q 100 0 100 0 L 100 100 Q 100 100 100 100 L 0 100 Q 0 100 0 100 L 0 0 Q 0 0 0 0 Z"/><g transform="scale(2,0.5)"><path fill="none" stroke="none" stroke-dasharray="1.7976931348623157e+308" d="M 0 0 L 50 0 Q 50 0 50 0 L 50 200 Q 50 200 50 200 L 0 200 Q 0 200 0 200 L 0 0 Q 0 0 0 0 Z"/><path fill="none" stroke="#333333" stroke-dasharray="1.7976931348623157e+308" d="M 0 0 L 50 0 Q 50 0 50 0 L 50 200 Q 50 200 50 200 L 0 200 Q 0 200 0 200 L 0 0 Q 0 0 0 0 Z" stroke-miterlimit="10" stroke-width="2"/></g></g></g></g></g><g transform="translate(0,0) matrix(1,0,0,1,240,110)"><g><g transform="translate(0,0) scale(0.3,2)"><g><path fill="#0b5394" stroke="none" stroke-dasharray="1.7976931348623157e+308" d="M 0 0 L 100 0 Q 100 0 100 0 L 100 100 Q 100 100 100 100 L 0 100 Q 0 100 0 100 L 0 0 Q 0 0 0 0 Z"/><g transform="scale(3.3333333333333335,0.5)"><path fill="none" stroke="none" stroke-dasharray="1.7976931348623157e+308" d="M 0 0 L 30 0 Q 30 0 30 0 L 30 200 Q 30 200 30 200 L 0 200 Q 0 200 0 200 L 0 0 Q 0 0 0 0 Z"/><path fill="none" stroke="#333333" stroke-dasharray="1.7976931348623157e+308" d="M 0 0 L 30 0 Q 30 0 30 0 L 30 200 Q 30 200 30 200 L 0 200 Q 0 200 0 200 L 0 0 Q 0 0 0 0 Z" stroke-miterlimit="10" stroke-width="2"/></g></g></g></g></g><g transform="translate(0,0) matrix(1,0,0,1,270,110)"><g><g transform="translate(0,0) scale(1.2,0.5)"><g><path fill="#351c75" stroke="none" stroke-dasharray="1.7976931348623157e+308" d="M 0 0 L 100 0 Q 100 0 100 0 L 100 100 Q 100 100 100 100 L 0 100 Q 0 100 0 100 L 0 0 Q 0 0 0 0 Z"/><g transform="scale(0.8333333333333334,2)"><path fill="none" stroke="none" stroke-dasharray="1.7976931348623157e+308" d="M 0 0 L 120 0 Q 120 0 120 0 L 120 50 Q 120 50 120 50 L 0 50 Q 0 50 0 50 L 0 0 Q 0 0 0 0 Z"/><path fill="none" stroke="#333333" stroke-dasharray="1.7976931348623157e+308" d="M 0 0 L 120 0 Q 120 0 120 0 L 120 50 Q 120 50 120 50 L 0 50 Q 0 50 0 50 L 0 0 Q 0 0 0 0 Z" stroke-miterlimit="10" stroke-width="2"/></g></g></g></g></g><g transform="matrix(1,0,0,1,279,128)"><g><g><rect fill="rgb(0,0,0)" stroke="none" x="0" y="0" width="104" height="14" fill-opacity="0"/></g></g><g><g><rect fill="rgb(0,0,0)" stroke="none" x="0" y="0" width="104" height="14" fill-opacity="0"/></g></g><g><g><rect fill="rgb(0,0,0)" stroke="none" x="28.484375" y="0" width="47" height="14" fill-opacity="0"/></g></g><g><g><rect fill="rgb(0,0,0)" stroke="none" x="28.484375" y="0" width="47" height="14" fill-opacity="0"/></g><text fill="rgb(255, 255, 255)" stroke="none" font-family="Arial" font-size="12px" font-style="normal" font-weight="700" text-decoration="" line-height="14px" x="28.484375" y="12">Threads</text></g></g><g transform="matrix(-1.8369701987210297e-16,-1,1,-1.8369701987210297e-16,208,308)"><g><g><rect fill="rgb(0,0,0)" stroke="none" x="0" y="0" width="197" height="14" fill-opacity="0"/></g></g><g><g><rect fill="rgb(0,0,0)" stroke="none" x="0" y="0" width="197" height="14" fill-opacity="0"/></g></g><g><g><rect fill="rgb(0,0,0)" stroke="none" x="64.8125" y="0" width="67" height="14" fill-opacity="0"/></g></g><g><g><rect fill="rgb(0,0,0)" stroke="none" x="64.8125" y="0" width="67" height="14" fill-opacity="0"/></g><text fill="rgb(255, 255, 255)" stroke="none" font-family="Arial" font-size="12px" font-style="normal" font-weight="700" text-decoration="" line-height="14px" x="65" y="12">Code</text><text fill="rgb(255, 255, 255)" stroke="none" font-family="Arial" font-size="12px" font-style="normal" font-weight="700" text-decoration="" line-height="14px" x="98" y="12">cache</text></g></g><g transform="matrix(-1.8369701987210297e-16,-1,1,-1.8369701987210297e-16,248,308)"><g><g><rect fill="rgb(0,0,0)" stroke="none" x="0" y="0" width="197" height="14" fill-opacity="0"/></g></g><g><g><rect fill="rgb(0,0,0)" stroke="none" x="0" y="0" width="197" height="14" fill-opacity="0"/></g></g><g><g><rect fill="rgb(0,0,0)" stroke="none" x="71.484375" y="0" width="55" height="14" fill-opacity="0"/></g></g><g><g><rect fill="rgb(0,0,0)" stroke="none" x="71.484375" y="0" width="55" height="14" fill-opacity="0"/></g><text fill="rgb(255, 255, 255)" stroke="none" font-family="Arial" font-size="12px" font-style="normal" font-weight="700" text-decoration="" line-height="14px" x="71.484375" y="12">Reserved</text></g></g><g transform="translate(0,0) matrix(1,0,0,1,270,160)"><g><g transform="translate(0,0) scale(0.3,1.5)"><g><path fill="#351c75" stroke="none" stroke-dasharray="1.7976931348623157e+308" d="M 0 0 L 100 0 Q 100 0 100 0 L 100 100 Q 100 100 100 100 L 0 100 Q 0 100 0 100 L 0 0 Q 0 0 0 0 Z"/><g transform="scale(3.3333333333333335,0.6666666666666666)"><path fill="none" stroke="none" stroke-dasharray="1.7976931348623157e+308" d="M 0 0 L 30 0 Q 30 0 30 0 L 30 150 Q 30 150 30 150 L 0 150 Q 0 150 0 150 L 0 0 Q 0 0 0 0 Z"/><path fill="none" stroke="#333333" stroke-dasharray="1.7976931348623157e+308" d="M 0 0 L 30 0 Q 30 0 30 0 L 30 150 Q 30 150 30 150 L 0 150 Q 0 150 0 150 L 0 0 Q 0 0 0 0 Z" stroke-miterlimit="10" stroke-width="2"/></g></g></g></g></g><g transform="matrix(-1.8369701987210297e-16,-1,1,-1.8369701987210297e-16,278,295)"><g><g><rect fill="rgb(0,0,0)" stroke="none" x="0" y="0" width="117" height="14" fill-opacity="0"/></g></g><g><g><rect fill="rgb(0,0,0)" stroke="none" x="0" y="0" width="117" height="14" fill-opacity="0"/></g></g><g><g><rect fill="rgb(0,0,0)" stroke="none" x="10.15625" y="0" width="97" height="14" fill-opacity="0"/></g></g><g><g><rect fill="rgb(0,0,0)" stroke="none" x="10.15625" y="0" width="97" height="14" fill-opacity="0"/></g><text fill="rgb(255, 255, 255)" stroke="none" font-family="Arial" font-size="12px" font-style="normal" font-weight="700" text-decoration="" line-height="14px" x="10" y="12">Program</text><text fill="rgb(255, 255, 255)" stroke="none" font-family="Arial" font-size="12px" font-style="normal" font-weight="700" text-decoration="" line-height="14px" x="63" y="12">counter</text></g></g><g transform="translate(0,0) matrix(1,0,0,1,300,160)"><g><g transform="translate(0,0) scale(0.9,1.5)"><g><path fill="#351c75" stroke="none" stroke-dasharray="1.7976931348623157e+308" d="M 0 0 L 100 0 Q 100 0 100 0 L 100 100 Q 100 100 100 100 L 0 100 Q 0 100 0 100 L 0 0 Q 0 0 0 0 Z"/><g transform="scale(1.1111111111111112,0.6666666666666666)"><path fill="none" stroke="none" stroke-dasharray="1.7976931348623157e+308" d="M 0 0 L 90 0 Q 90 0 90 0 L 90 150 Q 90 150 90 150 L 0 150 Q 0 150 0 150 L 0 0 Q 0 0 0 0 Z"/><path fill="none" stroke="#333333" stroke-dasharray="1.7976931348623157e+308" d="M 0 0 L 90 0 Q 90 0 90 0 L 90 150 Q 90 150 90 150 L 0 150 Q 0 150 0 150 L 0 0 Q 0 0 0 0 Z" stroke-miterlimit="10" stroke-width="2"/></g></g></g></g></g><g transform="matrix(-1.8369701987210297e-16,-1,1,-1.8369701987210297e-16,338,308)"><g><g><rect fill="rgb(0,0,0)" stroke="none" x="0" y="0" width="147" height="14" fill-opacity="0"/></g></g><g><g><rect fill="rgb(0,0,0)" stroke="none" x="0" y="0" width="147" height="14" fill-opacity="0"/></g></g><g><g><rect fill="rgb(0,0,0)" stroke="none" x="22.796875" y="0" width="101" height="14" fill-opacity="0"/></g></g><g><g><rect fill="rgb(0,0,0)" stroke="none" x="22.796875" y="0" width="101" height="14" fill-opacity="0"/></g><text fill="rgb(255, 255, 255)" stroke="none" font-family="Arial" font-size="12px" font-style="normal" font-weight="700" text-decoration="" line-height="14px" x="23" y="12">Java</text><text fill="rgb(255, 255, 255)" stroke="none" font-family="Arial" font-size="12px" font-style="normal" font-weight="700" text-decoration="" line-height="14px" x="49" y="12">/</text><text fill="rgb(255, 255, 255)" stroke="none" font-family="Arial" font-size="12px" font-style="normal" font-weight="700" text-decoration="" line-height="14px" x="53" y="12">Native</text><text fill="rgb(255, 255, 255)" stroke="none" font-family="Arial" font-size="12px" font-style="normal" font-weight="700" text-decoration="" line-height="14px" x="92" y="12">Stack</text></g></g><g transform="translate(0,0) matrix(1,0,0,1,390,110)"><g><g transform="translate(0,0) scale(0.37,2)"><g><path fill="#a64d79" stroke="none" stroke-dasharray="1.7976931348623157e+308" d="M 0 0 L 100 0 Q 100 0 100 0 L 100 100 Q 100 100 100 100 L 0 100 Q 0 100 0 100 L 0 0 Q 0 0 0 0 Z"/><g transform="scale(2.7027027027027026,0.5)"><path fill="none" stroke="none" stroke-dasharray="1.7976931348623157e+308" d="M 0 0 L 37 0 Q 37 0 37 0 L 37 200 Q 37 200 37 200 L 0 200 Q 0 200 0 200 L 0 0 Q 0 0 0 0 Z"/><path fill="none" stroke="#333333" stroke-dasharray="1.7976931348623157e+308" d="M 0 0 L 37 0 Q 37 0 37 0 L 37 200 Q 37 200 37 200 L 0 200 Q 0 200 0 200 L 0 0 Q 0 0 0 0 Z" stroke-miterlimit="10" stroke-width="2"/></g></g></g></g></g><g transform="matrix(-1.8369701987210297e-16,-1,1,-1.8369701987210297e-16,402,331)"><g><g><rect fill="rgb(0,0,0)" stroke="none" x="0" y="0" width="244" height="14" fill-opacity="0"/></g></g><g><g><rect fill="rgb(0,0,0)" stroke="none" x="0" y="0" width="244" height="14" fill-opacity="0"/></g></g><g><g><rect fill="rgb(0,0,0)" stroke="none" x="94.8125" y="0" width="54" height="14" fill-opacity="0"/></g></g><g><g><rect fill="rgb(0,0,0)" stroke="none" x="94.8125" y="0" width="54" height="14" fill-opacity="0"/></g><text fill="rgb(255, 255, 255)" stroke="none" font-family="Arial" font-size="12px" font-style="normal" font-weight="700" text-decoration="" line-height="14px" x="94.8125" y="12">Reserved</text></g></g></g></svg>