<?xml version="1.0" encoding="utf-8"?>
<!-- Generator: Adobe Illustrator 23.0.1, SVG Export Plug-In . SVG Version: 6.00 Build 0)  -->
<svg version="1.1" xmlns="http://www.w3.org/2000/svg" xmlns:xlink="http://www.w3.org/1999/xlink" x="0px" y="0px"
	 viewBox="0 0 92.25 91.06" style="enable-background:new 0 0 92.25 91.06;" xml:space="preserve">
<style type="text/css">
	.st0{stroke:#000000;stroke-miterlimit:10;}
</style>
<g id="Warstwa_1">
	<g id="Warstwa_3">
		<g>
			<g>
				<g>
					<path class="st0" d="M53.44,12.51c0,0.03-0.42,0.07-1.23,0.13s-1.99,0.14-3.51,0.3c-1.52,0.18-3.37,0.43-5.44,1.06
						c-2.06,0.62-4.31,1.68-6.35,3.47c-2.02,1.77-3.83,4.23-4.83,7.23c-1,2.99-1.12,6.52-0.11,9.91c0.51,1.69,1.31,3.35,2.4,4.84
						c0.55,0.74,1.17,1.44,1.89,2.03c0.71,0.6,1.52,1.1,2.38,1.51c3.5,1.61,7.61,2.24,11.71,1.94c4.11-0.29,8.03-1.61,11.37-3.56
						c3.37-1.95,6.03-4.69,8.12-7.61c1.04-1.47,2.09-2.9,2.74-4.42c0.66-1.51,0.7-3.16,0.52-4.73c-0.43-3.14-1.08-6.12-2.47-8.41
						c-0.69-1.13-1.58-2.08-2.61-2.67c-1.02-0.62-2.15-0.88-3.2-1.05c-2.13-0.31-4.02-0.39-5.54-0.4c-1.53-0.01-2.72,0.07-3.52,0.12
						c-0.81,0.05-1.23,0.09-1.23,0.05c-0.01-0.03,0.41-0.12,1.21-0.22c0.8-0.11,1.99-0.23,3.53-0.28c1.54-0.04,3.43-0.01,5.61,0.26
						c1.08,0.16,2.29,0.4,3.4,1.06c1.12,0.62,2.1,1.63,2.84,2.82c1.5,2.42,2.19,5.44,2.65,8.65c0.2,1.61,0.18,3.43-0.54,5.09
						c-0.7,1.65-1.76,3.1-2.8,4.58c-2.1,2.98-4.86,5.84-8.33,7.86c-3.45,2.02-7.48,3.39-11.73,3.7c-4.23,0.31-8.46-0.33-12.13-2.03
						c-0.91-0.44-1.78-0.98-2.55-1.63c-0.77-0.65-1.44-1.4-2.01-2.18c-1.14-1.58-1.96-3.33-2.5-5.1c-1.05-3.56-0.89-7.25,0.19-10.36
						c1.08-3.12,2.99-5.66,5.1-7.46c2.13-1.82,4.48-2.89,6.6-3.47c2.12-0.6,4.01-0.8,5.54-0.93c1.54-0.12,2.73-0.14,3.54-0.14
						C53.01,12.46,53.43,12.48,53.44,12.51z"/>
				</g>
			</g>
		</g>
		<g>
			<g>
				<g>
					<path class="st0" d="M34.16,18.64c0.03,0.12-0.33,0.32-0.89,0.6c-0.56,0.29-1.31,0.68-1.83,1.37c-0.54,0.68-0.55,1.45-0.37,2
						c0.17,0.55,0.42,0.87,0.33,0.96c-0.06,0.08-0.5-0.09-0.88-0.72c-0.18-0.31-0.33-0.74-0.32-1.25c0.01-0.51,0.22-1.05,0.56-1.5
						c0.69-0.91,1.67-1.27,2.3-1.42C33.72,18.52,34.13,18.53,34.16,18.64z"/>
				</g>
			</g>
		</g>
		<g>
			<g>
				<g>
					<path class="st0" d="M74.27,24.93c-0.09-0.06,0.1-0.58,0.64-1.29c0.26-0.35,0.64-0.75,1.02-1.14s0.69-0.82,0.66-1.29
						c-0.01-0.45-0.35-0.66-0.83-0.66c-0.47,0-0.93,0.16-1.33,0.29c-0.79,0.26-1.29,0.45-1.35,0.35c-0.06-0.09,0.34-0.48,1.12-0.9
						c0.38-0.2,0.87-0.46,1.54-0.52c0.33-0.03,0.73,0.01,1.1,0.26c0.37,0.24,0.6,0.71,0.6,1.14c0.01,0.43-0.12,0.82-0.31,1.14
						c-0.2,0.31-0.43,0.55-0.65,0.74c-0.45,0.39-0.81,0.68-1.12,0.98C74.74,24.62,74.37,25,74.27,24.93z"/>
				</g>
			</g>
		</g>
		<g>
			<g>
				<g>
					
						<ellipse transform="matrix(0.214 -0.9768 0.9768 0.214 18.7994 65.7053)" class="st0" cx="50.23" cy="21.17" rx="2.4" ry="0.42"/>
				</g>
			</g>
		</g>
		<g>
			<g>
				<g>
					<path class="st0" d="M54.11,24.07c-0.22-0.08,0.04-1.34,0.5-2.84c0.46-1.5,0.94-2.69,1.17-2.63c0.22,0.05,0.1,1.35-0.37,2.89
						C54.96,23.01,54.33,24.16,54.11,24.07z"/>
				</g>
			</g>
		</g>
		<g>
			<g>
				<g>
					<path class="st0" d="M36.35,43.84c0.09,0.11-1.82,1.79-4.69,4.69c-1.42,1.46-3.05,3.27-4.53,5.51
						c-0.73,1.12-1.42,2.34-1.99,3.68c-0.58,1.33-1.08,2.77-1.52,4.26c-1.84,5.95-2.58,11.58-2.8,15.65
						c-0.24,4.08-0.08,6.62-0.22,6.63c-0.05,0.01-0.16-0.62-0.25-1.77c-0.1-1.14-0.16-2.82-0.12-4.88
						c0.07-4.12,0.73-9.84,2.59-15.88c0.45-1.51,0.97-2.97,1.57-4.34c0.6-1.37,1.33-2.63,2.11-3.78c1.56-2.28,3.26-4.07,4.76-5.49
						c1.49-1.43,2.78-2.49,3.66-3.22C35.8,44.17,36.32,43.8,36.35,43.84z"/>
				</g>
			</g>
		</g>
		<g>
			<g>
				<g>
					<path class="st0" d="M61.27,51.97c0.16,0.16-2.7,3.22-6.54,6.63c-3.84,3.42-7.21,5.91-7.35,5.72
						c-0.15-0.18,2.96-2.95,6.79-6.36C58,54.56,61.1,51.79,61.27,51.97z"/>
				</g>
			</g>
		</g>
		<g>
			<g>
				<g>
					<path class="st0" d="M68.6,85.83c-0.06,0-0.11-0.62-0.14-1.73c-0.03-1.11-0.05-2.72-0.07-4.69c-0.03-1.98,0.06-4.35-0.09-6.94
						c-0.07-1.29-0.33-2.62-0.47-4.07c-0.16-1.46-0.09-2.96-0.11-4.45c-0.03-1.49-0.16-2.94-0.39-4.32
						c-0.25-1.38-0.59-2.7-0.98-3.93c-0.82-2.45-1.86-4.56-2.9-6.22c-1.04-1.67-2.02-2.92-2.74-3.75c-0.7-0.85-1.14-1.29-1.08-1.34
						c0.03-0.03,0.54,0.33,1.33,1.12c0.8,0.78,1.88,1.99,3.01,3.65c1.13,1.65,2.25,3.79,3.14,6.3c0.42,1.26,0.79,2.61,1.06,4.04
						c0.26,1.43,0.39,2.93,0.42,4.46c0.01,1.53-0.05,2.99,0.09,4.38c0.14,1.39,0.37,2.77,0.43,4.1c0.12,2.65-0.05,5-0.09,6.99
						c-0.07,1.98-0.14,3.58-0.2,4.69C68.72,85.22,68.66,85.83,68.6,85.83z"/>
				</g>
			</g>
		</g>
		<g>
			<g>
				<g>
					<path class="st0" d="M37.85,47.03c0.05,0.01-0.05,0.61-0.28,1.67c-0.12,0.53-0.27,1.18-0.45,1.93
						c-0.09,0.37-0.19,0.78-0.29,1.2c-0.04,0.17-0.08,0.35-0.13,0.52c-0.03,0.14-0.07,0.28-0.03,0.42c0.01,0.06,0.07,0.15,0.14,0.14
						l0.21-0.09c0.15-0.07,0.3-0.13,0.45-0.2c0.49-0.21,1-0.43,1.52-0.65c1.05-0.45,2.17-0.93,3.35-1.43
						c2.37-0.99,4.98-2.08,7.72-3.22c0.19-0.07,0.39-0.16,0.57-0.23c0.19-0.05,0.35-0.07,0.5-0.05c0.19,0.04,0.28,0.2,0.34,0.33
						c0.07,0.15,0.1,0.36,0.12,0.56c0.07,0.56,0.15,1.11,0.22,1.66c0.16,1.25,0.32,2.47,0.47,3.65c-2.29-0.91-4.42-1.77-6.33-2.53
						c-1.71-0.69-3.24-1.32-4.48-1.92c-2.48-1.18-3.78-2.19-3.72-2.27c0.05-0.09,1.43,0.77,3.93,1.8c1.25,0.52,2.78,1.09,4.52,1.73
						c1.54,0.58,3.26,1.23,5.1,1.92c-0.1-0.74-0.21-1.5-0.32-2.28c-0.06-0.47-0.13-0.94-0.19-1.42l-0.02-0.18
						c0-0.05-0.01-0.14-0.09-0.13c-0.12,0.03-0.22,0.08-0.33,0.13c-2.74,1.12-5.34,2.18-7.71,3.15c-1.19,0.47-2.32,0.93-3.39,1.35
						c-0.53,0.21-1.04,0.41-1.54,0.61c-0.28,0.09-0.7,0.32-0.96,0.35c-0.14,0.02-0.29,0.06-0.4,0.06c-0.13-0.03-0.24-0.18-0.28-0.3
						c-0.09-0.26-0.07-0.55,0.01-0.85c0.07-0.26,0.15-0.53,0.22-0.78c0.13-0.42,0.24-0.81,0.35-1.19c0.23-0.74,0.43-1.37,0.59-1.89
						C37.58,47.58,37.79,47.01,37.85,47.03z"/>
				</g>
			</g>
		</g>
		<g>
			<g>
				<g>
					<path class="st0" d="M41.79,64.36c-0.17,0.16-2.93-2.42-6.16-5.78c-1.64-1.66-3.01-3.38-3.62-4.84
						c-0.64-1.46-0.59-2.47-0.49-2.47c0.14-0.02,0.3,0.91,1.03,2.21c0.71,1.31,2.07,2.86,3.7,4.52
						C39.47,61.34,41.96,64.19,41.79,64.36z"/>
				</g>
			</g>
		</g>
		<g>
			<g>
				<g>
					<path class="st0" d="M43.43,82.03c-0.23-0.02-0.09-3.51,0.31-7.79c0.44-4.27,0.7-7.73,0.91-7.73c0.12,0,0.22,0.87,0.22,2.3
						c0.01,1.42-0.09,3.37-0.3,5.51C44.18,78.59,43.66,82.05,43.43,82.03z"/>
				</g>
			</g>
		</g>
		<g>
			<g>
				<g>
					<path class="st0" d="M49.21,69.59c0.01,0.24-0.49,0.43-1.09,0.59c-0.6,0.15-1.13,0.21-1.24,0c-0.11-0.2,0.33-0.64,1.03-0.82
						C48.62,69.18,49.21,69.36,49.21,69.59z"/>
				</g>
			</g>
		</g>
		<g>
			<g>
				<g>
					<path class="st0" d="M48.99,74.12c0.05,0.23-0.49,0.53-1.21,0.68c-0.71,0.14-1.33,0.07-1.37-0.16
						c-0.05-0.23,0.49-0.53,1.21-0.68C48.33,73.82,48.95,73.89,48.99,74.12z"/>
				</g>
			</g>
		</g>
		<g>
			<g>
				<g>
					<path class="st0" d="M48.78,78.76c0.14,0.18-0.18,0.66-0.83,0.8c-0.64,0.14-1.14-0.16-1.08-0.38c0.05-0.23,0.45-0.35,0.9-0.45
						C48.22,78.63,48.64,78.56,48.78,78.76z"/>
				</g>
			</g>
		</g>
		<g>
			<g>
				<g>
					<path class="st0" d="M38.9,84.97c-0.09,0.08-0.47-0.27-1.08-0.78c-0.3-0.24-0.67-0.51-1.1-0.69c-0.44-0.18-0.89-0.21-1.48-0.11
						c-1.21,0.18-2.26,0.4-2.93,0.74c-0.68,0.33-0.98,0.73-1.09,0.66c-0.09-0.03,0.05-0.62,0.77-1.17c0.71-0.56,1.88-0.89,3.12-1.08
						c0.32-0.05,0.66-0.08,1-0.05c0.35,0.03,0.66,0.14,0.93,0.28c0.55,0.28,0.92,0.66,1.2,0.98C38.78,84.43,38.99,84.91,38.9,84.97z
						"/>
				</g>
			</g>
		</g>
		<g>
			<g>
				<g>
					<path class="st0" d="M57.92,85.18c-0.11,0.07-0.4-0.32-0.99-0.73c-0.58-0.42-1.49-0.86-2.55-0.91
						c-0.53-0.03-1.02,0.05-1.46,0.19c-0.45,0.14-0.85,0.34-1.22,0.49c-0.73,0.3-1.25,0.34-1.28,0.22c-0.03-0.12,0.37-0.33,1-0.76
						c0.32-0.2,0.71-0.47,1.22-0.68c0.51-0.21,1.14-0.35,1.78-0.3c1.3,0.07,2.36,0.7,2.91,1.31C57.89,84.61,58.01,85.13,57.92,85.18
						z"/>
				</g>
			</g>
		</g>
		<g>
			<g>
				<g>
					<path class="st0" d="M67.73,85.9c0,0.06-0.63,0.1-1.76,0.14c-1.13,0.03-2.77,0.05-4.79,0.06c-4.04,0-9.62-0.01-15.79-0.01
						c-6.17-0.03-11.75-0.05-15.79-0.07c-2.02-0.02-3.66-0.05-4.79-0.08c-1.13-0.03-1.75-0.08-1.75-0.14c0-0.06,0.62-0.12,1.75-0.19
						c1.13-0.07,2.76-0.13,4.79-0.19c4.04-0.12,9.63-0.19,15.8-0.18s11.76,0.12,15.8,0.26c2.02,0.07,3.66,0.14,4.79,0.21
						C67.11,85.78,67.73,85.84,67.73,85.9z"/>
				</g>
			</g>
		</g>
		<g>
			<g>
				<g>
					<path class="st0" d="M53.72,11c-0.12-0.05,0.23-0.84,0.44-2.15c0.1-0.66,0.16-1.44,0.08-2.3c-0.08-0.85-0.25-1.83-0.85-2.47
						c-0.61-0.64-1.56-0.94-2.34-0.91c-0.81,0.02-1.42,0.42-1.69,0.95c-0.28,0.54-0.34,1.09-0.4,1.46
						c-0.05,0.37-0.09,0.59-0.16,0.59c-0.05,0-0.13-0.2-0.17-0.6c-0.03-0.39-0.09-0.98,0.18-1.71c0.14-0.36,0.41-0.74,0.8-1.01
						C50,2.59,50.49,2.43,51,2.39c1.01-0.07,2.15,0.24,3.01,1.11c0.42,0.45,0.66,1,0.8,1.51C54.95,5.53,55,6.03,55.02,6.5
						c0.04,0.95-0.09,1.79-0.27,2.48C54.35,10.35,53.8,11.05,53.72,11z"/>
				</g>
			</g>
		</g>
		<g>
			<g>
				<g>
					<path class="st0" d="M58.08,10.73c-0.1-0.05,0.1-0.76,0.62-1.84c0.26-0.54,0.64-1.17,1.08-1.81c0.43-0.64,0.85-1.33,0.89-2.1
						c0.07-0.77-0.37-1.35-0.95-1.77c-0.28-0.22-0.6-0.4-0.89-0.58c-0.31-0.18-0.42-0.24-0.65-0.18c-1.04,0.37-1.71,0.75-1.77,0.64
						C56.36,3,56.86,2.46,57.99,1.88c0.16-0.07,0.39-0.12,0.62-0.08c0.22,0.03,0.41,0.13,0.57,0.2c0.31,0.16,0.66,0.33,1.01,0.56
						c0.35,0.23,0.71,0.54,0.98,0.96c0.28,0.43,0.41,0.98,0.37,1.5c-0.07,1.06-0.64,1.87-1.1,2.5c-0.49,0.63-0.88,1.16-1.2,1.65
						C58.59,10.16,58.19,10.79,58.08,10.73z"/>
				</g>
			</g>
		</g>
		<g>
			<g>
				<g>
					<path class="st0" d="M65.15,10.69c-0.1-0.07,0.17-0.62,0.6-1.49c0.42-0.86,0.99-2.08,0.91-3.45c-0.04-0.67-0.26-1.28-0.6-1.73
						c-0.34-0.45-0.78-0.74-1.19-0.84c-0.85-0.22-1.39,0.16-1.46,0.05c-0.03-0.04,0.05-0.2,0.3-0.37c0.25-0.16,0.69-0.33,1.25-0.27
						c0.57,0.05,1.21,0.37,1.69,0.93c0.49,0.56,0.79,1.35,0.83,2.17c0.05,0.83-0.12,1.59-0.38,2.23c-0.25,0.64-0.58,1.16-0.86,1.57
						C65.69,10.33,65.25,10.75,65.15,10.69z"/>
				</g>
			</g>
		</g>
		<g>
			<g>
				<g>
					<path class="st0" d="M34.5,38.36c-0.1,0-0.28-0.53-0.27-1.46c0.01-0.45,0.11-1.08,0.45-1.62c0.16-0.24,0.33-0.5,0.5-0.77
						c0.14-0.24,0.26-0.52,0.37-0.83c0.93-2.47,1.37-4.6,1.61-4.56c0.22,0.02,0.16,2.28-0.81,4.86c-0.12,0.33-0.26,0.65-0.45,0.95
						c-0.19,0.28-0.37,0.5-0.54,0.74c-0.32,0.43-0.44,0.87-0.53,1.29C34.67,37.79,34.63,38.36,34.5,38.36z"/>
				</g>
			</g>
		</g>
		<g>
			<g>
				<g>
					<path class="st0" d="M35.37,39.6c-0.23-0.05,0.06-2.34,0.64-5.12c0.29-1.39,0.6-2.63,0.87-3.54c0.14-0.46,0.32-0.84,0.5-1.06
						c0.18-0.22,0.33-0.29,0.38-0.25c0.07,0.09-0.2,0.53-0.29,1.44c-0.12,0.92-0.33,2.19-0.62,3.58
						C36.26,37.43,35.6,39.64,35.37,39.6z"/>
				</g>
			</g>
		</g>
		<g>
			<g>
				<g>
					<path class="st0" d="M36.76,40.62c-0.22,0.05-0.81-2.49-0.3-5.61c0.25-1.56,0.71-2.9,1.08-3.84c0.38-0.94,0.68-1.5,0.79-1.46
						c0.12,0.03,0.01,0.66-0.22,1.64c-0.22,0.98-0.58,2.31-0.82,3.79C36.81,38.11,37.01,40.59,36.76,40.62z"/>
				</g>
			</g>
		</g>
		<g>
			<g>
				<g>
					<path class="st0" d="M37.38,41.53c-0.22-0.01-0.18-2.73,0.16-6.06c0.54-3.3,1.15-5.94,1.38-5.9c0.23,0.04-0.01,2.74-0.54,6.01
						C38.04,38.87,37.62,41.54,37.38,41.53z"/>
				</g>
			</g>
		</g>
		<g>
			<g>
				<g>
					<path class="st0" d="M37.92,41.64c-0.23-0.05,0.09-2.62,0.52-5.78c0.44-3.16,0.83-5.73,1.07-5.71
						c0.23,0.02,0.21,2.63-0.23,5.82C38.83,39.16,38.14,41.68,37.92,41.64z"/>
				</g>
			</g>
		</g>
		<g>
			<g>
				<g>
					<path class="st0" d="M38.65,41.95c-0.12-0.04,0.01-0.68,0.16-1.73c0.16-1.04,0.31-2.47,0.41-4.08
						c0.11-1.61,0.09-3.05,0.26-4.15c0.17-1.1,0.61-1.7,0.7-1.63c0.11,0.05-0.1,0.66-0.11,1.69c-0.01,1.02,0.1,2.51-0.01,4.14
						c-0.09,1.64-0.35,3.12-0.66,4.15C39.09,41.4,38.76,41.99,38.65,41.95z"/>
				</g>
			</g>
		</g>
		<g>
			<g>
				<g>
					<path class="st0" d="M39.9,41.86c-0.24-0.04-0.03-2.55,0.18-5.65c0.21-3.1,0.33-5.61,0.57-5.62c0.23-0.01,0.49,2.54,0.28,5.68
						C40.72,39.41,40.13,41.9,39.9,41.86z"/>
				</g>
			</g>
		</g>
		<g>
			<g>
				<g>
					<path class="st0" d="M40.48,42.67c-0.23-0.01-0.31-2.64,0.22-5.84c0.26-1.6,0.64-2.99,0.82-4.01c0.2-1.01,0.26-1.65,0.38-1.66
						c0.12-0.01,0.26,0.66,0.22,1.73c-0.04,1.08-0.33,2.52-0.58,4.08C41.01,40.1,40.72,42.67,40.48,42.67z"/>
				</g>
			</g>
		</g>
		<g>
			<g>
				<g>
					<path class="st0" d="M40.36,42.54c-0.12-0.02-0.1-0.67,0.18-1.65c0.28-0.98,0.74-2.23,1.06-3.7c0.33-1.46,0.55-2.81,0.75-3.79
						c0.2-0.98,0.37-1.58,0.48-1.57c0.12,0.01,0.16,0.64,0.12,1.64c-0.05,1-0.18,2.39-0.51,3.91c-0.33,1.52-0.9,2.83-1.32,3.72
						C40.69,41.99,40.48,42.56,40.36,42.54z"/>
				</g>
			</g>
		</g>
		<g>
			<g>
				<g>
					<path class="st0" d="M33.89,35.91c-0.2-0.14,0.56-1.61,1.21-3.52c0.67-1.9,0.98-3.54,1.23-3.51c0.22,0.01,0.28,1.77-0.43,3.79
						C35.21,34.69,34.07,36.04,33.89,35.91z"/>
				</g>
			</g>
		</g>
		<g>
			<g>
				<g>
					<path class="st0" d="M41.4,43.11c-0.12-0.01-0.11-0.67,0.16-1.66c0.12-0.49,0.3-1.06,0.43-1.68c0.14-0.63,0.26-1.33,0.37-2.08
						c0.21-1.5,0.42-2.89,0.72-3.87c0.28-0.99,0.62-1.54,0.72-1.5c0.12,0.04-0.01,0.65-0.13,1.63c-0.14,0.98-0.24,2.34-0.47,3.87
						c-0.11,0.77-0.26,1.5-0.45,2.15c-0.19,0.66-0.43,1.22-0.62,1.68C41.72,42.56,41.51,43.13,41.4,43.11z"/>
				</g>
			</g>
		</g>
		<g>
			<g>
				<g>
					<path class="st0" d="M42.62,41.33c-0.11,0-0.22-0.51-0.17-1.32c0.03-0.81,0.26-1.92,0.56-3.09c0.31-1.17,0.59-2.2,0.75-2.96
						c0.17-0.76,0.26-1.25,0.38-1.25c0.11,0,0.24,0.5,0.22,1.31c-0.01,0.82-0.21,1.93-0.52,3.1c-0.31,1.17-0.61,2.21-0.79,2.97
						C42.85,40.85,42.74,41.33,42.62,41.33z"/>
				</g>
			</g>
		</g>
		<g>
			<g>
				<g>
					<path class="st0" d="M33.73,35.45c-0.11,0.01-0.27-0.43-0.27-1.16c-0.01-0.73,0.18-1.74,0.56-2.77
						c0.79-2.04,1.68-3.51,1.88-3.44c0.23,0.09-0.33,1.77-1.08,3.72c-0.36,0.98-0.62,1.88-0.75,2.54
						C33.91,35.01,33.86,35.44,33.73,35.45z"/>
				</g>
			</g>
		</g>
		<g>
			<g>
				<g>
					<path class="st0" d="M33.2,32.99c-0.22,0.04-0.57-1.32-0.06-2.91c0.5-1.6,1.57-2.51,1.73-2.35c0.18,0.16-0.49,1.19-0.92,2.6
						C33.49,31.73,33.43,32.96,33.2,32.99z"/>
				</g>
			</g>
		</g>
		<g>
			<g>
				<g>
					<path class="st0" d="M32.46,32.19c-0.23-0.03-0.24-1.25,0.23-2.65c0.47-1.4,1.22-2.36,1.42-2.25c0.21,0.12-0.18,1.2-0.62,2.52
						C33.04,31.12,32.69,32.22,32.46,32.19z"/>
				</g>
			</g>
		</g>
		<g>
			<g>
				<g>
					<path class="st0" d="M32.17,31.19c-0.23,0-0.43-0.89-0.32-2c0.1-1.1,0.46-1.95,0.69-1.9s0.25,0.93,0.16,1.98
						C32.6,30.33,32.41,31.19,32.17,31.19z"/>
				</g>
			</g>
		</g>
		<g>
			<g>
				<g>
					<path class="st0" d="M32.61,29.72c-0.22-0.07-0.24-0.62-0.18-1.25c0.07-0.63,0.19-1.16,0.43-1.19
						c0.23-0.03,0.49,0.54,0.41,1.28C33.2,29.28,32.84,29.8,32.61,29.72z"/>
				</g>
			</g>
		</g>
		<g>
			<g>
				<g>
					<path class="st0" d="M44.28,36.49c-0.23,0.03-0.54-0.99-0.46-2.28c0.07-1.29,0.5-2.26,0.72-2.2c0.23,0.05,0.19,1.05,0.12,2.26
						C44.6,35.47,44.52,36.46,44.28,36.49z"/>
				</g>
			</g>
		</g>
		<g>
			<g>
				<g>
					<path class="st0" d="M45.3,35.13c-0.23,0.03-0.54-0.91-0.46-2.11c0.07-1.2,0.51-2.09,0.72-2.03c0.23,0.06,0.18,0.98,0.12,2.09
						C45.61,34.19,45.53,35.11,45.3,35.13z"/>
				</g>
			</g>
		</g>
		<g>
			<g>
				<g>
					<path class="st0" d="M46.23,34.69c-0.23,0-0.41-0.94-0.25-2.08c0.15-1.14,0.57-2,0.79-1.94c0.23,0.06,0.19,0.97,0.05,2.05
						C46.67,33.81,46.46,34.69,46.23,34.69z"/>
				</g>
			</g>
		</g>
		<g>
			<g>
				<g>
					<path class="st0" d="M47.02,33.79c-0.23-0.03-0.3-0.93-0.17-2.01c0.14-1.08,0.44-1.94,0.67-1.9c0.23,0.03,0.3,0.93,0.17,2.01
						C47.55,32.97,47.25,33.82,47.02,33.79z"/>
				</g>
			</g>
		</g>
		<g>
			<g>
				<g>
					<path class="st0" d="M48.22,32.44c-0.22,0.04-0.51-0.52-0.42-1.25c0.09-0.73,0.51-1.2,0.72-1.1c0.22,0.09,0.19,0.62,0.12,1.21
						C48.56,31.88,48.45,32.4,48.22,32.44z"/>
				</g>
			</g>
		</g>
		<g>
			<g>
				<g>
					<path class="st0" d="M49.12,32.44c-0.23-0.01-0.35-0.62-0.25-1.34c0.09-0.72,0.36-1.27,0.59-1.23
						c0.23,0.05,0.34,0.64,0.25,1.34C49.62,31.9,49.35,32.45,49.12,32.44z"/>
				</g>
			</g>
		</g>
		<g>
			<g>
				<g>
					<path class="st0" d="M50.36,32.66c-0.23,0.02-0.47-0.57-0.43-1.31c0.03-0.74,0.31-1.3,0.54-1.27c0.23,0.04,0.33,0.62,0.3,1.3
						C50.74,32.07,50.59,32.64,50.36,32.66z"/>
				</g>
			</g>
		</g>
		<g>
			<g>
				<g>
					<path class="st0" d="M51.25,32.77c-0.24-0.01-0.38-0.66-0.4-1.45c-0.01-0.79,0.12-1.44,0.35-1.46c0.23-0.02,0.49,0.62,0.5,1.44
						C51.72,32.13,51.48,32.79,51.25,32.77z"/>
				</g>
			</g>
		</g>
		<g>
			<g>
				<g>
					<path class="st0" d="M51.96,32.67c-0.22-0.08-0.22-0.64-0.14-1.27c0.08-0.63,0.22-1.17,0.45-1.19c0.23-0.03,0.49,0.56,0.39,1.3
						C52.57,32.25,52.18,32.76,51.96,32.67z"/>
				</g>
			</g>
		</g>
		<g>
			<g>
				<g>
					
						<ellipse transform="matrix(0.0531 -0.9986 0.9986 0.0531 19.3555 82.3771)" class="st0" cx="53.11" cy="30.98" rx="1.34" ry="0.42"/>
				</g>
			</g>
		</g>
		<g>
			<g>
				<g>
					
						<ellipse transform="matrix(0.1357 -0.9908 0.9908 0.1357 15.7515 81.1602)" class="st0" cx="54.39" cy="31.55" rx="1.24" ry="0.42"/>
				</g>
			</g>
		</g>
		<g>
			<g>
				<g>
					<path class="st0" d="M55.44,32.44c-0.22-0.08-0.24-0.58-0.12-1.14s0.34-1,0.58-0.99c0.23,0.01,0.39,0.54,0.25,1.16
						C56.02,32.11,55.66,32.52,55.44,32.44z"/>
				</g>
			</g>
		</g>
		<g>
			<g>
				<g>
					
						<ellipse transform="matrix(0.494 -0.8695 0.8695 0.494 1.2184 65.5468)" class="st0" cx="56.92" cy="31.73" rx="1.35" ry="0.42"/>
				</g>
			</g>
		</g>
		<g>
			<g>
				<g>
					<path class="st0" d="M52.99,32.66c-0.23-0.01-0.37-0.74,0.01-1.52c0.38-0.78,1.04-1.12,1.19-0.94c0.16,0.18-0.14,0.7-0.43,1.31
						C53.46,32.13,53.23,32.68,52.99,32.66z"/>
				</g>
			</g>
		</g>
		<g>
			<g>
				<g>
					<path class="st0" d="M56.56,33.11c-0.21-0.09-0.09-0.79,0.43-1.44c0.52-0.65,1.19-0.91,1.32-0.72c0.14,0.19-0.21,0.7-0.66,1.26
						C57.2,32.76,56.77,33.21,56.56,33.11z"/>
				</g>
			</g>
		</g>
		<g>
			<g>
				<g>
					<path class="st0" d="M56.82,34.03c-0.19-0.14,0.14-0.9,0.72-1.7c0.59-0.8,1.21-1.34,1.4-1.2c0.19,0.14-0.14,0.9-0.72,1.7
						C57.64,33.63,57.01,34.17,56.82,34.03z"/>
				</g>
			</g>
		</g>
		<g>
			<g>
				<g>
					<path class="st0" d="M57.51,34.26c-0.18-0.14,0.2-0.96,0.87-1.84c0.66-0.87,1.35-1.47,1.54-1.33c0.18,0.14-0.2,0.96-0.87,1.84
						C58.38,33.81,57.7,34.4,57.51,34.26z"/>
				</g>
			</g>
		</g>
		<g>
			<g>
				<g>
					
						<ellipse transform="matrix(0.4227 -0.9063 0.9063 0.4227 -7.1648 62.6798)" class="st0" cx="45.62" cy="36.96" rx="1.35" ry="0.42"/>
				</g>
			</g>
		</g>
		<g>
			<g>
				<g>
					<path class="st0" d="M45.81,36.15c-0.23-0.03-0.3-0.77,0.05-1.56c0.35-0.8,0.93-1.24,1.12-1.1c0.19,0.15-0.04,0.74-0.35,1.44
						C46.33,35.62,46.04,36.19,45.81,36.15z"/>
				</g>
			</g>
		</g>
		<g>
			<g>
				<g>
					<path class="st0" d="M46.18,37.63c-0.22-0.09-0.22-0.6,0.08-1.09c0.29-0.5,0.74-0.74,0.92-0.6c0.18,0.15,0.07,0.59-0.19,1.02
						C46.73,37.41,46.4,37.72,46.18,37.63z"/>
				</g>
			</g>
		</g>
		<g>
			<g>
				<g>
					<path class="st0" d="M47.03,38.05c-0.2-0.13-0.06-0.7,0.15-1.35c0.22-0.65,0.44-1.19,0.68-1.18c0.23,0.01,0.38,0.68,0.13,1.44
						C47.74,37.73,47.23,38.18,47.03,38.05z"/>
				</g>
			</g>
		</g>
		<g>
			<g>
				<g>
					<path class="st0" d="M47.88,37.86c-0.21-0.11-0.17-0.59,0.08-1.08c0.25-0.49,0.63-0.8,0.83-0.69c0.21,0.11,0.17,0.59-0.08,1.08
						C48.47,37.66,48.09,37.97,47.88,37.86z"/>
				</g>
			</g>
		</g>
		<g>
			<g>
				<g>
					<path class="st0" d="M48.58,38.55c-0.22-0.09-0.19-0.66,0.12-1.24s0.77-0.92,0.96-0.79c0.2,0.14,0.07,0.65-0.22,1.19
						C49.16,38.24,48.8,38.64,48.58,38.55z"/>
				</g>
			</g>
		</g>
		<g>
			<g>
				<g>
					<path class="st0" d="M49.79,38.75c-0.17-0.17,0.07-0.68,0.43-1.22c0.35-0.54,0.72-0.97,0.94-0.89
						c0.22,0.08,0.18,0.72-0.23,1.35C50.52,38.62,49.95,38.92,49.79,38.75z"/>
				</g>
			</g>
		</g>
		<g>
			<g>
				<g>
					<path class="st0" d="M50.7,39.2c-0.22-0.08-0.18-0.74,0.2-1.43c0.37-0.69,0.91-1.09,1.09-0.95c0.19,0.14-0.01,0.72-0.35,1.35
						C51.3,38.8,50.92,39.29,50.7,39.2z"/>
				</g>
			</g>
		</g>
		<g>
			<g>
				<g>
					<path class="st0" d="M51.47,38.97c-0.18-0.16-0.03-0.62,0.26-1.08c0.29-0.46,0.63-0.8,0.85-0.7c0.22,0.09,0.2,0.63-0.13,1.15
						C52.12,38.87,51.64,39.12,51.47,38.97z"/>
				</g>
			</g>
		</g>
		<g>
			<g>
				<g>
					<path class="st0" d="M52.31,38.89c-0.22-0.08-0.21-0.63,0.14-1.16c0.35-0.53,0.85-0.75,1-0.59c0.16,0.17-0.01,0.61-0.3,1.05
						C52.86,38.64,52.53,38.97,52.31,38.89z"/>
				</g>
			</g>
		</g>
		<g>
			<g>
				<g>
					<path class="st0" d="M53.18,39.32c-0.19-0.14,0.01-0.79,0.45-1.45c0.43-0.66,0.95-1.1,1.16-0.98s0,0.77-0.45,1.45
						C53.89,39.02,53.37,39.46,53.18,39.32z"/>
				</g>
			</g>
		</g>
		<g>
			<g>
				<g>
					
						<ellipse transform="matrix(0.4298 -0.9029 0.9029 0.4298 -1.8532 71.6623)" class="st0" cx="55.81" cy="37.3" rx="0.62" ry="0.43"/>
				</g>
			</g>
		</g>
		<g>
			<g>
				<g>
					<path class="st0" d="M56.53,36.48c-0.22-0.09-0.2-0.66,0.04-1.25c0.24-0.6,0.61-1.02,0.83-0.94c0.22,0.07,0.2,0.64-0.04,1.25
						C57.12,36.16,56.74,36.58,56.53,36.48z"/>
				</g>
			</g>
		</g>
		<g>
			<g>
				<g>
					<path class="st0" d="M57.75,36.85c-0.21-0.1-0.07-0.89,0.3-1.75c0.38-0.87,0.86-1.5,1.08-1.41c0.22,0.09,0.08,0.87-0.3,1.75
						C58.44,36.33,57.96,36.96,57.75,36.85z"/>
				</g>
			</g>
		</g>
		<g>
			<g>
				<g>
					<path class="st0" d="M58.52,35.71c-0.23-0.03-0.3-0.83,0.05-1.73c0.36-0.89,0.98-1.42,1.16-1.29c0.19,0.14-0.06,0.81-0.37,1.6
						C59.03,35.09,58.75,35.74,58.52,35.71z"/>
				</g>
			</g>
		</g>
		<g>
			<g>
				<g>
					
						<ellipse transform="matrix(0.4528 -0.8916 0.8916 0.4528 2.2112 72.1982)" class="st0" cx="59.93" cy="34.3" rx="1.45" ry="0.43"/>
				</g>
			</g>
		</g>
		<g>
			<g>
				<g>
					<path class="st0" d="M60.99,35.6c-0.2-0.12-0.01-0.84,0.35-1.65c0.36-0.81,0.75-1.44,0.98-1.37c0.22,0.07,0.18,0.85-0.2,1.71
						C61.73,35.15,61.19,35.72,60.99,35.6z"/>
				</g>
			</g>
		</g>
		<g>
			<g>
				<g>
					<path class="st0" d="M60.5,35.47c-0.22-0.06-0.23-0.72,0.04-1.44c0.27-0.72,0.72-1.21,0.92-1.1c0.21,0.1,0.13,0.72-0.14,1.4
						C61.06,35.03,60.72,35.54,60.5,35.47z"/>
				</g>
			</g>
		</g>
		<g>
			<g>
				<g>
					<path class="st0" d="M62.65,34.68c-0.22-0.05-0.2-0.97,0.28-1.96c0.47-1,1.17-1.6,1.35-1.46c0.19,0.14-0.16,0.91-0.59,1.82
						C63.26,33.99,62.88,34.74,62.65,34.68z"/>
				</g>
			</g>
		</g>
		<g>
			<g>
				<g>
					<path class="st0" d="M62.09,33.89c-0.22-0.03-0.23-0.95,0.37-1.84c0.59-0.89,1.43-1.25,1.55-1.05c0.14,0.2-0.36,0.77-0.85,1.52
						C62.66,33.26,62.33,33.95,62.09,33.89z"/>
				</g>
			</g>
		</g>
		<g>
			<g>
				<g>
					<path class="st0" d="M63.01,32.66c-0.22-0.05-0.25-0.77,0.04-1.56s0.77-1.33,0.98-1.22c0.21,0.11,0.09,0.77-0.18,1.51
						C63.57,32.13,63.24,32.72,63.01,32.66z"/>
				</g>
			</g>
		</g>
		<g>
			<g>
				<g>
					<path class="st0" d="M64.08,32.64c-0.21-0.11-0.06-0.82,0.27-1.63c0.33-0.81,0.74-1.42,0.96-1.34
						c0.22,0.07,0.17,0.83-0.18,1.67C64.79,32.17,64.29,32.74,64.08,32.64z"/>
				</g>
			</g>
		</g>
		<g>
			<g>
				<g>
					<ellipse class="st0" cx="65.14" cy="30.87" rx="0.43" ry="1.45"/>
				</g>
			</g>
		</g>
		<g>
			<g>
				<g>
					<path class="st0" d="M65.68,31.64c-0.23-0.03-0.35-0.69-0.2-1.48c0.15-0.79,0.5-1.36,0.72-1.3c0.22,0.06,0.25,0.71,0.11,1.46
						C66.16,31.07,65.91,31.67,65.68,31.64z"/>
				</g>
			</g>
		</g>
		<g>
			<g>
				<g>
					<path class="st0" d="M66.74,31.08c-0.23-0.05-0.25-0.78-0.2-1.64c0.05-0.86,0.16-1.58,0.4-1.61c0.23-0.03,0.51,0.71,0.45,1.65
						C67.33,30.43,66.96,31.14,66.74,31.08z"/>
				</g>
			</g>
		</g>
		<g>
			<g>
				<g>
					<ellipse class="st0" cx="67.51" cy="28.84" rx="0.43" ry="1.34"/>
				</g>
			</g>
		</g>
		<g>
			<g>
				<g>
					<path class="st0" d="M67.99,29.84c-0.23-0.03-0.35-0.62-0.27-1.33c0.08-0.71,0.34-1.27,0.58-1.24
						c0.23,0.03,0.35,0.62,0.27,1.33C68.49,29.32,68.22,29.87,67.99,29.84z"/>
				</g>
			</g>
		</g>
		<g>
			<g>
				<g>
					
						<ellipse transform="matrix(0.1486 -0.9889 0.9889 0.1486 30.4069 91.8707)" class="st0" cx="68.56" cy="28.28" rx="1.36" ry="0.42"/>
				</g>
			</g>
		</g>
		<g>
			<g>
				<g>
					<ellipse class="st0" cx="69.2" cy="27.71" rx="0.43" ry="1"/>
				</g>
			</g>
		</g>
		<g>
			<g>
				<g>
					<path class="st0" d="M69.87,29.16c-0.23-0.06-0.26-0.64-0.2-1.31c0.07-0.67,0.21-1.23,0.45-1.25c0.23-0.02,0.47,0.58,0.4,1.33
						C70.44,28.68,70.09,29.22,69.87,29.16z"/>
				</g>
			</g>
		</g>
		<g>
			<g>
				<g>
					<path class="st0" d="M70.67,29.05c-0.24-0.02-0.38-0.54-0.41-1.16c-0.03-0.62,0.07-1.14,0.3-1.19
						c0.23-0.04,0.51,0.47,0.54,1.15C71.13,28.54,70.9,29.07,70.67,29.05z"/>
				</g>
			</g>
		</g>
		<g>
			<g>
				<g>
					<ellipse class="st0" cx="71.35" cy="27.37" rx="0.43" ry="1.45"/>
				</g>
			</g>
		</g>
		<g>
			<g>
				<g>
					<ellipse class="st0" cx="71.81" cy="27.14" rx="0.43" ry="1.23"/>
				</g>
			</g>
		</g>
		<g>
			<g>
				<g>
					<path class="st0" d="M72.46,28.48c-0.22-0.07-0.25-0.62-0.19-1.26c0.07-0.64,0.2-1.17,0.43-1.19c0.23-0.03,0.48,0.55,0.41,1.28
						C73.04,28.04,72.68,28.55,72.46,28.48z"/>
				</g>
			</g>
		</g>
		<g>
			<g>
				<g>
					<path class="st0" d="M59.96,34.13c-0.23-0.01-0.36-0.61-0.05-1.23c0.31-0.62,0.87-0.87,1.02-0.7c0.16,0.18-0.03,0.61-0.26,1.08
						C60.43,33.75,60.2,34.16,59.96,34.13z"/>
				</g>
			</g>
		</g>
		<g>
			<g>
				<g>
					<path class="st0" d="M61.46,34.03c-0.23-0.05-0.35-0.41-0.33-0.8c0.02-0.39,0.16-0.74,0.39-0.77c0.23-0.03,0.47,0.33,0.45,0.81
						C61.95,33.74,61.69,34.08,61.46,34.03z"/>
				</g>
			</g>
		</g>
		<g>
			<g>
				<g>
					<path class="st0" d="M43.85,39.19c-0.23-0.03-0.28-1.06,0.11-2.23c0.39-1.18,1.04-1.98,1.24-1.86
						c0.21,0.12-0.08,1.03-0.44,2.13C44.4,38.31,44.09,39.22,43.85,39.19z"/>
				</g>
			</g>
		</g>
		<g>
			<g>
				<path d="M45.31,41.09c2.41,0.52,4.84,0.81,7.3,0.88c0.43,0.01,0.43-0.66,0-0.68c-2.4-0.07-4.77-0.35-7.12-0.86
					C45.07,40.34,44.88,40.99,45.31,41.09L45.31,41.09z"/>
			</g>
		</g>
		<g>
			<g>
				<path d="M41.82,43.23c4.09,0.94,8.3,1.77,12.47,0.86c3.9-0.85,7.54-3.37,11.03-5.21c3.86-2.03,0.44-7.88-3.42-5.84
					c-2.69,1.42-5.45,3.27-8.34,4.24c-3.22,1.08-6.76,0.16-9.96-0.58C39.38,35.73,37.56,42.26,41.82,43.23L41.82,43.23z"/>
			</g>
		</g>
		<g>
			<g>
				<path d="M60.66,34.29c-0.6,0.4-1.21,0.77-1.86,1.09c-0.14,0.07-1.09,0.48-0.37,0.19c-0.36,0.14-0.72,0.27-1.08,0.39
					c-1.68,0.56-2.95,2.36-2.36,4.17c0.54,1.67,2.36,2.97,4.17,2.36c1.73-0.58,3.41-1.34,4.92-2.36c1.47-0.98,2.25-3.03,1.21-4.63
					C64.35,34.04,62.24,33.23,60.66,34.29L60.66,34.29z"/>
			</g>
		</g>
		<g>
			<g>
				<path d="M50.34,38.3c-2.81-0.49-5.62-0.98-8.42-1.47c-4.26-0.74-5.97,5.1-1.8,6.53c2.63,0.9,5.28,1.37,8.05,1.53
					c3.79,0.22,4.64-5.84,0.9-6.65c-2.12-0.46-5.66-0.53-7.5-1.67c-0.64-0.4-0.68-0.66-1.2-1.27c-0.54-0.64-1.41-0.99-1.88-1.56
					c-2.36-2.81-6.26,0.29-5.66,3.29c0.2,1,0.57,1.88,1.18,2.69c1.77-1.37,3.55-2.74,5.32-4.1c-0.58-0.65-0.66-1.85-0.97-2.65
					c-0.42-1.07-0.97-1.86-1.69-2.74c-2.74-3.39-7.5,1.43-4.79,4.79c0.53,0.65,0.61,1.92,0.93,2.7c0.43,1.06,0.97,1.85,1.73,2.7
					c2.52,2.82,7.64-1,5.32-4.1c-0.35-0.28-0.51-0.64-0.49-1.08c-1.89,1.1-3.77,2.19-5.66,3.29c0.39,0.46,0.85,0.66,1.27,1.03
					c0.61,0.53-0.65-0.89,0.15,0.18c0.82,1.1,1.55,1.99,2.78,2.63c2.78,1.46,6.35,1.74,9.37,2.4c0.3-2.21,0.6-4.44,0.9-6.65
					c-2.17-0.13-4.19-0.58-6.25-1.29c-0.6,2.17-1.2,4.35-1.8,6.53c2.81,0.49,5.62,0.98,8.42,1.47C52.8,45.58,54.63,39.05,50.34,38.3
					L50.34,38.3z"/>
			</g>
		</g>
		<g>
			<g>
				<path d="M68.28,35.62c-0.03,0.16-0.91,1.15-0.34,0.56c0.18-0.18,0.35-0.38,0.52-0.56c0.32-0.33,0.65-0.66,0.99-0.97
					c0.3-0.28,0.62-0.54,0.93-0.8c-0.37,0.3-0.02,0.01,0.17-0.12c0.21-0.15,0.42-0.3,0.63-0.44c1.46-1,2.26-3.02,1.21-4.63
					c-0.94-1.46-3.07-2.28-4.63-1.21c-1.16,0.79-2.3,1.67-3.33,2.63c-1.04,0.98-2.47,2.28-2.69,3.75c-0.26,1.74,0.44,3.72,2.36,4.17
					C65.72,38.34,67.99,37.48,68.28,35.62L68.28,35.62z"/>
			</g>
		</g>
	</g>
</g>
<g id="Warstwa_2">
	<g>
		<g>
			<path d="M67.86,57.13c2.33-2.04,6.08-3.84,7.63,0.16c0.82,2.12,0.81,4.5-0.82,6.23c-2.51,2.66-6.97,4.15-10.27,5.41
				c-0.59,0.23-0.34,1.2,0.27,0.96c4.56-1.75,13.02-4.28,12.33-10.51c-0.22-1.97-0.94-4.29-2.84-5.25c-2.59-1.31-5.12,0.64-7,2.28
				C66.67,56.85,67.38,57.56,67.86,57.13L67.86,57.13z"/>
		</g>
	</g>
	<g>
		<g>
			<path d="M24.54,55.45c-1.92-1.86-4.47-3.76-7.32-2.97c-2.4,0.67-3.86,3.05-3.63,5.48c0.3,3.11,2.72,6.35,4.57,8.75
				c2.01,2.62,4.54,4.68,7.89,5.16c0.63,0.09,0.9-0.87,0.27-0.96c-4.72-0.68-7.44-4.58-9.74-8.39c-1.54-2.55-3.44-6.36-0.2-8.55
				c2.65-1.79,5.55,0.34,7.46,2.19C24.29,56.6,25,55.9,24.54,55.45L24.54,55.45z"/>
		</g>
	</g>
	<g>
		<g>
			<path d="M3.11,90.82C0.32,84.8,9.49,78.77,13.85,76.35c5.03-2.79,10.64-4.27,16.38-4.44c0.64-0.02,0.64-1.02,0-1
				c-6.97,0.2-13.79,2.32-19.58,6.23c-4.31,2.91-11.15,8.25-8.4,14.18C2.52,91.91,3.38,91.4,3.11,90.82L3.11,90.82z"/>
		</g>
	</g>
	<g>
		<g>
			<path d="M91.34,90.7c-1.7-2.66-3.43-5.34-5.58-7.67c-2.29-2.49-5.02-4.52-7.73-6.52c-5.32-3.93-10.93-7.91-17.85-7.67
				c-0.64,0.02-0.64,1.02,0,1c6.73-0.23,12.18,3.72,17.34,7.53c2.53,1.87,5.05,3.76,7.23,6.05c2.23,2.34,3.99,5.06,5.72,7.78
				C90.83,91.74,91.69,91.24,91.34,90.7L91.34,90.7z"/>
		</g>
	</g>
	<g>
		<g>
			<path d="M30.57,71.2c0.76-3.01,3.78-3.76,6.46-4.22c0.72-0.12,2.76-0.81,3.48-0.57c1.22,0.42,0.87,2.91,0.89,3.84
				c0.02,1.16,0.01,2.33-0.03,3.49c-0.06,1.83-0.79,2.37-2.55,2.26c-3.07-0.2-8.34-1.2-8.26-5.17c0.01-0.64-0.99-0.64-1,0
				c-0.04,1.71,0.19,2.96,1.68,3.94c1.71,1.12,3.91,1.74,5.9,2.05c1.13,0.18,3.9,0.8,4.84-0.11c0.99-0.95,0.44-4.36,0.43-5.58
				c-0.01-1.31-0.05-2.62-0.13-3.92c-0.02-0.39,0.04-1.12-0.22-1.48c-0.71-0.94-2.45-0.18-3.36-0.03c-3.57,0.58-8.05,1.1-9.08,5.24
				C29.45,71.56,30.42,71.83,30.57,71.2L30.57,71.2z"/>
		</g>
	</g>
	<g>
		<g>
			<path d="M42.18,69.88c1.23,0,2.45,0,3.68,0c0.64,0,0.64-1,0-1c-1.23,0-2.45,0-3.68,0C41.54,68.88,41.54,69.88,42.18,69.88
				L42.18,69.88z"/>
		</g>
	</g>
	<g>
		<g>
			<path d="M42.31,73.37c1.1,0.05,2.19,0.02,3.29-0.1c0.63-0.07,0.64-1.07,0-1c-1.09,0.12-2.19,0.16-3.29,0.1
				C41.67,72.34,41.67,73.34,42.31,73.37L42.31,73.37z"/>
		</g>
	</g>
	<g>
		<g>
			<path d="M60.3,69.03c-1.98-3.23-4.28-4.4-8.09-4.16c-0.97,0.06-1.67,0.16-1.98,1.14c-0.28,0.88-0.13,1.98-0.16,2.89
				c-0.04,1.24-0.14,2.49-0.1,3.73c0.03,0.97,0.09,2.76,1.07,3.34c0.93,0.55,2.85-0.13,3.73-0.45c2.91-1.06,5.12-3.31,6.3-6.15
				c0.25-0.59-0.72-0.85-0.96-0.27c-0.83,2-2.28,3.7-4.17,4.77c-0.79,0.45-1.87,1.01-2.8,1.07c-2.06,0.11-2.17-1.36-2.16-2.96
				c0.01-1.03,0.07-2.06,0.1-3.08c0.03-0.92-0.06-1.53,0.44-2.33c0.53-0.82,0.46-0.71,1.34-0.73c1.09-0.03,2.23-0.01,3.27,0.35
				c1.58,0.56,2.49,1.98,3.32,3.34C59.77,70.09,60.63,69.59,60.3,69.03L60.3,69.03z"/>
		</g>
	</g>
	<g>
		<g>
			<path d="M24.5,70.75c0.6-0.54,1.91-1.56,2.78-1.62c1.09-0.08,0.86,1.59,0.7,2.05c-0.15,0.42-0.42,0.83-0.65,1.21
				c-0.31,0.51-0.75,1.33-1.57,0.99c-0.55-0.23-0.68-0.9-0.81-1.4c-0.16-0.63-0.3-1.19-0.83-1.62c-0.5-0.4-1.21,0.3-0.71,0.71
				c0.57,0.46,0.51,1.22,0.76,1.86c0.17,0.45,0.45,0.86,0.84,1.15c0.78,0.59,1.75,0.49,2.44-0.18c0.75-0.72,1.59-2.1,1.7-3.15
				c0.07-0.74-0.19-2-1.09-2.11c-0.61-0.07-1.18,0.58-0.8,1.17c0.45,0.7,1.34,0.18,1.44-0.48c0.12-0.81-0.7-1.27-1.41-1.2
				c-1.22,0.11-2.63,1.13-3.51,1.92C23.32,70.48,24.03,71.18,24.5,70.75L24.5,70.75z"/>
		</g>
	</g>
	<g>
		<g>
			<path d="M26.41,69.6c-0.21,0.15-0.4,0.24-0.65,0.3c0.16,0.28,0.32,0.56,0.49,0.84c0.09-0.11,0.19-0.22,0.28-0.33
				c0.28-0.34,0.02-1.04-0.49-0.84c-0.39,0.16-0.77,0.31-1.16,0.47c0.19,0.24,0.38,0.49,0.56,0.73c0.04-0.16,0.14-0.24,0.3-0.24
				c0.15-0.1,0.22-0.07,0.2,0.1c-0.43,0.47,0.26,1.17,0.71,0.71c0.08-0.08,0.16-0.16,0.24-0.25c-0.28-0.07-0.56-0.15-0.84-0.22
				c0.1,0.34,0.28,0.58,0.6,0.73c0.26,0.12,0.51,0.06,0.68-0.18c0.11-0.15,0.22-0.3,0.32-0.45c-0.3-0.04-0.61-0.08-0.91-0.12
				c0.15,0.46,0.07,0.87-0.28,1.22c0.28,0.07,0.56,0.15,0.84,0.22c-0.1-0.32-0.2-0.64-0.3-0.97c-0.15-0.47-0.82-0.48-0.96,0
				c-0.06,0.2-0.24,0.98-0.62,0.8c-0.58-0.27-1.04,0.49-0.5,0.86c0.48,0.34,1.11,0.65,1.7,0.4c0.61-0.27,0.77-1.04,0.99-1.6
				c0.22-0.58,0.77-1.43,0.49-2.06c-0.26-0.58-0.88-0.46-1.33-0.76c-0.08,0.31-0.17,0.62-0.25,0.93c0.31-0.02,0.49,0.14,0.68,0.36
				c0.09,0.09,0.17,0.19,0.24,0.3c0.06,0.2,0.18,0.34,0.36,0.44c-0.17-0.62-1.13-0.36-0.96,0.27c0.26,0.97,1.64,0.68,1.75-0.23
				c0.11-1-1.08-2.19-2.07-2.12c-0.5,0.03-0.68,0.66-0.25,0.93c0.2,0.13,0.41,0.16,0.62,0.25c0.22,0.09,0.2,0.01,0.23,0.23
				c0.02,0.15-0.18,0.47-0.23,0.6c-0.14,0.35-0.24,0.76-0.42,1.09c-0.09,0.16-0.19,0.45-0.43,0.46c-0.16,0-0.47-0.24-0.6-0.33
				c-0.17,0.29-0.34,0.58-0.5,0.86c1.11,0.52,1.8-0.44,2.09-1.4c-0.32,0-0.64,0-0.96,0c0.1,0.32,0.2,0.64,0.3,0.97
				c0.11,0.36,0.56,0.49,0.84,0.22c0.59-0.59,0.79-1.4,0.53-2.2c-0.14-0.43-0.66-0.47-0.91-0.12c-0.11,0.15-0.22,0.3-0.32,0.45
				c0.23-0.06,0.46-0.12,0.68-0.18c-0.05-0.04-0.09-0.09-0.14-0.13c-0.11-0.35-0.57-0.5-0.84-0.22c-0.08,0.08-0.16,0.16-0.24,0.25
				c0.24,0.24,0.47,0.47,0.71,0.71c0.46-0.51,0.39-1.28-0.18-1.69c-0.68-0.48-1.52-0.02-1.89,0.62c-0.2,0.35,0.14,0.91,0.56,0.73
				c0.39-0.16,0.77-0.31,1.16-0.47c-0.16-0.28-0.32-0.56-0.49-0.84c-0.09,0.11-0.19,0.22-0.28,0.33c-0.32,0.38-0.02,0.95,0.49,0.84
				c0.34-0.08,0.61-0.2,0.89-0.4C27.43,70.09,26.94,69.22,26.41,69.6L26.41,69.6z"/>
		</g>
	</g>
	<g>
		<g>
			<path d="M21.23,66.68c-1.36-2.18-2.55-4.46-3.46-6.87c-0.21-0.54-0.4-1.08-0.57-1.63c0.95-2.1,2.07-2.67,3.37-1.71
				c1.06,0.29,2.2,1.11,3.19,1.6c0.57,0.29,1.08-0.57,0.5-0.86c-1.65-0.83-6.67-4.57-8.05-1.4c-0.69,1.6,0.33,3.64,0.92,5.08
				c0.89,2.2,1.99,4.28,3.24,6.3C20.71,67.73,21.57,67.23,21.23,66.68L21.23,66.68z"/>
		</g>
	</g>
	<g>
		<g>
			<path d="M68.67,58.55c0.75-0.53,1.55-1.22,2.43-1.51c0.97-0.32,2.85,0.66,3.14,1.64c0.21,0.72,0.11,1.56-0.09,2.27
				c-0.73,2.57-3.09,4.1-5.44,5.02c-0.59,0.23-0.33,1.2,0.27,0.96c3.41-1.34,7.01-4.2,6.3-8.32c-0.24-1.4-1.02-2.65-2.52-2.87
				c-1.72-0.25-3.28,1.02-4.59,1.94C67.65,58.05,68.14,58.92,68.67,58.55L68.67,58.55z"/>
		</g>
	</g>
	<g>
		<g>
			<path d="M64.26,68.78c1.14,0.13,1.54,1.46,0.65,2.17c-0.54,0.44-1.77,0.69-2.44,0.51c-0.99-0.27-0.95-1.18-0.52-1.96
				c0.15-0.27,0.35-0.59,0.57-0.81c0.51-0.52,0.89-0.36,1.41-0.01c0-0.29,0-0.58,0-0.86c-0.67,0.32-1.33,0.64-2,0.97
				c0.23,0.23,0.46,0.46,0.68,0.68c0.07-0.17,0.18-0.3,0.33-0.39c-0.24,0-0.47,0-0.71,0c0.07,0.22,0.15,0.44,0.22,0.66
				c-0.08,0.54,0.58,0.88,0.91,0.39c0.1-0.3,0.31-0.39,0.61-0.28c-0.14,0.11-0.29,0.22-0.44,0.31c-0.17,0.12-0.34,0.21-0.54,0.28
				c-0.4,0.15-0.7,0.01-0.88-0.43c-0.22,0.46,0.22,0.91,0.68,0.68c0.07-0.04,0.42-0.15,0.45-0.21c0.09-0.21-0.51,0.05-0.51,0.05
				c-0.23,0.15-0.32,0.39-0.39,0.64c-0.1,0.33,0.17,0.61,0.48,0.63c1.06,0.09,2-0.43,2.5-1.37c0.31-0.57-0.56-1.07-0.86-0.5
				c-0.35,0.64-0.91,0.93-1.64,0.87c0.16,0.21,0.32,0.42,0.48,0.63c0.1-0.34,0.63-0.49,0.78-0.86c0.1-0.25,0.13-0.53,0-0.78
				c-0.38-0.73-1.27-0.22-1.8,0.04c0.23,0.23,0.46,0.46,0.68,0.68c0.49-1.01-0.44-2.02-1.39-1.2c-0.96,0.83-0.08,2.08,0.97,2.17
				c0.9,0.07,2.77-0.85,2.48-1.99c-0.13-0.49-0.62-0.8-1.1-0.82c-0.65-0.03-1.11,0.45-1.45,0.95c0.3,0.13,0.61,0.26,0.91,0.39
				c0.09-0.65-0.04-1.14-0.48-1.63c-0.19-0.21-0.51-0.16-0.71,0c-0.21,0.18-0.36,0.35-0.49,0.59c-0.26,0.46,0.25,0.9,0.68,0.68
				c0.67-0.32,1.33-0.64,2-0.97c0.36-0.17,0.29-0.67,0-0.86c-0.61-0.4-1.31-0.72-2.01-0.36c-0.61,0.31-1.1,1.09-1.42,1.67
				c-0.71,1.32-0.4,2.88,1.18,3.29c1.33,0.35,3.42-0.2,4.01-1.54c0.66-1.5-0.42-2.93-1.95-3.1C63.62,67.71,63.62,68.71,64.26,68.78
				L64.26,68.78z"/>
		</g>
	</g>
</g>
</svg>
